{"glyphs":{"0":{"ha":772,"x_min":58,"x_max":705,"o":"m 58 490 q 94 773 58 668 q 201 939 129 879 q 382 999 272 999 q 522 966 461 999 q 621 873 583 933 q 682 726 660 812 q 705 490 705 640 q 697 331 705 400 q 669 207 689 262 q 563 43 635 103 q 382 -16 492 -16 q 155 86 237 -16 q 58 490 58 210 m 183 490 q 240 166 183 249 q 382 83 297 83 q 523 165 465 83 q 581 490 581 248 q 523 816 581 734 q 380 897 465 897 q 245 827 298 897 q 183 490 183 734 z "},"1":{"ha":772,"x_min":151,"x_max":518,"o":"m 518 0 l 396 0 l 396 778 q 279 694 353 736 q 213 658 249 675 q 151 631 176 640 l 151 749 q 330 866 254 798 q 439 999 406 935 l 518 999 l 518 0 z "},"2":{"ha":772,"x_min":41,"x_max":699,"o":"m 699 117 l 699 0 l 41 0 q 44 44 41 26 q 57 85 47 61 q 136 218 81 153 q 296 368 192 283 q 514 576 456 497 q 572 725 572 656 q 520 848 572 798 q 385 897 468 897 q 245 844 300 897 q 191 697 191 791 l 65 711 q 163 924 78 850 q 387 999 248 999 q 614 920 530 999 q 697 722 697 840 q 673 604 697 661 q 592 484 648 546 q 404 309 536 421 l 334 249 q 262 183 290 211 q 236 152 250 170 l 211 117 l 699 117 z "},"3":{"ha":772,"x_min":58,"x_max":710,"o":"m 58 262 l 180 279 q 253 129 201 175 q 375 83 304 83 q 520 142 461 83 q 579 290 579 201 q 524 430 579 375 q 385 485 469 485 q 298 471 349 485 l 313 578 l 332 576 q 471 617 408 576 q 534 743 534 659 q 490 853 534 810 q 372 897 446 897 q 307 887 335 897 q 254 852 279 876 q 193 720 208 811 l 71 741 q 173 930 93 863 q 370 999 253 999 q 519 964 450 999 q 624 868 587 929 q 661 741 661 807 q 627 623 661 679 q 524 539 590 570 q 661 453 611 518 q 710 293 710 389 q 614 73 710 164 q 375 -18 519 -18 q 158 61 245 -18 q 58 262 71 140 z "},"4":{"ha":772,"x_min":18,"x_max":705,"o":"m 449 0 l 449 237 l 18 237 l 18 350 l 471 994 l 571 994 l 571 350 l 705 350 l 705 237 l 571 237 l 571 0 l 449 0 m 449 350 l 449 799 l 138 350 l 449 350 z "},"5":{"ha":772,"x_min":58,"x_max":717,"o":"m 58 261 l 186 271 q 251 130 200 178 q 376 83 302 83 q 526 151 464 83 q 587 326 587 218 q 529 491 587 431 q 375 551 471 551 q 268 524 314 551 q 195 456 222 498 l 79 469 l 175 981 l 669 981 l 669 864 l 273 864 l 220 597 q 407 660 313 660 q 627 570 538 660 q 717 338 717 481 q 637 104 717 201 q 376 -16 543 -16 q 155 58 241 -16 q 85 150 111 98 q 58 261 58 201 z "},"6":{"ha":772,"x_min":53,"x_max":708,"o":"m 692 751 l 570 742 q 524 846 551 815 q 401 897 476 897 q 298 865 343 897 q 209 742 244 825 q 174 513 174 659 q 280 612 218 579 q 415 644 342 644 q 623 554 538 644 q 708 322 708 464 q 668 151 708 232 q 559 26 628 69 q 397 -16 489 -16 q 149 95 244 -16 q 53 465 53 207 q 158 885 53 754 q 408 999 253 999 q 600 933 524 999 q 692 751 675 868 m 193 322 q 218 202 193 258 q 293 115 244 146 q 396 83 342 83 q 528 145 473 83 q 583 315 583 207 q 528 477 583 416 q 390 538 472 538 q 251 477 309 538 q 193 322 193 416 z "},"7":{"ha":772,"x_min":65,"x_max":710,"o":"m 65 864 l 65 982 l 710 982 l 710 886 q 617 770 664 838 q 521 618 570 704 q 376 273 428 450 q 339 115 349 176 q 330 0 330 54 l 204 0 q 252 283 204 111 q 377 602 294 446 q 553 864 460 758 l 65 864 z "},"8":{"ha":772,"x_min":57,"x_max":711,"o":"m 245 539 q 133 618 171 567 q 96 742 96 671 q 174 925 96 847 q 382 999 254 999 q 593 923 514 999 q 671 739 671 847 q 635 620 671 671 q 524 539 599 568 q 664 442 616 510 q 711 285 711 375 q 621 69 711 155 q 383 -16 530 -16 q 146 71 236 -16 q 57 288 57 158 q 104 449 57 385 q 245 539 153 514 m 221 746 q 266 631 221 676 q 385 586 311 586 q 500 631 456 586 q 546 739 546 676 q 499 850 546 804 q 383 897 453 897 q 267 853 313 897 q 221 746 221 808 m 182 288 q 205 186 182 237 q 279 111 231 138 q 385 83 328 83 q 529 140 473 83 q 586 283 586 193 q 528 429 586 368 q 380 486 468 486 q 237 429 297 486 q 182 288 182 371 z "},"9":{"ha":772,"x_min":58,"x_max":711,"o":"m 77 231 l 193 240 q 250 121 208 158 q 358 83 292 83 q 457 110 414 83 q 525 175 500 136 q 572 294 550 214 q 590 443 590 374 l 589 468 q 492 375 554 412 q 351 338 429 338 q 144 427 231 338 q 58 663 58 515 q 147 905 58 811 q 371 999 236 999 q 463 986 419 999 q 547 946 505 974 q 670 798 628 895 q 711 518 711 701 q 671 214 711 326 q 547 43 631 102 q 355 -16 464 -16 q 165 47 239 -16 q 77 231 93 110 m 576 668 q 521 835 576 772 q 385 897 465 897 q 244 831 306 897 q 183 659 183 765 q 239 505 183 566 q 382 444 296 444 q 522 504 467 444 q 576 668 576 564 z "},"\u0000":{"ha":1072,"x_min":0,"x_max":0,"o":""},"\r":{"ha":463,"x_min":0,"x_max":0,"o":""}," ":{"ha":335,"x_min":0,"x_max":0,"o":""},"!":{"ha":386,"x_min":119,"x_max":271,"o":"m 157 248 l 119 774 l 119 994 l 271 994 l 271 774 l 235 248 l 157 248 m 125 0 l 125 139 l 265 139 l 265 0 l 125 0 z "},"\"":{"ha":493,"x_min":64,"x_max":428,"o":"m 97 642 l 64 832 l 64 994 l 203 994 l 203 832 l 172 642 l 97 642 m 322 642 l 289 832 l 289 994 l 428 994 l 428 832 l 396 642 l 322 642 z "},"#":{"ha":772,"x_min":14,"x_max":754,"o":"m 69 -16 l 129 272 l 14 272 l 14 374 l 149 374 l 200 619 l 14 619 l 14 721 l 220 721 l 279 1011 l 380 1011 l 321 721 l 534 721 l 595 1011 l 696 1011 l 637 721 l 754 721 l 754 619 l 616 619 l 567 374 l 754 374 l 754 272 l 546 272 l 488 -16 l 385 -16 l 443 272 l 231 272 l 172 -16 l 69 -16 m 252 374 l 464 374 l 515 619 l 301 619 l 252 374 z "},"$":{"ha":665,"x_min":50,"x_max":608,"o":"m 83 208 l 127 208 q 179 88 136 131 q 292 37 221 46 l 292 424 q 103 564 144 510 q 62 692 62 619 q 126 854 62 785 q 292 940 191 924 l 292 1014 l 354 1014 l 354 943 q 486 929 432 943 q 591 885 543 917 q 547 717 566 808 l 501 717 q 473 833 501 792 q 423 872 453 859 q 354 885 393 885 l 354 534 q 560 389 511 450 q 608 252 608 328 q 541 80 608 155 q 354 -22 473 4 l 354 -133 l 292 -133 l 292 -27 q 229 -26 249 -27 q 174 -16 208 -24 q 50 17 126 -8 l 71 111 l 83 208 m 292 879 q 205 833 236 868 q 174 742 174 798 q 199 654 174 693 q 292 574 224 614 l 292 879 m 354 41 q 454 98 419 54 q 489 204 489 140 q 457 305 489 261 q 354 387 425 350 l 354 41 z "},"%":{"ha":1234,"x_min":81,"x_max":1150,"o":"m 81 755 q 134 936 81 861 q 289 1011 187 1011 q 444 944 383 1011 q 505 749 505 876 q 444 553 505 621 q 290 486 382 486 q 141 553 201 486 q 81 755 81 621 m 293 926 q 217 888 248 926 q 187 743 187 850 q 217 608 187 647 q 293 570 248 570 q 370 610 339 570 q 400 753 400 650 q 370 886 400 846 q 293 926 339 926 m 293 -36 l 838 1011 l 936 1011 l 395 -36 l 293 -36 m 724 233 q 777 415 724 340 q 933 489 831 489 q 1088 422 1026 489 q 1150 227 1150 355 q 1088 33 1150 102 q 933 -36 1025 -36 q 784 31 844 -36 q 724 233 724 98 m 936 406 q 861 366 892 406 q 831 221 831 328 q 861 87 831 126 q 936 47 890 47 q 1013 87 982 47 q 1043 231 1043 123 q 1012 366 1043 326 q 936 406 981 406 z "},"&":{"ha":926,"x_min":60,"x_max":895,"o":"m 660 117 q 528 16 599 49 q 375 -16 457 -16 q 132 86 221 -16 q 60 273 60 171 q 119 441 60 366 q 296 571 178 515 q 208 694 231 646 q 184 789 184 742 q 255 945 184 879 q 432 1011 325 1011 q 597 949 532 1011 q 663 799 663 886 q 475 557 663 657 l 653 329 q 700 468 684 387 l 828 440 q 739 227 794 311 q 895 74 810 135 l 812 -23 q 660 117 739 25 m 411 636 q 514 718 490 682 q 538 796 538 753 q 506 878 538 846 q 425 911 473 911 q 344 879 378 911 q 310 802 310 847 q 321 755 310 779 q 357 699 332 730 l 411 636 m 583 214 l 359 492 q 227 382 261 432 q 192 282 192 332 q 240 156 192 221 q 376 90 288 90 q 490 125 432 90 q 583 214 549 160 z "},"'":{"ha":265,"x_min":61,"x_max":200,"o":"m 92 642 l 61 828 l 61 994 l 200 994 l 200 828 l 168 642 l 92 642 z "},"(":{"ha":462,"x_min":85,"x_max":412,"o":"m 325 -292 q 155 7 225 -163 q 85 359 85 178 q 136 669 85 524 q 325 1011 197 842 l 412 1011 q 304 810 334 876 q 237 606 265 724 q 210 359 210 489 q 412 -292 210 31 l 325 -292 z "},")":{"ha":462,"x_min":85,"x_max":412,"o":"m 172 -292 l 85 -292 q 288 359 288 35 q 258 612 288 485 q 193 808 235 721 q 140 916 168 863 l 85 1011 l 172 1011 q 282 842 235 928 q 359 669 329 755 q 412 359 412 519 q 343 7 412 176 q 172 -292 273 -162 z "},"*":{"ha":540,"x_min":43,"x_max":492,"o":"m 43 811 l 75 908 q 232 842 183 871 l 218 1011 l 317 1011 q 312 932 317 974 q 300 843 307 890 q 370 875 329 859 q 461 908 412 892 l 492 811 q 322 774 407 785 q 439 646 363 741 l 358 587 q 265 733 317 644 q 176 587 216 642 l 97 646 q 210 774 176 745 q 43 811 122 790 z "},"+":{"ha":811,"x_min":78,"x_max":733,"o":"m 347 161 l 347 433 l 78 433 l 78 547 l 347 547 l 347 818 l 463 818 l 463 547 l 733 547 l 733 433 l 463 433 l 463 161 l 347 161 z "},",":{"ha":386,"x_min":115,"x_max":262,"o":"m 123 0 l 123 139 l 262 139 l 262 0 q 235 -123 262 -77 q 149 -197 210 -169 l 115 -144 q 173 -92 153 -129 q 193 0 193 -56 l 123 0 z "},"-":{"ha":462,"x_min":45,"x_max":419,"o":"m 45 298 l 45 421 l 419 421 l 419 298 l 45 298 z "},".":{"ha":386,"x_min":126,"x_max":265,"o":"m 126 0 l 126 139 l 265 139 l 265 0 l 126 0 z "},"/":{"ha":386,"x_min":0,"x_max":386,"o":"m 0 -16 l 289 1011 l 386 1011 l 98 -16 l 0 -16 z "},":":{"ha":390,"x_min":119,"x_max":271,"o":"m 196 665 q 248 642 225 665 q 271 589 271 621 q 249 534 271 558 q 196 514 225 514 q 142 534 167 514 q 119 589 119 557 q 141 642 119 619 q 196 665 163 665 m 196 127 q 249 106 222 127 q 271 52 271 79 q 248 0 271 24 q 196 -24 227 -24 q 142 -3 165 -24 q 119 52 119 20 q 142 106 119 83 q 196 127 164 127 z "},";":{"ha":390,"x_min":96,"x_max":285,"o":"m 196 665 q 248 642 224 665 q 272 589 272 621 q 250 534 272 558 q 196 514 227 514 q 142 534 167 514 q 119 589 119 557 q 143 643 119 621 q 196 665 167 665 m 117 7 l 96 32 q 176 144 138 79 q 256 89 222 132 q 277 49 268 71 q 285 3 285 26 q 151 -245 285 -121 q 143 -252 147 -248 l 114 -216 q 197 -55 197 -130 q 179 -7 197 -26 q 142 11 165 11 l 117 7 z "},"<":{"ha":926,"x_min":94,"x_max":832,"o":"m 94 490 l 832 800 l 832 703 l 214 450 l 832 196 l 832 100 l 94 410 l 94 490 z "},"=":{"ha":926,"x_min":94,"x_max":832,"o":"m 94 648 l 832 648 l 832 559 l 94 559 l 94 648 m 94 338 l 832 338 l 832 249 l 94 249 l 94 338 z "},">":{"ha":926,"x_min":94,"x_max":832,"o":"m 831 408 l 94 100 l 94 196 l 711 450 l 94 703 l 94 800 l 832 489 l 831 408 z "},"?":{"ha":534,"x_min":32,"x_max":490,"o":"m 81 741 l 32 741 l 45 815 l 54 901 q 150 956 109 939 q 261 975 211 975 q 425 913 359 975 q 490 762 490 851 q 477 684 490 724 q 446 614 464 644 l 364 498 q 294 378 319 436 q 262 228 278 332 l 207 228 q 227 366 207 307 q 251 434 233 395 q 300 533 268 473 q 359 668 343 614 l 368 700 l 371 734 q 332 838 371 798 q 236 876 297 876 q 145 846 183 876 q 81 741 107 817 m 237 127 q 290 104 267 127 q 314 52 314 83 q 292 0 314 22 q 237 -23 271 -23 q 186 -1 208 -23 q 163 52 163 21 q 183 106 163 81 q 237 127 210 127 z "},"@":{"ha":1274,"x_min":65,"x_max":1244,"o":"m 956 650 l 875 379 q 812 122 812 163 q 825 86 812 103 q 864 69 838 74 q 981 118 913 69 q 1100 281 1048 167 q 1152 513 1152 395 q 1096 727 1152 627 q 937 878 1040 827 q 711 929 835 929 q 422 849 554 929 q 209 609 289 768 q 129 283 129 450 q 146 135 129 205 q 167 67 154 98 q 199 0 179 36 q 392 -193 265 -125 q 517 -240 449 -222 q 661 -258 586 -258 q 980 -163 836 -258 q 1206 117 1124 -68 l 1244 117 q 1024 -183 1186 -66 q 657 -300 863 -300 q 235 -127 406 -300 q 65 301 65 45 q 149 635 65 481 q 385 877 232 790 q 707 964 538 964 q 842 950 781 964 q 901 933 872 945 q 960 905 930 922 q 1132 738 1072 851 q 1192 500 1192 625 q 1137 255 1192 376 q 997 77 1083 134 q 818 21 911 21 q 741 45 768 21 q 714 115 714 71 q 715 157 714 143 q 725 214 717 171 q 574 62 636 104 q 460 21 511 21 q 374 64 412 21 q 336 179 336 106 q 399 396 336 273 q 570 597 461 518 q 710 654 647 654 q 782 633 751 654 q 827 559 812 611 l 848 635 l 956 650 m 717 623 q 614 570 671 623 q 484 355 542 496 q 443 201 443 254 q 467 127 443 155 q 521 103 492 103 q 604 132 558 103 q 694 225 648 160 q 764 351 741 283 q 802 522 802 458 q 778 596 802 568 q 717 623 751 623 z "},"A":{"ha":926,"x_min":-1,"x_max":928,"o":"m -1 0 l 379 994 l 521 994 l 928 0 l 779 0 l 663 301 l 248 301 l 138 0 l -1 0 m 285 408 l 623 408 l 518 684 q 447 890 473 804 q 425 795 437 843 q 395 700 412 747 l 285 408 z "},"B":{"ha":926,"x_min":102,"x_max":852,"o":"m 102 0 l 102 994 l 475 994 q 655 964 585 994 q 765 870 726 935 q 804 741 804 806 q 770 621 804 676 q 665 529 737 566 q 804 438 755 501 q 852 289 852 375 q 822 158 852 218 q 751 66 796 98 q 641 16 707 33 q 481 0 575 0 l 102 0 m 233 576 l 449 576 q 574 587 541 576 q 650 639 624 603 q 675 724 675 675 q 652 809 675 771 q 586 861 629 847 q 432 876 542 876 l 233 876 l 233 576 m 233 117 l 481 117 q 526 117 501 117 q 571 122 550 118 q 647 149 616 131 q 697 205 677 168 q 717 289 717 241 q 688 384 717 343 q 606 442 659 425 q 463 460 554 460 l 233 460 l 233 117 z "},"C":{"ha":1002,"x_min":69,"x_max":949,"o":"m 817 349 l 949 315 q 800 69 907 154 q 536 -16 693 -16 q 275 49 375 -16 q 122 240 175 114 q 69 504 69 367 q 129 775 69 659 q 300 951 189 892 q 539 1011 410 1011 q 789 936 688 1011 q 930 722 892 860 l 802 692 q 703 849 768 799 q 536 899 636 899 q 344 844 421 899 q 235 696 267 789 q 204 505 204 603 q 241 284 204 379 q 355 142 278 189 q 525 96 433 96 q 713 159 636 96 q 817 349 790 222 z "},"D":{"ha":1002,"x_min":107,"x_max":929,"o":"m 107 0 l 107 994 l 450 994 q 627 981 559 994 q 772 908 713 960 q 890 738 850 844 q 929 503 929 631 q 903 302 929 389 q 837 159 876 215 q 745 66 798 102 q 627 18 699 36 q 465 0 555 0 l 107 0 m 239 117 l 452 117 q 602 134 545 117 q 694 187 660 153 q 768 312 742 235 q 793 504 793 390 q 742 744 793 660 q 618 857 692 828 q 447 876 562 876 l 239 876 l 239 117 z "},"E":{"ha":926,"x_min":110,"x_max":851,"o":"m 110 0 l 110 994 l 829 994 l 829 876 l 241 876 l 241 572 l 791 572 l 791 456 l 241 456 l 241 117 l 851 117 l 851 0 l 110 0 z "},"F":{"ha":848,"x_min":114,"x_max":785,"o":"m 114 0 l 114 994 l 785 994 l 785 876 l 245 876 l 245 570 l 713 570 l 713 452 l 245 452 l 245 0 l 114 0 z "},"G":{"ha":1080,"x_min":74,"x_max":993,"o":"m 572 390 l 572 507 l 993 507 l 993 139 q 795 23 897 62 q 582 -16 693 -16 q 441 -2 504 -16 q 315 46 379 12 q 135 227 196 109 q 74 492 74 346 q 135 765 74 640 q 310 951 196 890 q 572 1011 424 1011 q 766 977 681 1011 q 902 880 852 942 q 979 717 951 818 l 860 684 q 804 803 836 761 q 711 872 772 846 q 572 899 648 899 q 488 893 522 899 q 416 871 454 888 q 311 799 350 843 q 248 700 271 755 q 210 500 210 608 q 255 278 210 370 q 391 144 301 187 q 575 102 479 102 q 739 133 660 102 q 865 204 819 164 l 865 390 l 572 390 z "},"H":{"ha":1002,"x_min":111,"x_max":892,"o":"m 111 0 l 111 994 l 243 994 l 243 586 l 760 586 l 760 994 l 892 994 l 892 0 l 760 0 l 760 468 l 243 468 l 243 0 l 111 0 z "},"I":{"ha":386,"x_min":129,"x_max":261,"o":"m 129 0 l 129 994 l 261 994 l 261 0 l 129 0 z "},"J":{"ha":694,"x_min":40,"x_max":586,"o":"m 40 282 l 158 298 q 170 203 158 241 q 201 143 180 165 q 307 100 240 100 q 391 123 354 100 q 442 186 428 146 q 456 310 456 227 l 456 994 l 586 994 l 586 317 q 556 123 586 191 q 460 20 526 56 q 307 -16 393 -16 q 107 58 178 -16 q 56 150 72 96 q 40 282 40 204 z "},"K":{"ha":926,"x_min":102,"x_max":924,"o":"m 102 0 l 102 994 l 233 994 l 233 501 l 726 994 l 905 994 l 489 591 l 924 0 l 750 0 l 396 503 l 233 345 l 233 0 l 102 0 z "},"L":{"ha":772,"x_min":102,"x_max":724,"o":"m 102 0 l 102 994 l 233 994 l 233 117 l 724 117 l 724 0 l 102 0 z "},"M":{"ha":1156,"x_min":103,"x_max":1051,"o":"m 103 0 l 103 994 l 301 994 l 536 290 l 583 143 l 636 302 l 875 994 l 1051 994 l 1051 0 l 925 0 l 925 832 l 636 0 l 518 0 l 231 846 l 231 0 l 103 0 z "},"N":{"ha":1002,"x_min":106,"x_max":889,"o":"m 106 0 l 106 994 l 240 994 l 762 214 l 762 994 l 889 994 l 889 0 l 754 0 l 232 782 l 232 0 l 106 0 z "},"O":{"ha":1080,"x_min":66,"x_max":1018,"o":"m 66 485 q 200 871 66 730 q 543 1013 334 1013 q 791 947 681 1013 q 960 764 901 882 q 1018 496 1018 646 q 958 228 1018 347 q 783 45 897 109 q 669 -1 730 14 q 543 -16 608 -16 q 292 51 401 -16 q 124 236 182 118 q 66 485 66 354 m 203 482 q 300 199 203 302 q 542 96 397 96 q 786 200 690 96 q 882 496 882 304 q 841 708 882 616 q 721 849 800 799 q 545 899 642 899 q 355 851 406 899 q 253 755 304 803 q 203 482 203 707 z "},"P":{"ha":926,"x_min":107,"x_max":867,"o":"m 107 0 l 107 994 l 482 994 q 633 985 585 994 q 755 937 710 972 q 836 842 804 905 q 859 779 850 812 q 867 707 867 745 q 786 493 867 582 q 493 404 705 404 l 239 404 l 239 0 l 107 0 m 239 521 l 496 521 q 675 568 621 521 q 730 703 730 615 q 699 810 730 765 q 615 868 667 854 q 493 876 583 876 l 239 876 l 239 521 z "},"Q":{"ha":1080,"x_min":60,"x_max":1029,"o":"m 861 107 q 1029 14 951 43 l 990 -77 q 778 45 882 -37 q 533 -16 667 -16 q 288 49 397 -16 q 119 231 179 114 q 60 497 60 349 q 119 764 60 644 q 289 949 178 884 q 406 996 343 979 q 536 1013 468 1013 q 782 947 672 1013 q 951 762 892 882 q 1011 497 1011 642 q 974 278 1011 376 q 861 107 937 180 m 571 275 q 758 179 686 244 q 875 497 875 286 q 834 707 875 616 q 715 848 794 796 q 536 899 635 899 q 292 798 389 899 q 196 497 196 697 q 291 201 196 306 q 536 96 386 96 q 669 122 608 96 q 539 179 608 163 l 571 275 z "},"R":{"ha":1003,"x_min":109,"x_max":985,"o":"m 109 0 l 109 994 l 550 994 q 752 967 683 994 q 863 873 821 941 q 904 723 904 805 q 836 545 904 617 q 624 452 767 472 q 703 403 676 427 q 812 271 761 350 l 985 0 l 820 0 l 688 207 q 593 344 631 296 q 527 410 556 391 q 467 437 497 429 q 393 441 444 441 l 241 441 l 241 0 l 109 0 m 241 555 l 524 555 q 665 574 614 555 q 742 634 715 593 q 768 723 768 675 q 717 839 768 793 q 555 884 666 884 l 241 884 l 241 555 z "},"S":{"ha":926,"x_min":62,"x_max":854,"o":"m 62 319 l 186 330 q 227 209 195 257 q 327 131 260 160 q 481 102 395 102 q 614 123 558 102 q 699 184 671 146 q 719 224 711 201 q 726 269 726 245 q 699 352 726 317 q 610 410 672 387 q 433 458 576 424 q 317 491 367 475 q 241 521 268 507 q 135 612 170 558 q 100 737 100 671 q 144 878 100 811 q 269 977 187 943 q 450 1011 350 1011 q 553 1002 505 1011 q 644 975 600 994 q 776 869 729 942 q 823 714 823 798 l 697 704 q 629 846 689 796 q 456 896 570 896 q 283 852 338 896 q 228 746 228 807 q 264 659 228 694 q 463 587 301 624 q 685 524 625 551 q 812 422 770 485 q 844 355 833 390 q 854 281 854 321 q 810 132 854 201 q 680 23 765 62 q 486 -16 595 -16 q 259 23 350 -16 q 117 140 168 62 q 77 225 92 179 q 62 319 62 272 z "},"T":{"ha":848,"x_min":32,"x_max":821,"o":"m 359 0 l 359 876 l 32 876 l 32 994 l 821 994 l 821 876 l 492 876 l 492 0 l 359 0 z "},"U":{"ha":1002,"x_min":110,"x_max":892,"o":"m 760 994 l 892 994 l 892 419 q 857 182 892 268 q 735 39 823 96 q 503 -16 647 -16 q 275 31 363 -16 q 149 170 187 78 q 110 419 110 262 l 110 994 l 240 994 l 240 421 q 264 229 240 293 q 347 135 289 168 q 492 102 410 102 q 697 168 635 102 q 760 421 760 233 l 760 994 z "},"V":{"ha":926,"x_min":5,"x_max":916,"o":"m 392 0 l 5 994 l 149 994 l 407 272 q 428 208 408 269 q 460 110 458 115 q 483 189 469 147 q 513 272 496 229 l 782 994 l 916 994 l 526 0 l 392 0 z "},"W":{"ha":1311,"x_min":17,"x_max":1296,"o":"m 281 0 l 17 994 l 151 994 l 302 343 q 346 139 325 253 l 390 322 l 579 994 l 737 994 l 880 492 q 957 139 935 294 q 1007 355 977 233 l 1162 994 l 1296 994 l 1022 0 l 896 0 l 686 757 l 656 873 l 627 757 l 415 0 l 281 0 z "},"X":{"ha":926,"x_min":5,"x_max":918,"o":"m 5 0 l 390 518 l 52 994 l 208 994 l 389 739 q 468 616 446 659 q 547 730 498 667 l 747 994 l 890 994 l 542 525 l 918 0 l 754 0 l 504 354 l 461 421 l 414 347 l 164 0 l 5 0 z "},"Y":{"ha":926,"x_min":4,"x_max":916,"o":"m 387 0 l 387 421 l 4 994 l 164 994 l 359 694 q 461 526 411 614 l 510 608 q 570 701 530 643 l 762 994 l 916 994 l 519 421 l 519 0 l 387 0 z "},"Z":{"ha":848,"x_min":28,"x_max":814,"o":"m 28 0 l 28 122 l 538 758 l 591 823 q 640 876 618 854 l 86 876 l 86 994 l 798 994 l 798 876 l 239 187 l 179 117 l 814 117 l 814 0 l 28 0 z "},"[":{"ha":386,"x_min":94,"x_max":364,"o":"m 94 -276 l 94 994 l 364 994 l 364 893 l 216 893 l 216 -175 l 364 -175 l 364 -276 l 94 -276 z "},"\\":{"ha":386,"x_min":0,"x_max":386,"o":"m 289 -16 l 0 1011 l 98 1011 l 386 -16 l 289 -16 z "},"]":{"ha":386,"x_min":26,"x_max":296,"o":"m 296 -276 l 26 -276 l 26 -175 l 174 -175 l 174 893 l 26 893 l 26 994 l 296 994 l 296 -276 z "},"^":{"ha":651,"x_min":36,"x_max":615,"o":"m 163 468 l 36 468 l 277 1011 l 375 1011 l 615 468 l 492 468 l 325 872 l 163 468 z "},"_":{"ha":772,"x_min":-20,"x_max":787,"o":"m -20 -276 l -20 -187 l 787 -187 l 787 -276 l -20 -276 z "},"`":{"ha":462,"x_min":60,"x_max":315,"o":"m 315 810 l 216 810 l 60 1000 l 224 1000 l 315 810 z "},"a":{"ha":772,"x_min":50,"x_max":714,"o":"m 561 89 q 429 7 492 31 q 296 -16 367 -16 q 115 43 179 -16 q 50 191 50 102 q 75 286 50 241 q 136 356 98 330 q 225 397 172 382 l 334 415 q 551 457 481 432 l 551 489 q 518 595 551 562 q 378 636 468 636 q 253 606 294 636 q 191 498 211 575 l 71 515 q 125 637 87 591 q 231 709 158 684 q 396 736 302 736 q 546 715 488 736 q 630 660 602 693 q 668 578 659 627 q 674 522 673 551 q 675 464 675 492 l 675 301 q 681 93 675 125 q 693 42 686 61 q 714 0 700 24 l 586 0 q 561 89 567 37 m 551 361 q 351 315 485 336 q 245 290 278 306 q 198 251 215 278 q 180 193 180 224 q 217 112 180 144 q 325 79 254 79 q 450 110 396 79 q 532 195 505 140 q 551 317 551 237 l 551 361 z "},"b":{"ha":772,"x_min":90,"x_max":715,"o":"m 204 0 l 90 0 l 90 994 l 212 994 l 212 639 q 410 736 289 736 q 538 709 478 736 q 633 635 597 682 q 693 519 671 590 q 715 371 715 449 q 623 85 715 187 q 404 -16 530 -16 q 204 90 278 -16 l 204 0 m 203 366 q 237 178 203 235 q 395 85 296 85 q 532 155 473 85 q 590 361 590 224 q 534 568 590 501 q 400 636 478 636 q 261 567 319 636 q 203 366 203 497 z "},"c":{"ha":694,"x_min":54,"x_max":682,"o":"m 561 264 l 682 249 q 580 53 661 122 q 382 -16 498 -16 q 144 81 233 -16 q 54 357 54 178 q 92 562 54 475 q 209 693 131 650 q 382 736 288 736 q 574 676 498 736 q 669 509 648 616 l 551 490 q 491 600 534 562 q 387 636 447 636 q 237 570 296 636 q 179 361 179 503 q 235 152 179 218 q 380 85 292 85 q 500 129 453 85 q 561 264 549 172 z "},"d":{"ha":772,"x_min":47,"x_max":672,"o":"m 558 0 l 558 90 q 357 -16 492 -16 q 199 31 273 -16 q 87 165 126 79 q 47 359 47 252 q 83 556 47 469 q 191 689 119 643 q 351 736 262 736 q 468 708 421 736 q 550 637 517 684 l 550 994 l 672 994 l 672 0 l 558 0 m 174 359 q 231 152 174 220 q 370 85 288 85 q 505 151 449 85 q 561 349 561 216 q 503 566 561 494 q 364 636 446 636 q 228 570 282 636 q 174 359 174 503 z "},"e":{"ha":772,"x_min":52,"x_max":715,"o":"m 585 232 l 711 216 q 601 46 682 109 q 395 -16 519 -16 q 144 81 236 -16 q 52 354 52 179 q 145 635 52 534 q 387 736 239 736 q 624 639 533 736 q 715 361 715 542 l 714 329 l 176 329 q 194 226 176 271 q 244 147 211 182 q 395 85 306 85 q 510 120 463 85 q 585 232 557 155 m 183 429 l 586 429 q 541 566 578 519 q 389 636 482 636 q 244 578 304 636 q 183 429 183 519 z "},"f":{"ha":386,"x_min":12,"x_max":435,"o":"m 121 0 l 121 625 l 12 625 l 12 721 l 121 721 l 121 798 q 136 909 121 868 q 195 981 150 950 q 319 1011 240 1011 q 435 999 370 1011 l 415 893 q 380 897 400 896 q 345 899 361 899 q 265 875 289 899 q 241 786 241 851 l 241 721 l 382 721 l 382 625 l 241 625 l 241 0 l 121 0 z "},"g":{"ha":772,"x_min":45,"x_max":679,"o":"m 69 -60 l 187 -77 q 229 -157 196 -133 q 353 -191 277 -191 q 483 -158 437 -191 q 547 -62 528 -125 q 555 94 555 -24 q 355 0 476 0 q 126 107 207 0 q 45 364 45 214 q 82 553 45 467 q 190 688 119 640 q 357 736 260 736 q 567 633 485 736 l 567 721 l 679 721 l 679 97 q 646 -140 679 -71 q 538 -251 612 -210 q 354 -292 465 -292 q 237 -278 289 -292 q 146 -233 186 -264 q 69 -60 69 -179 m 171 374 q 227 166 171 231 q 368 102 282 102 q 508 165 450 102 q 566 370 566 228 q 506 568 566 501 q 366 636 447 636 q 228 570 285 636 q 171 374 171 504 z "},"h":{"ha":772,"x_min":92,"x_max":677,"o":"m 92 0 l 92 994 l 214 994 l 214 637 q 429 736 300 736 q 568 704 510 736 q 652 618 628 675 q 677 457 677 561 l 677 0 l 555 0 l 555 457 q 516 590 555 549 q 404 632 476 632 q 304 604 351 632 q 233 526 256 576 q 214 395 214 476 l 214 0 l 92 0 z "},"i":{"ha":308,"x_min":92,"x_max":214,"o":"m 92 854 l 92 994 l 214 994 l 214 854 l 92 854 m 92 0 l 92 721 l 214 721 l 214 0 l 92 0 z "},"j":{"ha":308,"x_min":-64,"x_max":212,"o":"m 90 852 l 90 994 l 212 994 l 212 852 l 90 852 m -64 -279 l -40 -175 q 17 -184 -7 -184 q 72 -161 53 -184 q 90 -36 90 -137 l 90 721 l 212 721 l 212 -39 q 178 -224 212 -172 q 32 -292 134 -292 q -19 -289 -3 -292 q -64 -279 -35 -287 z "},"k":{"ha":694,"x_min":92,"x_max":689,"o":"m 92 0 l 92 994 l 214 994 l 214 428 l 503 721 l 661 721 l 386 453 l 689 0 l 539 0 l 300 368 l 214 286 l 214 0 l 92 0 z "},"l":{"ha":308,"x_min":89,"x_max":211,"o":"m 89 0 l 89 994 l 211 994 l 211 0 l 89 0 z "},"m":{"ha":1156,"x_min":92,"x_max":1068,"o":"m 92 0 l 92 721 l 201 721 l 201 619 q 291 703 235 671 q 419 736 347 736 q 549 703 497 736 q 623 610 602 671 q 844 736 707 736 q 1010 675 951 736 q 1068 494 1068 615 l 1068 0 l 946 0 l 946 454 q 933 558 946 526 q 892 610 924 590 q 818 631 860 631 q 692 581 742 631 q 642 418 642 530 l 642 0 l 519 0 l 519 468 q 490 590 519 549 q 392 631 458 631 q 296 604 340 631 q 234 524 254 576 q 214 374 214 472 l 214 0 l 92 0 z "},"n":{"ha":772,"x_min":92,"x_max":676,"o":"m 92 0 l 92 721 l 201 721 l 201 618 q 431 736 282 736 q 550 713 498 736 q 632 652 607 689 q 669 561 660 614 q 675 503 675 533 q 676 443 676 472 l 676 0 l 554 0 l 554 437 q 540 549 554 513 q 490 608 526 586 q 406 631 454 631 q 271 582 328 631 q 214 393 214 533 l 214 0 l 92 0 z "},"o":{"ha":772,"x_min":46,"x_max":721,"o":"m 46 359 q 157 657 46 558 q 383 736 252 736 q 627 639 533 736 q 721 371 721 542 q 680 153 721 233 q 557 28 639 74 q 383 -16 476 -16 q 140 81 235 -16 q 46 359 46 178 m 172 359 q 232 153 172 221 q 383 85 292 85 q 534 153 475 85 q 581 240 566 189 q 596 364 596 292 q 534 567 596 497 q 383 636 473 636 q 233 567 293 636 q 172 359 172 498 z "},"p":{"ha":772,"x_min":92,"x_max":717,"o":"m 92 -276 l 92 721 l 203 721 l 203 627 q 291 708 241 681 q 411 736 340 736 q 574 689 503 736 q 681 554 644 642 q 717 366 717 467 q 678 166 717 253 q 562 31 639 79 q 403 -16 484 -16 q 293 9 340 -16 q 214 75 245 35 l 214 -276 l 92 -276 m 203 355 q 259 152 203 218 q 395 85 315 85 q 533 153 475 85 q 591 367 591 222 q 536 572 591 505 q 400 640 479 640 q 261 568 323 640 q 203 355 203 494 z "},"q":{"ha":772,"x_min":49,"x_max":672,"o":"m 550 -276 l 550 77 q 471 9 525 40 q 418 -10 443 -4 q 363 -16 393 -16 q 141 87 233 -16 q 49 367 49 191 q 87 561 49 473 q 194 692 125 648 q 353 736 264 736 q 562 624 485 736 l 562 721 l 672 721 l 672 -276 l 550 -276 m 174 363 q 232 153 174 227 q 372 85 290 85 q 506 150 450 85 q 562 351 562 215 q 503 568 562 496 q 364 640 443 640 q 229 572 285 640 q 174 363 174 504 z "},"r":{"ha":462,"x_min":90,"x_max":482,"o":"m 90 0 l 90 721 l 200 721 l 200 611 q 240 673 220 647 q 278 713 261 700 q 355 736 314 736 q 482 697 416 736 l 439 583 q 350 610 396 610 q 279 587 310 610 q 232 519 248 564 q 212 376 212 453 l 212 0 l 90 0 z "},"s":{"ha":694,"x_min":43,"x_max":640,"o":"m 43 215 l 164 233 q 220 122 175 161 q 350 85 268 85 q 476 119 436 85 q 515 199 515 154 q 479 264 515 240 q 354 306 453 282 q 170 362 220 339 q 89 432 119 386 q 62 529 62 478 q 85 617 62 578 q 144 686 107 657 q 222 722 170 704 q 273 732 245 728 q 328 736 301 736 q 475 712 412 736 q 572 646 538 689 q 614 534 602 604 l 494 518 q 447 606 486 572 q 338 636 406 636 q 217 608 253 636 q 180 543 180 581 q 184 522 180 533 q 196 500 189 511 q 243 468 211 481 l 350 436 q 530 379 473 404 q 611 317 582 358 q 640 211 640 275 q 606 96 640 151 q 503 12 570 43 q 430 -8 471 0 q 350 -16 390 -16 q 137 41 211 -16 q 43 215 64 98 z "},"t":{"ha":386,"x_min":25,"x_max":376,"o":"m 358 110 l 376 1 q 328 -7 349 -4 q 283 -9 307 -9 q 180 11 218 -9 q 129 66 143 32 q 114 211 114 102 l 114 625 l 25 625 l 25 721 l 114 721 l 114 899 l 235 972 l 235 721 l 358 721 l 358 625 l 235 625 l 235 204 q 241 138 235 154 q 264 113 249 122 q 304 104 279 104 l 328 104 q 358 110 347 109 z "},"u":{"ha":772,"x_min":89,"x_max":672,"o":"m 564 0 l 564 106 q 335 -16 479 -16 q 216 9 273 -16 q 134 69 158 35 q 112 109 121 86 q 96 160 103 132 q 89 273 89 199 l 89 721 l 211 721 l 211 321 q 218 192 211 220 q 267 115 231 143 q 359 89 307 89 q 463 117 416 89 q 530 193 510 146 q 550 335 550 240 l 550 721 l 672 721 l 672 0 l 564 0 z "},"v":{"ha":694,"x_min":18,"x_max":677,"o":"m 292 0 l 18 721 l 146 721 l 301 289 q 329 201 309 269 q 347 144 342 163 l 393 281 l 553 721 l 677 721 l 406 0 l 292 0 z "},"w":{"ha":1002,"x_min":4,"x_max":991,"o":"m 225 0 l 4 721 l 131 721 l 244 304 l 288 150 l 325 298 l 439 721 l 566 721 l 672 302 l 708 165 l 750 304 l 873 721 l 991 721 l 766 0 l 640 0 l 525 432 l 497 554 l 351 0 l 225 0 z "},"x":{"ha":694,"x_min":9,"x_max":685,"o":"m 9 0 l 273 375 l 29 721 l 182 721 l 293 551 l 343 471 l 399 550 l 519 721 l 665 721 l 416 380 l 685 0 l 534 0 l 386 224 l 347 285 l 158 0 l 9 0 z "},"y":{"ha":694,"x_min":22,"x_max":682,"o":"m 86 -277 l 72 -162 q 143 -174 114 -174 q 207 -159 184 -174 q 248 -122 231 -149 q 285 -31 257 -108 l 296 -1 l 22 721 l 154 721 l 304 302 q 331 222 317 268 q 355 136 345 178 q 406 300 376 216 l 559 721 l 682 721 l 408 -12 q 340 -175 363 -133 q 266 -263 307 -235 q 165 -292 225 -292 q 86 -277 127 -292 z "},"z":{"ha":694,"x_min":28,"x_max":665,"o":"m 28 0 l 28 98 l 486 625 l 347 621 l 54 621 l 54 721 l 643 721 l 643 639 l 253 182 l 178 98 q 237 100 215 98 q 332 106 328 106 l 665 106 l 665 0 l 28 0 z "},"{":{"ha":464,"x_min":39,"x_max":432,"o":"m 39 415 q 122 443 89 415 q 168 517 155 471 q 176 594 172 545 q 179 676 179 643 q 184 837 179 789 q 206 918 191 885 q 245 971 222 951 q 310 1004 268 990 q 393 1011 338 1011 l 432 1011 l 432 904 l 410 904 q 315 878 338 904 q 293 765 293 852 l 293 724 l 293 690 l 293 664 l 293 642 l 293 624 q 286 542 293 561 q 243 430 273 469 q 151 359 214 390 q 260 265 227 329 q 293 54 293 201 l 296 -102 q 323 -168 301 -149 q 410 -186 349 -186 l 432 -186 l 432 -292 l 393 -292 q 297 -281 326 -292 q 227 -232 254 -265 q 187 -142 199 -198 q 179 33 179 -89 q 168 200 179 151 q 123 277 157 249 q 39 304 86 304 l 39 415 z "},"|":{"ha":361,"x_min":127,"x_max":233,"o":"m 127 -292 l 127 1011 l 233 1011 l 233 -292 l 127 -292 z "},"}":{"ha":464,"x_min":32,"x_max":425,"o":"m 425 415 l 425 304 q 340 277 374 304 q 296 201 306 249 q 285 43 285 154 l 285 17 l 285 -5 l 285 -23 q 281 -106 285 -81 q 258 -195 275 -161 q 216 -252 240 -230 q 154 -284 195 -271 q 123 -290 139 -288 q 69 -292 107 -292 l 32 -292 l 32 -186 l 53 -186 q 146 -159 123 -186 q 170 -45 170 -136 q 171 86 170 37 q 175 170 172 135 q 220 289 184 244 q 311 359 252 334 q 203 457 236 395 q 170 665 170 519 l 170 749 q 166 834 170 802 q 141 886 163 867 q 53 904 119 904 l 32 904 l 32 1011 l 69 1011 q 175 998 139 1011 q 239 949 211 985 q 275 861 267 914 q 282 791 279 835 q 285 686 285 747 q 296 515 285 559 q 339 443 306 472 q 378 423 355 431 q 425 415 400 415 z "},"~":{"ha":811,"x_min":58,"x_max":753,"o":"m 58 378 l 58 517 q 248 599 132 599 q 334 586 288 599 q 461 539 371 578 l 530 514 q 560 508 553 509 q 578 507 568 507 q 668 533 618 507 q 753 600 714 559 l 753 457 q 667 397 710 416 q 566 379 624 379 q 487 388 522 379 q 372 433 452 397 q 236 469 292 469 q 155 452 192 469 q 58 378 118 433 z "},"©":{"ha":1055,"x_min":47,"x_max":1010,"o":"m 528 940 q 766 878 653 940 q 944 701 879 817 q 1010 460 1010 585 q 947 222 1010 338 q 768 43 884 107 q 652 -4 713 12 q 528 -20 591 -20 q 290 43 406 -20 q 111 220 175 107 q 47 460 47 332 q 111 701 47 586 q 291 878 175 817 q 528 940 407 940 m 528 899 q 311 843 412 899 q 149 681 208 787 q 104 573 119 628 q 89 460 89 518 q 146 241 89 346 q 308 79 204 138 q 528 21 412 21 q 746 77 646 21 q 906 240 846 134 q 966 460 966 347 q 907 680 966 572 q 745 842 848 786 q 528 899 640 899 m 765 770 l 779 579 l 753 579 q 673 699 728 657 q 547 739 618 739 q 448 718 490 739 q 376 654 406 696 q 343 578 359 629 q 334 527 338 555 q 329 475 329 498 q 392 264 329 334 q 554 196 454 196 q 765 306 685 196 l 790 292 q 530 154 694 154 q 308 241 399 154 q 216 456 216 329 q 312 677 216 585 q 554 770 407 770 l 607 765 l 681 745 l 705 739 q 724 745 717 739 q 739 770 730 751 l 765 770 z "},"ँ":{"ha":0,"x_min":-557,"x_max":41,"o":"m -258 882 q -414 944 -334 882 q -557 1114 -494 1006 l -515 1131 q -408 1028 -477 1066 q -258 989 -339 989 q -107 1028 -176 989 q 0 1131 -39 1066 l 41 1114 q -102 944 -22 1006 q -258 882 -181 882 m -258 1065 l -332 1147 l -258 1230 l -183 1147 l -258 1065 z "},"ं":{"ha":0,"x_min":-231,"x_max":-85,"o":"m -158 1038 l -231 1111 l -158 1191 l -85 1111 l -158 1038 z "},"ः":{"ha":315,"x_min":88,"x_max":235,"o":"m 159 124 l 88 197 l 159 277 l 233 197 l 159 124 m 161 389 l 88 461 l 161 541 l 235 461 l 161 389 z "},"अ":{"ha":966,"x_min":25,"x_max":1033,"o":"m 391 117 q 201 195 300 117 q 25 408 103 274 l 75 442 q 209 283 133 342 q 358 225 285 225 q 458 267 416 225 q 500 367 500 309 q 479 423 500 397 q 425 467 460 450 q 359 439 395 450 q 283 425 323 429 l 241 509 q 396 564 334 517 q 458 675 458 612 q 429 734 458 710 q 358 758 399 758 q 252 746 303 758 q 158 709 201 733 l 83 800 q 175 838 127 825 q 275 850 223 850 q 446 774 351 850 q 541 633 541 697 q 528 568 541 599 q 491 517 515 536 q 578 461 534 480 q 658 442 621 442 q 730 457 692 442 q 808 500 768 471 l 808 750 l 625 749 l 566 827 l 975 827 l 1033 749 l 899 750 l 899 0 l 808 50 l 808 375 q 762 345 788 355 q 708 334 736 334 q 638 346 673 334 q 575 383 604 359 q 591 317 591 322 q 533 175 591 234 q 391 117 475 117 z "},"आ":{"ha":1180,"x_min":26,"x_max":1244,"o":"m 1019 749 l 901 749 l 901 0 l 809 50 l 809 375 q 763 345 789 355 q 709 334 736 334 q 639 346 673 334 q 576 383 604 359 q 592 317 592 322 q 534 175 592 233 q 392 117 475 117 q 202 195 300 117 q 26 408 104 274 l 76 442 q 210 283 134 342 q 359 225 286 225 q 459 267 417 225 q 500 367 500 309 q 480 423 500 395 q 426 467 460 450 q 360 439 395 450 q 283 425 312 425 l 242 509 q 397 564 323 509 q 459 675 459 612 q 429 734 459 710 q 359 758 400 758 q 253 746 304 758 q 159 709 202 733 l 84 800 q 176 838 127 825 q 275 850 224 850 q 447 774 352 850 q 542 633 542 697 q 529 568 542 599 q 492 517 515 536 q 579 461 535 480 q 659 442 622 442 q 730 457 690 442 q 809 500 769 471 l 809 750 l 625 750 l 567 827 l 975 827 l 1185 827 l 1244 749 l 1111 749 l 1111 0 l 1019 50 l 1019 749 z "},"इ":{"ha":534,"x_min":-62,"x_max":599,"o":"m 422 -147 l 270 71 q 144 103 196 71 q 93 183 93 136 q 113 229 93 212 q 165 248 135 248 q 222 223 194 248 q 270 159 251 199 q 378 199 332 159 q 422 296 422 239 q 411 335 422 319 q 382 352 399 352 q 330 340 365 352 q 278 328 296 328 q 151 403 218 328 q 85 545 85 477 q 117 619 85 589 q 197 650 151 650 l 374 650 l 374 749 l -3 749 l -62 827 l 541 827 l 599 749 l 466 749 l 466 553 l 245 553 q 189 536 212 553 q 165 497 165 519 q 189 446 165 467 q 245 425 212 425 q 294 433 262 425 q 342 441 326 441 q 448 380 393 441 q 503 264 503 319 q 454 144 503 187 q 355 83 372 73 l 487 -97 l 422 -147 z "},"ई":{"ha":547,"x_min":-58,"x_max":603,"o":"m 381 827 q 319 916 335 871 q 298 1001 298 976 q 331 1074 298 1044 q 448 1105 366 1105 q 515 1066 470 1104 q 568 979 546 1040 l 505 968 q 467 1015 487 998 q 429 1036 443 1036 q 391 1013 406 1036 l 391 960 q 418 899 391 932 q 476 827 476 829 l 545 827 l 603 749 l 470 749 l 470 553 l 250 553 q 193 536 216 553 q 169 497 169 519 q 193 446 169 467 q 250 425 216 425 q 298 433 266 425 q 347 441 330 441 q 452 380 397 441 q 507 264 507 319 q 458 144 507 187 q 359 83 376 73 l 491 -97 l 427 -147 l 274 71 q 149 103 200 71 q 97 183 97 136 q 117 229 97 212 q 169 248 139 248 q 227 223 198 248 q 274 159 255 199 q 382 199 336 159 q 427 296 427 239 q 415 335 427 319 q 387 352 403 352 q 334 340 369 352 q 282 328 300 328 q 155 403 222 328 q 89 545 89 477 q 121 619 89 589 q 201 650 155 650 l 378 650 l 378 749 l 1 749 l -58 827 l 381 827 z "},"उ":{"ha":661,"x_min":-71,"x_max":722,"o":"m 399 46 q 203 128 296 46 q 58 317 109 210 l 119 367 q 237 209 154 265 q 391 138 340 138 q 473 174 439 138 q 508 262 508 211 q 473 355 508 313 q 380 420 438 399 q 275 404 318 404 l 225 490 l 309 495 q 420 539 373 495 q 466 644 466 583 q 449 699 466 676 q 399 749 434 719 l 4 749 l -71 827 l 663 827 l 722 749 l 491 749 q 547 658 529 698 q 566 578 566 614 q 536 509 566 545 q 458 445 508 473 q 572 363 529 418 q 616 245 616 309 q 553 104 616 163 q 399 46 490 46 z "},"ऊ":{"ha":888,"x_min":-79,"x_max":957,"o":"m 510 486 l 592 515 q 681 538 641 538 q 830 456 787 538 q 863 314 863 390 q 781 98 863 243 l 681 148 q 755 277 729 218 q 781 380 781 336 q 761 428 781 409 q 714 447 742 447 q 651 437 695 447 q 559 390 549 416 l 564 363 q 608 245 608 309 q 545 104 608 163 q 391 46 481 46 q 195 128 288 46 q 50 317 101 210 l 111 367 q 229 209 146 265 q 383 138 332 138 q 465 174 431 138 q 500 262 500 211 q 465 355 500 313 q 372 420 430 399 q 267 404 310 404 l 217 490 l 300 495 q 412 539 365 495 q 458 644 458 583 q 441 699 458 676 q 391 749 426 719 l -4 749 l -79 827 l 899 827 l 957 749 l 483 749 q 538 658 521 698 q 557 578 557 616 q 537 521 558 553 q 510 486 526 505 z "},"ऋ":{"ha":1015,"x_min":-58,"x_max":1076,"o":"m -58 827 l 1017 827 l 1076 749 l 570 749 l 570 498 q 617 486 588 490 q 661 481 637 481 q 702 488 681 481 q 744 507 722 495 q 732 540 736 518 q 727 590 727 562 q 743 619 727 606 q 777 631 758 631 q 848 590 812 631 q 885 507 885 548 q 869 464 885 482 q 827 440 852 446 q 950 285 907 361 q 993 149 993 210 q 957 62 993 98 q 869 25 920 25 q 777 60 824 25 q 694 158 729 96 l 736 183 q 791 121 762 143 q 844 100 821 100 q 891 124 872 100 q 910 183 910 148 q 785 432 910 254 q 749 420 767 424 q 711 415 730 415 q 570 432 606 415 l 570 0 l 478 50 l 478 340 l 146 141 l 96 224 l 478 432 q 382 481 431 465 q 287 498 334 498 q 185 484 234 498 q 96 440 136 469 l 38 548 q 245 590 153 590 q 355 562 296 590 q 478 481 415 533 l 478 749 l 0 749 l -58 827 z "},"ऌ":{"ha":867,"x_min":-58,"x_max":925,"o":"m 606 122 q 722 273 638 161 q 764 387 764 328 q 742 458 764 429 q 688 487 720 487 q 544 416 606 487 q 473 238 483 345 l 381 279 q 422 404 403 363 q 358 465 396 444 q 281 487 320 487 q 193 446 230 487 q 157 346 157 404 q 230 182 157 269 q 431 22 303 95 l 398 -28 q 149 172 240 63 q 57 379 57 281 q 118 520 57 463 q 265 578 178 578 q 374 547 323 578 q 456 463 425 515 q 535 542 491 513 q 622 570 579 570 l 622 749 l 0 749 l -58 827 l 867 827 l 925 749 l 713 749 l 713 562 q 799 485 777 545 q 838 346 838 424 q 795 204 838 278 q 672 64 752 130 l 674 56 q 616 -15 674 54 q 589 -76 589 -48 l 589 -130 q 627 -152 604 -152 q 665 -132 641 -152 q 703 -84 685 -115 l 766 -96 q 713 -182 744 -157 q 646 -221 668 -220 q 559 -208 593 -222 l 538 -197 l 529 -190 q 496 -117 509 -172 q 507 0 477 -34 l 606 122 z "},"ऍ":{"ha":616,"x_min":-58,"x_max":718,"o":"m 317 903 q 186 952 249 903 q 84 1085 122 1002 l 170 1110 q 257 1025 197 1078 q 320 1002 281 1001 q 391 1025 358 1002 q 467 1110 435 1057 l 549 1060 q 453 945 516 989 q 317 903 390 903 m 667 -189 l 576 -123 q 601 -73 601 -88 q 568 -22 601 -71 q 519 27 551 5 l 220 184 q 129 270 150 239 q 111 342 111 299 l 111 749 l 0 749 l -58 827 l 616 827 l 674 749 l 543 749 l 543 392 q 519 322 543 349 q 449 290 493 290 l 399 290 l 335 368 l 401 368 q 436 387 421 368 q 452 434 452 406 l 452 749 l 202 749 l 202 384 q 238 285 202 334 q 335 201 271 239 l 585 52 q 682 -24 650 13 q 718 -98 717 -64 q 704 -142 718 -118 q 667 -189 690 -166 z "},"ऎ":{"ha":616,"x_min":-58,"x_max":718,"o":"m 543 827 l 616 827 l 674 749 l 543 749 l 543 392 q 519 322 543 349 q 449 290 493 290 l 399 290 l 335 368 l 401 368 q 436 387 421 368 q 452 434 452 406 l 452 749 l 202 749 l 202 384 q 238 285 202 334 q 335 201 271 239 l 585 52 q 682 -24 650 13 q 718 -98 717 -64 q 704 -142 718 -118 q 667 -189 690 -166 l 576 -123 q 601 -73 601 -88 q 568 -22 601 -71 q 519 27 551 5 l 220 184 q 129 270 150 239 q 111 342 111 299 l 111 749 l 0 749 l -58 827 l 451 827 l 129 939 q 23 1002 67 960 q -33 1093 -20 1044 q -37 1128 -38 1111 q -36 1137 -37 1133 q -22 1182 -33 1158 l 101 1138 q 92 1103 93 1124 q 93 1074 91 1089 q 96 1059 94 1067 q 128 1008 104 1032 q 189 972 151 986 l 429 882 l 480 860 l 543 827 z "},"ए":{"ha":616,"x_min":-58,"x_max":718,"o":"m 667 -189 l 576 -123 q 601 -73 601 -88 q 568 -22 601 -71 q 519 27 551 5 l 220 184 q 129 270 150 239 q 111 342 111 299 l 111 749 l 0 749 l -58 827 l 616 827 l 674 749 l 543 749 l 543 392 q 519 322 543 349 q 449 290 493 290 l 399 290 l 335 368 l 401 368 q 436 387 421 368 q 452 434 452 406 l 452 749 l 202 749 l 202 384 q 238 285 202 334 q 335 201 271 239 l 585 52 q 682 -24 650 13 q 718 -98 717 -64 q 704 -142 718 -118 q 667 -189 690 -166 z "},"ऐ":{"ha":616,"x_min":-58,"x_max":718,"o":"m 543 827 l 616 827 l 674 749 l 543 749 l 543 392 q 519 322 543 349 q 449 290 493 290 l 399 290 l 335 368 l 401 368 q 436 387 421 368 q 452 434 452 406 l 452 749 l 202 749 l 202 384 q 238 285 202 334 q 335 201 271 239 l 585 52 q 682 -24 650 13 q 718 -98 717 -64 q 704 -142 718 -118 q 667 -189 690 -166 l 576 -123 q 601 -73 601 -88 q 568 -22 601 -71 q 519 27 551 5 l 220 184 q 129 270 150 239 q 111 342 111 299 l 111 749 l 0 749 l -58 827 l 451 827 l 285 1060 q 234 1109 262 1093 q 177 1126 205 1126 q 134 1120 153 1126 q 102 1101 114 1113 l 27 1210 q 68 1234 47 1226 q 111 1242 89 1242 q 212 1212 162 1242 q 323 1126 302 1158 l 500 865 l 543 827 z "},"ऑ":{"ha":1180,"x_min":26,"x_max":1244,"o":"m 922 901 q 791 951 854 901 q 689 1084 728 1001 l 776 1109 q 862 1023 802 1077 q 925 1001 886 1000 q 996 1024 964 1001 q 1072 1109 1040 1056 l 1154 1059 q 1058 944 1121 987 q 922 901 995 901 m 1019 749 l 901 749 l 901 0 l 809 50 l 809 375 q 763 345 789 355 q 709 334 736 334 q 639 346 673 334 q 576 383 604 359 q 592 317 592 322 q 534 175 592 233 q 392 117 475 117 q 202 195 300 117 q 26 408 104 274 l 76 442 q 210 283 134 342 q 359 225 286 225 q 459 267 417 225 q 500 367 500 309 q 480 423 500 395 q 426 467 460 450 q 360 439 395 450 q 283 425 323 429 l 242 509 q 397 564 334 517 q 459 675 459 612 q 429 734 459 710 q 359 758 400 758 q 253 746 304 758 q 159 709 202 733 l 84 800 q 176 838 127 825 q 275 850 224 850 q 447 774 352 850 q 542 633 542 697 q 529 568 542 599 q 492 517 515 536 q 579 461 535 480 q 659 442 622 442 q 730 457 690 442 q 809 500 769 471 l 809 750 l 625 749 l 567 827 l 975 827 l 1185 827 l 1244 749 l 1111 749 l 1111 0 l 1019 50 l 1019 749 z "},"ऒ":{"ha":1180,"x_min":26,"x_max":1244,"o":"m 1111 827 l 1185 827 l 1244 749 l 1111 749 l 1111 0 l 1019 50 l 1019 749 l 901 749 l 901 0 l 809 50 l 809 375 q 763 345 789 355 q 709 334 736 334 q 639 346 673 334 q 576 383 604 359 q 592 317 592 322 q 534 175 592 233 q 392 117 475 117 q 202 195 300 117 q 26 408 104 274 l 76 442 q 210 283 134 342 q 359 225 286 225 q 459 267 417 225 q 500 367 500 309 q 480 423 500 395 q 426 467 460 450 q 360 439 395 450 q 283 425 323 429 l 242 509 q 397 564 334 517 q 459 675 459 612 q 429 734 459 710 q 359 758 400 758 q 253 746 304 758 q 159 709 202 733 l 84 800 q 176 838 127 825 q 275 850 224 850 q 447 774 352 850 q 542 633 542 697 q 529 568 542 599 q 492 517 515 536 q 579 461 535 480 q 659 442 622 442 q 730 457 690 442 q 809 500 769 471 l 809 750 l 625 749 l 567 827 l 975 827 l 1019 827 l 697 939 q 591 1002 635 960 q 535 1093 549 1044 q 532 1128 530 1111 q 532 1137 532 1133 q 546 1182 535 1158 l 669 1138 q 660 1103 661 1124 q 661 1074 659 1089 q 665 1059 663 1067 q 696 1008 672 1032 q 757 972 720 986 l 997 882 l 1048 860 l 1111 827 z "},"ओ":{"ha":1186,"x_min":26,"x_max":1244,"o":"m 1016 827 l 853 1060 q 802 1109 831 1092 q 749 1127 769 1129 q 745 1126 747 1127 q 702 1120 715 1120 q 670 1101 671 1120 l 595 1210 q 636 1234 616 1230 q 679 1242 675 1242 q 781 1212 730 1242 q 891 1126 870 1158 l 1068 865 l 1111 827 l 1185 827 l 1244 749 l 1111 749 l 1111 0 l 1019 50 l 1019 749 l 901 749 l 901 0 l 809 50 l 809 375 q 763 345 789 355 q 709 334 736 334 q 639 346 673 334 q 576 383 604 359 q 592 317 592 322 q 534 175 592 233 q 392 117 475 117 q 202 195 300 117 q 26 408 104 274 l 76 442 q 210 283 134 342 q 359 225 286 225 q 459 267 417 225 q 500 367 500 309 q 480 423 500 395 q 426 467 460 450 q 360 439 395 450 q 283 425 323 429 l 242 509 q 397 564 334 517 q 459 675 459 612 q 429 734 459 710 q 359 758 400 758 q 253 746 304 758 q 159 709 202 733 l 84 800 q 176 838 127 825 q 275 850 224 850 q 447 774 352 850 q 542 633 542 697 q 529 568 542 599 q 492 517 515 536 q 579 461 535 480 q 659 442 622 442 q 730 457 690 442 q 809 500 769 471 l 809 750 l 625 749 l 567 827 l 1016 827 z "},"औ":{"ha":1186,"x_min":26,"x_max":1244,"o":"m 1124 827 l 1185 827 l 1244 749 l 1111 749 l 1111 0 l 1019 50 l 1019 749 l 901 749 l 901 0 l 809 50 l 809 375 q 763 345 789 355 q 709 334 736 334 q 639 346 673 334 q 576 383 604 359 q 592 317 592 322 q 534 175 592 233 q 392 117 475 117 q 202 195 300 117 q 26 408 104 274 l 76 442 q 210 283 134 342 q 359 225 286 225 q 459 267 417 225 q 500 367 500 309 q 480 423 500 395 q 426 467 460 450 q 360 439 395 450 q 283 425 323 429 l 242 509 q 397 564 334 517 q 459 675 459 612 q 429 734 459 710 q 359 758 400 758 q 253 746 304 758 q 159 709 202 733 l 84 800 q 176 838 127 825 q 275 850 224 850 q 447 774 352 850 q 542 633 542 697 q 529 568 542 599 q 492 517 515 536 q 579 461 535 480 q 659 442 622 442 q 730 457 690 442 q 809 500 769 471 l 809 750 l 625 749 l 567 827 l 1019 827 l 830 945 l 714 1024 q 653 1059 672 1053 q 593 1061 620 1067 q 553 1043 568 1054 q 527 1017 526 1023 l 427 1102 q 460 1137 441 1127 q 498 1156 496 1155 q 568 1160 532 1164 q 605 1152 586 1158 q 734 1098 694 1126 l 898 983 l 1015 883 l 905 1124 q 864 1181 890 1158 q 811 1208 839 1203 q 777 1210 792 1211 q 767 1208 772 1210 q 733 1196 734 1202 l 678 1316 q 722 1333 702 1333 l 766 1334 q 861 1286 817 1325 q 955 1182 942 1215 l 1013 1037 l 1062 895 l 1124 827 z "},"क":{"ha":916,"x_min":-58,"x_max":975,"o":"m 41 429 q 94 558 41 505 q 223 612 147 612 q 345 576 285 612 q 448 479 404 542 l 448 749 l 0 749 l -58 827 l 916 827 l 975 749 l 539 749 l 539 479 q 625 522 556 494 q 697 536 664 536 q 820 466 768 536 q 871 296 871 395 q 850 177 871 234 q 788 71 828 119 l 713 155 q 787 262 762 212 q 813 346 813 311 q 784 422 813 391 q 713 454 755 454 q 539 351 662 454 l 539 -3 l 448 46 l 448 304 q 359 237 404 261 q 273 213 313 213 q 109 260 153 213 q 41 429 41 333 m 226 286 q 328 320 269 286 q 450 418 387 355 q 355 479 402 458 q 268 501 307 501 q 156 469 203 501 q 110 393 110 438 q 144 317 110 349 q 226 286 178 286 z "},"ख":{"ha":966,"x_min":-58,"x_max":1023,"o":"m 532 16 q 378 60 461 16 q 217 183 296 103 q 94 332 137 262 q 50 449 50 400 q 66 472 50 462 q 100 481 81 481 q 129 471 99 481 q 167 457 144 465 q 179 485 175 464 q 183 540 183 507 l 183 659 q 185 692 187 677 q 182 708 184 701 q 146 749 171 737 l 0 749 l -58 827 l 964 827 l 1023 749 l 863 749 l 863 0 l 798 50 l 798 125 q 655 44 724 71 q 532 16 587 16 m 499 100 q 673 130 595 100 q 798 216 751 161 l 798 316 q 724 260 762 279 q 648 241 685 241 q 473 307 546 241 q 399 465 399 372 q 458 583 399 533 q 599 631 516 631 q 699 601 647 631 q 798 515 751 570 l 798 747 l 225 749 q 263 719 250 742 q 275 667 273 702 l 275 498 q 254 389 275 431 q 200 313 227 339 q 337 157 256 214 q 499 100 418 100 m 582 316 q 699 349 642 316 q 798 440 757 382 l 798 469 q 709 528 751 507 q 632 548 667 548 q 521 514 567 548 q 474 432 474 480 q 506 350 474 384 q 582 316 537 316 z "},"ग":{"ha":667,"x_min":-58,"x_max":719,"o":"m 220 282 q 113 336 172 282 q 54 432 54 389 q 71 461 54 448 q 113 473 89 473 l 170 473 l 170 749 l 0 749 l -58 827 l 661 827 l 719 749 l 586 749 l 586 0 l 494 50 l 494 749 l 262 749 l 262 332 q 249 297 262 313 q 220 282 237 282 z "},"घ":{"ha":723,"x_min":-58,"x_max":781,"o":"m 92 432 q 114 492 92 464 q 175 540 136 522 q 102 605 128 566 q 74 677 71 649 q 75 681 75 679 q 81 716 80 704 q 133 749 83 732 l 0 749 l -58 827 l 723 827 l 781 749 l 648 749 l 648 0 l 557 50 l 557 316 q 469 241 517 267 q 374 216 420 216 q 175 279 258 216 q 92 432 92 342 m 308 282 q 443 329 376 282 q 557 457 510 376 l 557 747 l 224 747 q 176 713 195 736 q 158 665 158 691 q 180 612 158 642 q 241 557 201 583 q 299 565 273 565 q 334 562 319 565 q 357 557 349 560 l 391 457 q 355 469 376 465 q 308 473 334 473 q 214 444 253 473 q 175 374 175 416 q 214 309 175 336 q 308 282 253 282 z "},"ङ":{"ha":909,"x_min":-58,"x_max":970,"o":"m 475 0 q 261 89 377 0 q 35 333 144 176 l 77 366 q 261 171 165 241 q 442 100 357 100 q 564 142 513 100 q 613 241 613 183 q 587 292 613 271 q 525 313 562 313 q 442 298 497 313 q 359 283 387 283 q 227 361 292 283 q 160 515 160 439 q 199 598 160 564 q 293 632 238 632 l 509 632 l 509 749 l 0 749 l -58 827 l 912 827 l 970 749 l 600 749 l 600 532 l 342 532 q 272 508 301 532 q 243 449 243 484 q 272 401 243 421 q 342 382 301 382 q 421 395 369 382 q 500 408 474 408 q 620 336 557 408 q 683 200 683 264 q 623 58 683 117 q 475 0 562 1 m 741 374 l 650 466 l 741 566 l 833 466 l 741 374 z "},"च":{"ha":829,"x_min":-58,"x_max":887,"o":"m 198 382 q 211 436 198 410 q 248 481 224 462 l 90 481 l 31 573 l 555 573 l 613 481 l 380 481 q 320 429 342 460 q 297 366 297 397 q 326 289 297 321 q 397 258 355 258 q 524 295 458 258 q 646 399 590 332 l 646 749 l 0 749 l -58 827 l 829 827 l 887 749 l 738 749 l 738 0 l 646 50 l 646 274 q 542 206 593 229 q 447 183 490 183 q 284 252 370 183 q 198 382 198 321 z "},"छ":{"ha":864,"x_min":-58,"x_max":922,"o":"m 441 14 q 243 80 343 14 q 142 213 142 146 q 156 279 142 250 q 193 321 169 308 q 95 390 131 349 q 60 471 60 431 q 113 576 60 532 q 242 620 165 620 q 304 616 277 620 q 350 607 332 613 l 392 512 q 326 529 347 529 q 202 502 254 529 q 151 437 151 475 q 171 395 151 419 q 225 346 191 371 q 375 371 279 371 l 433 271 l 342 271 q 271 245 300 271 q 242 180 242 218 q 281 115 242 142 q 375 88 320 88 q 548 128 470 88 q 666 238 626 168 q 515 347 571 283 q 458 479 458 412 q 491 583 458 538 q 583 637 525 628 l 583 749 l 0 749 l -58 827 l 864 827 l 922 749 l 674 749 l 674 628 q 784 530 744 589 q 823 412 823 472 q 711 131 823 248 q 441 14 600 14 m 682 279 q 726 356 711 313 q 741 446 741 399 q 716 534 741 497 q 658 570 692 570 q 593 538 619 570 q 566 463 566 507 q 597 366 566 414 q 682 279 627 317 z "},"ज":{"ha":832,"x_min":-58,"x_max":884,"o":"m 45 507 l 95 540 q 228 340 153 415 q 370 266 303 266 q 422 290 401 266 q 444 349 444 314 q 385 458 444 404 q 228 548 326 513 l 237 582 l 644 582 l 644 749 l 0 749 l -58 827 l 826 827 l 884 749 l 735 749 l 735 0 l 644 50 l 644 481 l 427 481 q 513 387 482 435 q 544 299 544 339 q 500 193 544 237 q 395 149 456 149 q 216 247 311 149 q 45 507 122 344 z "},"झ":{"ha":823,"x_min":-58,"x_max":882,"o":"m 425 -133 l 275 33 q 146 70 199 33 q 92 158 92 106 q 110 199 92 181 q 151 216 127 216 q 197 195 169 216 q 259 133 225 173 q 394 172 338 133 q 450 266 450 211 q 433 307 450 289 q 392 324 415 324 q 342 316 375 324 q 292 307 309 307 q 151 391 226 307 q 76 548 76 473 q 117 619 76 590 q 217 648 159 648 l 366 648 l 366 749 l 0 749 l -58 827 l 823 827 l 882 749 l 738 749 l 738 0 l 641 50 l 641 366 q 600 335 621 346 q 557 324 578 324 q 517 331 538 324 q 475 349 496 337 q 500 300 492 326 q 508 250 508 274 q 457 121 508 180 q 326 41 407 63 l 475 -83 l 425 -133 m 242 391 q 300 407 262 391 q 358 424 338 424 q 405 417 382 424 q 450 399 428 410 q 553 416 505 399 q 641 465 603 433 l 641 747 l 458 747 l 458 548 l 259 548 q 188 529 217 548 q 159 481 159 510 q 183 417 159 444 q 242 391 208 391 z "},"ञ":{"ha":826,"x_min":-58,"x_max":882,"o":"m 641 370 q 603 322 640 337 q 557 314 581 314 q 502 328 526 314 q 475 364 478 342 q 397 232 453 282 q 275 181 342 181 q 98 241 186 181 q -49 406 11 300 l -7 439 q 109 317 47 361 q 225 273 171 273 q 342 317 294 273 q 392 422 392 361 q 370 481 392 457 q 317 505 349 505 q 264 484 294 505 q 209 422 235 462 l 117 513 q 182 568 142 548 q 267 588 222 588 q 342 575 307 588 q 400 538 376 562 q 449 481 431 507 q 467 439 467 455 q 493 414 475 424 q 533 406 511 406 q 585 418 556 406 q 641 457 599 425 l 641 749 l 361 749 l 0 749 l -58 827 l 823 827 l 882 749 l 732 749 l 732 0 l 641 50 l 641 370 z "},"ट":{"ha":629,"x_min":-58,"x_max":689,"o":"m 0 749 l -58 827 l 631 827 l 689 749 l 469 749 l 469 524 q 452 474 469 495 q 410 449 435 454 q 210 388 291 449 q 128 274 128 337 q 184 157 128 206 q 319 108 239 108 q 439 132 365 108 q 551 191 513 155 l 602 100 q 488 38 543 60 q 385 16 434 16 q 144 111 244 16 q 45 340 45 206 q 122 456 45 402 q 319 532 205 514 q 355 547 340 535 q 370 573 370 559 l 370 749 l 0 749 z "},"ठ":{"ha":691,"x_min":-58,"x_max":757,"o":"m 366 18 q 136 115 247 18 q 26 317 26 213 q 100 455 26 395 q 283 525 172 514 q 376 562 334 530 q 416 633 416 593 q 406 695 416 665 q 374 749 395 726 l 0 749 l -58 827 l 692 827 l 757 749 l 466 749 q 503 691 491 721 q 515 633 515 661 q 505 543 515 582 q 474 484 494 503 q 590 388 547 442 q 632 284 632 334 q 554 96 632 174 q 366 18 476 18 m 316 110 q 475 154 434 110 q 524 300 524 208 q 495 376 524 352 l 431 427 q 197 386 245 427 q 140 266 140 336 q 203 161 140 205 q 316 117 267 117 l 316 110 z "},"ड":{"ha":742,"x_min":-58,"x_max":804,"o":"m 479 14 q 253 96 372 14 q 31 326 134 180 l 77 354 q 254 177 157 241 q 446 113 351 113 q 569 153 517 113 q 621 246 621 191 q 599 287 621 269 q 546 304 578 304 q 463 288 517 304 q 380 271 408 271 q 242 352 312 271 q 172 512 172 432 q 211 594 172 560 q 305 628 250 628 l 513 628 l 513 749 l 0 749 l -58 827 l 745 827 l 804 749 l 604 749 l 604 529 l 347 529 q 281 509 309 529 q 255 463 255 490 q 277 397 255 424 q 330 371 298 371 q 417 387 360 371 q 505 404 475 404 q 637 328 564 404 q 709 188 709 251 q 642 65 709 117 q 479 14 574 14 z "},"ढ":{"ha":665,"x_min":-58,"x_max":723,"o":"m 442 14 q 169 134 294 14 q 43 396 43 254 q 117 549 43 486 q 293 612 190 612 l 475 612 l 475 749 l 0 749 l -58 827 l 665 827 l 723 749 l 567 749 l 567 512 l 359 512 q 201 468 266 512 q 135 362 135 424 q 197 181 135 258 q 351 96 259 105 q 313 172 326 132 q 301 254 301 213 q 345 360 301 316 q 450 404 389 404 q 583 343 528 404 q 638 197 638 283 q 581 66 638 120 q 442 14 524 14 m 392 88 q 519 118 464 75 q 575 229 575 161 q 546 288 575 264 q 475 313 517 313 q 399 279 431 313 q 368 197 368 245 q 374 138 368 165 q 392 88 380 110 z "},"ण":{"ha":689,"x_min":-58,"x_max":746,"o":"m 52 570 l 52 749 l 0 749 l -58 827 l 688 827 l 746 749 l 627 749 l 627 0 l 535 50 l 535 749 l 416 747 l 416 399 q 370 288 416 334 q 267 241 335 252 q 100 312 165 224 q 50 456 44 387 l 52 465 l 52 570 m 225 324 q 296 351 267 324 q 325 415 325 377 l 325 747 l 144 747 l 144 432 q 168 355 144 387 q 225 324 192 324 z "},"त":{"ha":610,"x_min":-58,"x_max":669,"o":"m 62 455 q 100 518 76 496 q 243 590 182 590 l 443 590 l 443 749 l 0 749 l -58 827 l 610 827 l 669 749 l 534 749 l 534 0 l 443 50 l 443 498 l 277 498 q 171 459 215 498 q 127 366 127 420 q 173 210 127 294 q 302 41 218 125 l 260 8 q 88 226 117 151 q 52 374 52 320 l 62 455 z "},"थ":{"ha":750,"x_min":29,"x_max":804,"o":"m 477 747 l 419 827 l 746 827 l 804 749 l 652 749 l 652 0 l 561 50 l 561 282 q 458 208 513 234 q 353 183 405 183 q 174 247 257 183 q 54 415 92 311 q 165 435 112 415 q 262 490 218 454 q 94 581 159 518 q 29 715 29 643 q 76 808 29 769 q 187 848 122 848 q 347 774 273 848 q 420 614 420 701 q 346 441 420 515 q 162 357 272 367 q 215 292 174 317 q 312 266 257 266 q 450 311 383 266 q 561 432 516 355 l 561 749 l 477 747 m 287 524 q 330 575 315 547 q 345 631 345 603 q 311 737 345 693 q 229 781 277 781 q 158 752 187 781 q 129 681 129 723 q 173 586 129 630 q 287 524 217 542 z "},"द":{"ha":591,"x_min":-58,"x_max":649,"o":"m 0 749 l -58 827 l 591 827 l 649 749 l 506 749 l 506 460 l 307 460 q 184 416 235 460 q 132 311 132 372 q 185 168 132 212 q 315 123 239 123 q 354 130 335 123 q 390 149 373 137 q 372 184 378 163 q 365 232 365 205 q 384 260 365 248 q 431 273 403 273 q 502 230 465 273 q 539 149 539 186 q 524 109 539 129 q 481 74 508 89 l 564 -84 l 490 -117 l 431 57 q 388 45 413 49 q 332 41 363 41 q 144 135 239 41 q 49 361 49 230 q 117 502 49 444 q 282 560 185 560 l 415 560 l 415 749 l 34 749 l 0 749 z "},"ध":{"ha":727,"x_min":11,"x_max":785,"o":"m 94 382 q 119 452 94 420 q 186 498 144 484 q 60 591 108 527 q 11 731 12 654 q 53 825 11 786 q 153 864 94 864 q 264 825 217 864 q 311 731 311 786 q 276 649 311 683 q 194 614 242 614 q 152 623 172 614 q 111 648 131 631 q 153 569 119 605 q 235 515 186 533 q 360 532 330 532 l 410 449 q 245 420 313 449 q 178 349 178 391 q 212 278 178 307 q 294 250 245 250 q 434 293 353 250 q 559 410 513 337 l 559 749 l 418 749 l 360 827 l 727 827 l 785 749 l 651 749 l 651 0 l 559 50 l 559 266 q 456 204 511 226 q 343 183 400 183 q 168 241 241 183 q 94 382 94 299 m 178 665 q 231 684 209 665 q 252 731 252 703 q 231 790 252 766 q 178 814 209 814 q 124 790 146 814 q 102 731 102 766 q 124 684 102 703 q 178 665 146 665 z "},"न":{"ha":618,"x_min":-73,"x_max":686,"o":"m 47 432 q 66 467 47 452 q 113 481 85 481 l 446 481 l 446 747 l 2 747 l -73 831 l 612 831 l 686 747 l 545 747 l 545 0 l 446 50 l 446 391 l 229 391 l 229 291 q 220 262 229 274 q 197 250 210 250 q 103 318 160 250 q 47 432 47 387 z "},"ऩ":{"ha":618,"x_min":-73,"x_max":686,"o":"m 161 12 l 69 103 l 161 203 l 252 103 l 161 12 m 47 432 q 66 467 47 452 q 113 481 85 481 l 446 481 l 446 747 l 2 747 l -73 831 l 612 831 l 686 747 l 545 747 l 545 0 l 446 50 l 446 391 l 229 391 l 229 291 q 220 262 229 274 q 197 250 210 250 q 103 318 160 250 q 47 432 47 387 z "},"प":{"ha":611,"x_min":-58,"x_max":669,"o":"m 56 490 l 56 749 l 0 749 l -58 827 l 610 827 l 669 749 l 513 749 l 513 0 l 421 50 l 421 324 q 358 287 393 299 q 288 274 340 281 q 162 307 218 266 q 109 361 134 328 q 56 490 50 439 m 255 349 q 353 366 314 347 q 421 423 403 391 l 421 747 l 147 747 l 147 449 q 184 378 147 415 q 255 349 214 349 z "},"फ":{"ha":873,"x_min":-58,"x_max":930,"o":"m 75 507 l 75 749 l 0 749 l -58 827 l 872 827 l 930 749 l 507 749 l 507 477 q 648 528 593 528 q 799 451 753 528 q 848 299 848 370 q 818 195 848 251 q 731 83 788 140 l 648 149 q 734 246 703 196 q 765 340 765 296 q 741 411 765 382 q 682 440 716 440 q 507 374 622 440 l 507 0 l 416 50 l 416 324 q 360 293 393 304 q 291 282 328 282 q 145 357 208 282 q 75 507 98 415 m 250 374 q 332 385 301 374 q 416 428 376 399 l 416 749 l 167 749 l 167 465 q 191 400 167 427 q 250 374 215 374 z "},"ब":{"ha":659,"x_min":-58,"x_max":717,"o":"m 18 415 q 84 557 18 498 q 243 614 149 614 q 370 589 306 614 q 492 515 433 564 l 492 749 l 0 749 l -58 827 l 659 827 l 717 749 l 583 749 l 583 0 l 492 50 l 492 307 q 378 215 442 248 q 251 183 315 183 q 94 258 170 183 q 18 415 18 334 m 226 266 q 317 274 294 266 l 176 507 q 115 455 138 488 q 93 382 93 422 q 132 300 93 334 q 226 266 171 266 m 384 299 q 463 354 433 322 q 492 415 492 385 q 433 498 492 464 q 292 532 375 532 q 251 524 282 532 l 384 299 z "},"भ":{"ha":754,"x_min":11,"x_max":814,"o":"m 111 391 q 123 408 111 400 q 152 415 136 415 l 227 415 l 227 515 q 71 595 130 540 q 11 715 11 651 q 50 797 11 763 q 144 831 89 831 q 258 758 189 831 q 327 640 327 686 l 327 404 l 564 404 l 564 749 l 435 749 l 376 827 l 755 827 l 814 749 l 655 749 l 655 0 l 564 50 l 564 327 l 327 327 l 327 241 q 317 212 327 224 q 293 199 307 199 q 180 272 248 199 q 111 391 111 344 m 227 565 l 227 681 q 210 728 227 709 q 169 747 192 747 q 128 728 145 747 q 111 681 111 709 q 142 616 111 648 q 227 565 174 583 z "},"म":{"ha":673,"x_min":-58,"x_max":732,"o":"m 35 382 q 45 406 35 395 q 68 415 55 415 l 126 415 l 126 749 l 0 749 l -58 827 l 674 827 l 732 749 l 583 749 l 583 0 l 492 50 l 492 327 l 226 327 l 226 250 q 216 220 226 233 q 193 208 206 208 q 90 269 144 208 q 35 382 35 329 m 226 404 l 492 404 l 492 749 l 226 749 l 226 404 z "},"य":{"ha":681,"x_min":-58,"x_max":746,"o":"m 45 498 q 198 530 135 498 q 262 606 262 562 q 244 673 262 636 q 195 749 227 709 l 0 749 l -58 827 l 681 827 l 746 749 l 602 749 l 602 0 l 511 50 l 511 282 q 422 227 467 246 q 336 208 378 208 q 149 293 231 211 q 45 498 67 376 m 286 299 q 418 312 395 299 q 511 404 477 345 l 511 749 l 274 749 q 331 661 322 696 q 342 565 342 613 q 286 459 342 502 q 145 415 228 415 q 186 333 145 367 q 286 299 229 299 z "},"र":{"ha":475,"x_min":-58,"x_max":533,"o":"m 397 -16 l 49 366 q 37 387 40 375 q 32 415 32 400 q 50 463 32 444 q 90 481 67 481 q 125 477 100 481 q 165 465 153 473 q 178 500 173 484 q 182 532 182 517 l 182 749 l 0 749 l -58 827 l 475 827 l 533 749 l 273 749 l 273 449 q 252 359 273 402 q 190 282 230 316 l 448 33 l 397 -16 z "},"ऱ":{"ha":475,"x_min":-58,"x_max":533,"o":"m 76 62 l 3 136 l 76 215 l 149 136 l 76 62 m 397 -16 l 49 366 q 37 387 40 375 q 32 415 32 400 q 50 463 32 444 q 90 481 67 481 q 125 477 100 481 q 165 465 153 473 q 178 500 173 484 q 182 532 182 517 l 182 749 l 0 749 l -58 827 l 475 827 l 533 749 l 273 749 l 273 449 q 252 359 273 402 q 190 282 230 316 l 448 33 l 397 -16 z "},"ल":{"ha":846,"x_min":-58,"x_max":904,"o":"m 34 424 q 87 541 34 492 q 216 590 140 590 q 317 557 268 590 q 399 465 366 524 q 481 551 437 520 q 566 582 526 582 q 634 571 604 582 q 682 540 665 560 l 682 749 l 0 749 l -58 827 l 846 827 l 904 749 l 773 749 l 773 0 l 682 50 l 682 473 q 654 492 671 485 q 615 498 637 498 q 498 446 549 498 q 441 316 448 394 l 357 374 q 374 415 368 400 q 308 477 348 455 q 224 498 268 498 q 160 465 186 498 q 133 382 133 431 q 213 195 133 292 q 433 16 293 96 l 408 -25 q 135 176 236 55 q 34 424 34 298 z "},"ळ":{"ha":909,"x_min":-58,"x_max":960,"o":"m 271 83 q 102 163 182 83 q 22 332 22 244 q 85 503 22 432 q 237 573 148 573 q 355 535 299 573 q 450 432 412 497 q 543 530 494 495 q 644 565 593 565 l 644 749 l 0 749 l -58 827 l 902 827 l 960 749 l 736 749 l 736 548 q 834 443 799 505 q 869 316 869 380 q 806 151 869 219 q 653 83 743 83 q 547 109 602 83 q 445 183 493 134 q 359 109 406 134 q 271 83 314 83 m 221 166 q 348 228 289 166 q 433 387 407 289 q 358 450 406 427 q 254 473 311 473 q 143 422 189 473 q 96 299 96 370 q 133 205 96 244 q 221 166 170 166 m 636 166 q 747 222 701 166 q 794 357 794 277 q 762 446 794 409 q 686 481 731 481 q 554 412 616 481 q 462 233 492 342 q 526 184 480 201 q 636 166 573 166 z "},"ऴ":{"ha":909,"x_min":-58,"x_max":960,"o":"m 195 -140 l 103 -48 l 195 52 l 286 -48 l 195 -140 m 271 83 q 102 163 182 83 q 22 332 22 244 q 85 503 22 432 q 237 573 148 573 q 355 535 299 573 q 450 432 412 497 q 543 530 494 495 q 644 565 593 565 l 644 749 l 0 749 l -58 827 l 902 827 l 960 749 l 736 749 l 736 548 q 834 443 799 505 q 869 316 869 380 q 806 151 869 219 q 653 83 743 83 q 547 109 602 83 q 445 183 493 134 q 359 109 406 134 q 271 83 314 83 m 221 166 q 348 228 289 166 q 433 387 407 289 q 358 450 406 427 q 254 473 311 473 q 143 422 189 473 q 96 299 96 370 q 133 205 96 244 q 221 166 170 166 m 636 166 q 747 222 701 166 q 794 357 794 277 q 762 446 794 409 q 686 481 731 481 q 554 412 616 481 q 462 233 492 342 q 526 184 480 201 q 636 166 573 166 z "},"व":{"ha":672,"x_min":-58,"x_max":732,"o":"m 26 424 q 94 547 26 495 q 259 598 163 598 q 386 564 324 598 q 492 465 448 528 l 492 749 l 0 749 l -58 827 l 674 827 l 732 749 l 583 749 l 583 0 l 492 50 l 492 274 q 400 207 448 231 q 309 183 352 183 q 115 258 204 183 q 26 424 26 334 m 239 274 q 321 277 277 267 q 365 292 342 283 q 494 381 433 321 q 408 465 458 431 q 297 509 356 498 q 210 507 250 517 q 170 494 189 503 q 104 416 113 467 q 114 355 98 385 q 135 327 121 341 q 239 274 175 286 z "},"श":{"ha":766,"x_min":-58,"x_max":826,"o":"m 390 -16 l 232 216 q 193 206 214 210 q 149 203 172 203 q 61 233 98 203 q 24 307 24 264 q 51 355 24 336 q 116 374 77 374 q 175 357 144 374 q 232 307 205 339 q 294 364 267 328 q 340 449 321 400 q 150 535 193 474 q 103 681 103 602 q 107 716 103 702 q 120 749 113 732 l 0 749 l -58 827 l 768 827 l 826 749 l 677 749 l 677 0 l 585 50 l 585 749 l 360 749 q 431 671 404 738 q 456 548 456 602 q 408 372 456 455 q 273 241 358 289 l 448 25 l 390 -16 m 349 498 q 365 582 365 593 q 336 693 365 646 q 265 739 307 739 q 195 718 224 739 q 165 665 165 696 q 216 566 165 613 q 349 498 267 520 z "},"ष":{"ha":623,"x_min":-58,"x_max":678,"o":"m 79 553 l 77 749 l 0 749 l -58 827 l 620 827 l 678 749 l 529 749 l 529 0 l 437 50 l 437 290 q 364 252 418 267 q 288 241 326 241 q 123 311 176 241 q 75 454 68 384 q 77 465 76 460 l 79 553 m 238 324 q 340 340 290 324 q 437 391 391 357 l 155 697 l 155 399 q 179 346 155 367 q 238 324 203 324 m 437 486 l 437 747 l 178 747 l 437 486 z "},"स":{"ha":736,"x_min":-58,"x_max":793,"o":"m 368 -8 l 169 199 q 64 330 100 267 q 27 440 27 392 q 43 475 27 460 q 77 490 58 490 q 125 479 104 490 q 155 449 147 467 q 179 473 174 456 q 185 507 185 488 l 185 749 l 0 749 l -58 827 l 735 827 l 793 749 l 644 749 l 644 0 l 553 50 l 553 408 q 492 359 512 366 q 410 343 452 343 q 338 355 368 343 q 269 399 302 370 q 235 317 260 351 q 177 274 210 283 l 426 50 l 368 -8 m 418 423 q 486 442 465 430 q 553 515 528 467 l 553 749 l 277 749 l 277 465 q 321 435 300 446 q 359 424 338 427 q 418 423 394 420 z "},"ह":{"ha":621,"x_min":-58,"x_max":678,"o":"m 450 -83 q 169 56 277 -37 q 60 250 60 148 q 86 332 60 292 q 159 399 113 372 q 75 466 106 424 q 43 557 43 509 q 75 610 43 588 q 151 631 106 631 l 425 631 l 425 749 l 0 749 l -58 827 l 620 827 l 678 749 l 517 749 l 517 540 l 193 540 q 158 528 173 540 q 143 498 143 515 q 161 453 143 475 q 210 415 180 431 q 267 433 236 427 q 334 440 299 440 q 510 365 452 440 q 567 208 567 289 q 547 136 567 170 q 492 83 527 103 l 417 123 q 465 162 447 134 q 484 266 484 191 q 447 336 484 307 q 359 366 410 366 q 224 321 279 366 q 168 216 168 277 q 250 71 168 140 q 458 -33 331 1 l 450 -83 z "},"़":{"ha":0,"x_min":-520,"x_max":-374,"o":"m -447 -312 l -520 -239 l -447 -159 l -374 -239 l -447 -312 z "},"ऽ":{"ha":577,"x_min":24,"x_max":532,"o":"m 532 796 l 454 729 l 349 772 q 343 774 346 773 q 290 745 319 779 q 266 681 266 719 q 281 610 266 644 q 323 548 296 576 l 376 512 q 464 451 441 465 q 502 393 468 449 q 509 377 507 386 q 481 278 518 338 q 370 190 440 210 q 203 200 323 177 q 125 237 172 206 q 24 298 33 297 l 24 415 q 168 325 55 368 q 315 282 280 282 q 386 309 357 282 q 415 373 415 335 q 240 497 305 425 q 174 639 174 569 q 240 789 174 724 q 390 855 305 855 q 532 796 449 855 z "},"ा":{"ha":285,"x_min":-58,"x_max":340,"o":"m -58 827 l 281 827 l 340 749 l 207 749 l 207 0 l 115 50 l 115 749 l -3 749 l -58 827 z "},"ि":{"ha":308,"x_min":-68,"x_max":824,"o":"m 222 751 l 222 2 l 131 52 l 131 751 l -9 751 l -68 829 l 154 829 l 102 916 q 81 999 81 954 q 159 1164 81 1095 q 347 1232 237 1232 q 569 1168 479 1232 q 572 1166 570 1167 q 691 1040 628 1126 q 727 987 711 1013 l 799 876 q 824 829 812 852 l 754 829 l 663 968 q 573 1066 613 1040 q 380 1132 473 1132 q 233 1083 294 1132 q 172 966 172 1034 q 222 829 172 894 l 313 829 l 372 751 l 222 751 z "},"ी":{"ha":334,"x_min":-239,"x_max":387,"o":"m 155 749 l -93 749 l -155 827 l 155 827 q 183 960 163 844 q 159 1095 195 1029 l 98 1130 q 45 1135 51 1135 q -33 1090 -1 1135 q -91 994 -85 1014 q -146 827 -114 907 l -239 827 q -223 886 -223 884 q -167 1058 -214 973 q -65 1184 -113 1155 q 85 1221 27 1242 q 182 1162 139 1202 q 252 1066 233 1114 q 273 948 269 1025 l 223 827 l 328 827 l 387 749 l 246 749 l 246 0 l 155 50 l 155 749 z "},"ु":{"ha":0,"x_min":-542,"x_max":-50,"o":"m -196 -321 q -369 -256 -277 -321 q -542 -75 -460 -191 l -509 -49 q -361 -201 -441 -146 q -210 -255 -282 -255 q -134 -222 -165 -255 q -103 -142 -103 -189 q -120 -90 -103 -111 q -147 -71 -131 -77 q -153 -69 -143 -73 q -193 -64 -177 -61 l -196 -65 q -243 -85 -233 -77 l -296 -36 q -247 -5 -273 -16 q -196 4 -221 4 q -92 -46 -135 4 q -50 -169 -50 -97 q -92 -277 -50 -233 q -196 -321 -135 -321 z "},"ू":{"ha":0,"x_min":-391,"x_max":69,"o":"m -248 -231 q -349 -188 -308 -231 q -391 -87 -391 -146 q -363 -20 -391 -47 q -296 9 -335 9 q -237 -1 -264 9 q -188 -27 -208 -9 q 69 -260 -39 -152 l 39 -290 q -140 -123 -66 -185 q -207 -79 -175 -94 q -266 -63 -239 -63 q -317 -79 -296 -63 q -338 -117 -338 -94 q -322 -159 -338 -142 q -283 -177 -307 -177 q -241 -168 -263 -177 q -200 -141 -220 -159 l -158 -201 q -201 -223 -178 -215 q -248 -231 -225 -231 z "},"ृ":{"ha":0,"x_min":-469,"x_max":-135,"o":"m -210 -31 q -212 -35 -205 -34 q -237 -37 -234 -35 q -252 -39 -241 -38 q -305 -44 -298 -42 q -321 -48 -311 -46 q -375 -71 -351 -54 q -419 -144 -419 -99 q -386 -215 -419 -185 q -304 -244 -352 -244 q -226 -239 -254 -246 q -212 -234 -218 -237 q -174 -208 -193 -227 l -135 -249 q -203 -286 -170 -273 q -264 -299 -235 -299 q -409 -242 -349 -299 q -469 -104 -469 -185 q -422 -35 -469 -68 q -395 -21 -412 -28 q -300 7 -372 -11 l -275 9 q -216 16 -218 14 q -212 7 -214 18 l -210 -31 z "},"ॄ":{"ha":0,"x_min":-297,"x_max":-81,"o":"m -210 53 l -197 -2 l -214 -7 q -244 -51 -244 -21 q -230 -84 -244 -70 q -197 -98 -216 -98 q -154 -78 -169 -98 l -132 -127 q -193 -149 -150 -149 q -202 -184 -202 -164 q -191 -212 -202 -201 q -163 -224 -180 -224 q -101 -199 -131 -224 l -81 -247 q -163 -278 -119 -278 q -226 -253 -198 -278 q -257 -184 -257 -226 q -245 -137 -257 -157 q -276 -111 -261 -131 q -297 -52 -297 -84 q -282 0 -297 -23 q -268 15 -279 6 q -210 53 -237 40 z "},"ॅ":{"ha":0,"x_min":-608,"x_max":-142,"o":"m -375 903 q -507 952 -443 903 q -608 1085 -570 1002 l -522 1110 q -435 1025 -494 1078 q -372 1002 -411 1001 q -301 1025 -334 1002 q -225 1110 -257 1057 l -142 1060 q -239 945 -176 989 q -375 903 -302 903 z "},"ॆ":{"ha":0,"x_min":-674,"x_max":-94,"o":"m -185 827 l -507 939 q -613 1002 -568 960 q -669 1093 -656 1044 q -673 1128 -674 1111 q -672 1137 -673 1133 q -659 1182 -669 1158 l -535 1138 q -545 1103 -543 1124 q -543 1074 -545 1089 q -540 1059 -542 1067 q -508 1008 -532 1032 q -448 972 -485 986 l -208 882 l -156 860 l -94 827 l -185 827 z "},"े":{"ha":0,"x_min":-658,"x_max":-142,"o":"m -237 827 l -400 1060 q -451 1109 -424 1093 q -505 1127 -485 1129 l -508 1126 q -551 1120 -538 1120 q -583 1101 -583 1120 l -658 1210 q -617 1234 -637 1230 q -574 1242 -578 1242 q -473 1212 -523 1242 q -361 1126 -383 1158 l -188 887 l -142 827 l -237 827 z "},"ै":{"ha":0,"x_min":-842,"x_max":-145,"o":"m -250 827 l -439 945 l -555 1024 q -616 1059 -597 1053 q -677 1061 -650 1067 q -717 1043 -701 1054 q -743 1017 -743 1023 l -842 1102 q -810 1137 -828 1127 q -771 1156 -774 1155 q -702 1160 -738 1164 q -665 1152 -684 1158 q -535 1098 -575 1126 l -372 983 l -254 883 l -364 1124 q -406 1181 -380 1158 q -458 1208 -431 1203 q -492 1210 -477 1211 q -503 1208 -498 1210 q -536 1196 -536 1202 l -591 1316 q -547 1333 -568 1333 l -504 1334 q -409 1286 -453 1325 q -315 1182 -328 1215 l -256 1037 l -208 895 l -145 827 l -250 827 z "},"ॉ":{"ha":397,"x_min":-64,"x_max":467,"o":"m 229 861 q 97 911 161 861 q -4 1044 34 961 l 82 1069 q 169 983 109 1038 q 232 961 193 960 q 302 984 270 961 q 378 1069 347 1016 l 461 1019 q 365 905 428 947 q 229 861 302 861 m -64 827 l 408 827 l 467 749 l 334 749 l 334 0 l 242 50 l 242 749 l -5 749 l -64 827 z "},"ॊ":{"ha":293,"x_min":-362,"x_max":351,"o":"m 3 749 l -56 827 l 83 827 l 127 827 l -195 939 q -301 1002 -257 960 q -357 1093 -344 1044 l -360 1108 q -360 1137 -362 1122 q -347 1182 -357 1158 l -223 1138 q -233 1103 -231 1124 q -233 1099 -233 1101 q -228 1059 -233 1080 q -196 1008 -220 1032 q -136 972 -173 986 l 104 882 l 156 860 l 218 827 l 293 827 l 351 749 l 218 749 l 218 0 l 127 50 l 127 749 l 3 749 z "},"ो":{"ha":279,"x_min":-307,"x_max":341,"o":"m -58 827 l 113 827 l -50 1060 q -100 1109 -72 1092 q -155 1127 -134 1129 q -157 1126 -156 1126 q -201 1120 -188 1120 q -233 1101 -232 1120 l -307 1210 q -267 1234 -286 1230 q -224 1242 -227 1242 q -122 1212 -172 1242 q -12 1126 -33 1158 l 165 865 l 208 827 l 283 827 l 341 749 l 208 749 l 208 0 l 117 50 l 117 749 l 1 749 l -58 827 z "},"ौ":{"ha":283,"x_min":-472,"x_max":345,"o":"m -56 824 l 120 827 l -69 945 l -185 1024 q -246 1059 -227 1053 q -291 1063 -270 1065 q -307 1061 -299 1063 q -347 1043 -331 1054 q -372 1017 -373 1023 l -472 1102 q -439 1137 -458 1127 q -401 1156 -404 1155 q -332 1160 -368 1164 q -294 1152 -313 1158 q -165 1098 -205 1126 l -1 983 l 116 883 l 6 1124 q -35 1181 -9 1158 q -88 1208 -60 1203 q -122 1210 -107 1211 q -132 1208 -127 1210 q -166 1196 -165 1202 l -221 1316 q -177 1333 -197 1333 l -134 1334 q -39 1286 -83 1325 q 56 1182 43 1215 l 114 1037 l 163 895 l 225 827 l 286 827 l 345 749 l 212 749 l 212 0 l 120 50 l 120 749 l 0 749 l -56 824 z "},"्":{"ha":0,"x_min":-451,"x_max":-2,"o":"m -451 -49 q -348 -4 -410 -4 q -175 -69 -267 -4 q -2 -250 -83 -134 l -35 -277 q -182 -125 -103 -180 q -334 -71 -262 -71 q -393 -92 -363 -71 q -410 -104 -399 -96 q -451 -49 -408 -103 z "},"ॐ":{"ha":1329,"x_min":33,"x_max":1274,"o":"m 371 64 q 184 161 277 64 q 33 420 90 260 l 74 437 q 193 239 119 315 q 347 163 269 163 q 440 205 401 163 q 479 304 479 246 q 443 404 479 363 q 355 446 406 446 l 288 429 l 247 512 q 372 566 323 526 q 421 654 421 605 q 399 712 421 688 q 347 736 378 736 q 262 722 303 736 q 189 678 222 707 l 122 770 q 208 819 160 802 q 304 836 255 836 q 439 751 365 836 q 513 595 513 665 q 488 530 513 562 q 421 479 463 499 q 494 438 459 466 q 554 371 528 411 q 633 322 592 339 q 712 304 673 304 q 801 331 757 304 q 878 404 845 357 q 1111 637 1041 637 q 1226 569 1179 637 q 1274 404 1274 500 q 1238 304 1274 346 q 1152 263 1202 263 q 1072 301 1116 263 q 991 404 1029 339 q 865 264 928 315 q 753 213 802 213 q 651 228 699 213 q 570 271 604 243 q 512 124 570 185 q 371 64 454 64 m 1119 340 q 1178 377 1154 340 q 1202 465 1202 414 q 1187 519 1202 497 q 1152 540 1172 540 q 1083 511 1119 540 q 1019 432 1048 482 q 1066 366 1039 391 q 1119 340 1093 340 m 820 720 q 664 782 743 720 q 521 952 584 844 l 562 969 q 669 866 601 904 q 820 828 739 828 q 970 866 901 828 q 1078 969 1039 904 l 1119 952 q 976 782 1056 844 q 820 720 897 720 m 820 903 l 745 986 l 820 1069 l 895 986 l 820 903 z "},"॑":{"ha":0,"x_min":-262,"x_max":-197,"o":"m -197 895 l -262 895 l -262 1362 l -197 1362 l -197 895 z "},"॒":{"ha":0,"x_min":-644,"x_max":7,"o":"m 7 -141 l -644 -141 l -644 -81 l 7 -81 l 7 -141 z "},"॓":{"ha":0,"x_min":-731,"x_max":-330,"o":"m -330 942 l -369 874 l -731 1046 l -663 1166 l -330 942 z "},"॔":{"ha":0,"x_min":-534,"x_max":-134,"o":"m -134 1046 l -496 874 l -534 942 l -201 1166 l -134 1046 z "},"क़":{"ha":916,"x_min":-58,"x_max":975,"o":"m 236 57 l 178 115 l 236 179 l 294 115 l 236 57 m 41 429 q 94 558 41 505 q 223 612 147 612 q 345 576 285 612 q 448 479 404 542 l 448 749 l 0 749 l -58 827 l 916 827 l 975 749 l 539 749 l 539 479 q 625 522 556 494 q 697 536 664 536 q 820 466 768 536 q 871 296 871 395 q 850 177 871 234 q 788 71 828 119 l 713 155 q 787 262 762 212 q 813 346 813 311 q 784 422 813 391 q 713 454 755 454 q 539 351 662 454 l 539 -3 l 448 46 l 448 304 q 359 237 404 261 q 273 213 313 213 q 109 260 153 213 q 41 429 41 333 m 226 286 q 328 320 269 286 q 450 418 387 355 q 355 479 402 458 q 268 501 307 501 q 156 469 203 501 q 110 393 110 438 q 144 317 110 349 q 226 286 178 286 z "},"ख़":{"ha":966,"x_min":-58,"x_max":1023,"o":"m 235 -81 l 177 -22 l 235 41 l 294 -22 l 235 -81 m 532 16 q 378 60 461 16 q 217 183 296 103 q 94 332 137 262 q 50 449 50 400 q 66 472 50 462 q 100 481 81 481 q 129 471 99 481 q 167 457 144 465 q 179 485 175 464 q 183 540 183 507 l 183 659 q 185 692 187 677 q 182 708 184 701 q 146 749 171 737 l 0 749 l -58 827 l 964 827 l 1023 749 l 863 749 l 863 0 l 798 50 l 798 125 q 655 44 724 71 q 532 16 587 16 m 499 100 q 673 130 595 100 q 798 216 751 161 l 798 316 q 724 260 762 279 q 648 241 685 241 q 473 307 546 241 q 399 465 399 372 q 458 583 399 533 q 599 631 516 631 q 699 601 647 631 q 798 515 751 570 l 798 747 l 225 749 q 263 719 250 742 q 275 667 273 702 l 275 498 q 254 389 275 431 q 200 313 227 339 q 337 157 256 214 q 499 100 418 100 m 582 316 q 699 349 642 316 q 798 440 757 382 l 798 469 q 709 528 751 507 q 632 548 667 548 q 521 514 567 548 q 474 432 474 480 q 506 350 474 384 q 582 316 537 316 z "},"ग़":{"ha":667,"x_min":-58,"x_max":719,"o":"m 170 62 l 112 120 l 170 184 l 229 120 l 170 62 m 220 282 q 113 336 172 282 q 54 432 54 389 q 71 461 54 448 q 113 473 89 473 l 170 473 l 170 749 l 0 749 l -58 827 l 661 827 l 719 749 l 586 749 l 586 0 l 494 50 l 494 749 l 262 749 l 262 332 q 249 297 262 313 q 220 282 237 282 z "},"ज़":{"ha":825,"x_min":-58,"x_max":884,"o":"m 387 -27 l 328 31 l 387 95 l 445 31 l 387 -27 m 45 507 l 95 540 q 228 340 153 415 q 370 266 303 266 q 422 290 401 266 q 444 349 444 314 q 385 458 444 404 q 228 548 326 513 l 237 582 l 644 582 l 644 749 l 0 749 l -58 827 l 826 827 l 884 749 l 735 749 l 735 0 l 644 50 l 644 481 l 427 481 q 513 387 482 435 q 544 299 544 339 q 500 193 544 237 q 395 149 456 149 q 216 247 311 149 q 45 507 122 344 z "},"ड़":{"ha":802,"x_min":-58,"x_max":855,"o":"m 200 -64 l 142 -5 l 200 58 l 258 -5 l 200 -64 m 475 0 q 261 89 377 0 q 35 333 144 176 l 77 366 q 261 171 165 241 q 442 100 357 100 q 564 142 513 100 q 613 241 613 183 q 587 292 613 271 q 525 313 562 313 q 442 298 497 313 q 359 283 387 283 q 227 361 292 283 q 160 515 160 439 q 199 598 160 564 q 293 632 238 632 l 509 632 l 509 749 l 0 749 l -58 827 l 797 827 l 855 749 l 600 749 l 600 532 l 342 532 q 272 508 301 532 q 243 449 243 484 q 272 401 243 421 q 342 382 301 382 q 421 395 369 382 q 500 408 474 408 q 620 336 557 408 q 683 200 683 264 q 623 58 683 117 q 475 0 562 1 z "},"ढ़":{"ha":665,"x_min":-58,"x_max":723,"o":"m 93 -10 l 35 48 l 93 112 l 151 48 l 93 -10 m 442 14 q 169 134 294 14 q 43 396 43 254 q 117 549 43 486 q 293 612 190 612 l 475 612 l 475 749 l 0 749 l -58 827 l 665 827 l 723 749 l 567 749 l 567 512 l 359 512 q 201 468 266 512 q 135 362 135 424 q 197 181 135 258 q 351 96 259 105 q 313 172 326 132 q 301 254 301 213 q 345 360 301 316 q 450 404 389 404 q 583 343 528 404 q 638 197 638 283 q 581 66 638 120 q 442 14 524 14 m 392 88 q 519 118 464 75 q 575 229 575 161 q 546 288 575 264 q 475 313 517 313 q 399 279 431 313 q 368 197 368 245 q 374 138 368 165 q 392 88 380 110 z "},"फ़":{"ha":873,"x_min":-58,"x_max":930,"o":"m 213 91 l 155 149 l 213 213 l 271 149 l 213 91 m 75 507 l 75 749 l 0 749 l -58 827 l 872 827 l 930 749 l 507 749 l 507 477 q 648 528 593 528 q 799 451 753 528 q 848 299 848 370 q 818 195 848 251 q 731 83 788 140 l 648 149 q 734 246 703 196 q 765 340 765 296 q 741 411 765 382 q 682 440 716 440 q 507 374 622 440 l 507 0 l 416 50 l 416 324 q 360 293 393 304 q 291 282 328 282 q 145 357 208 282 q 75 507 98 415 m 250 374 q 332 385 301 374 q 416 428 376 399 l 416 749 l 167 749 l 167 465 q 191 400 167 427 q 250 374 215 374 z "},"य़":{"ha":681,"x_min":-58,"x_max":746,"o":"m 213 15 l 155 73 l 213 137 l 271 73 l 213 15 m 45 498 q 198 530 135 498 q 262 606 262 562 q 244 673 262 636 q 195 749 227 709 l 0 749 l -58 827 l 681 827 l 746 749 l 602 749 l 602 0 l 511 50 l 511 282 q 422 227 467 246 q 336 208 378 208 q 149 293 231 211 q 45 498 67 376 m 286 299 q 418 312 395 299 q 511 404 477 345 l 511 749 l 274 749 q 331 661 322 696 q 342 565 342 613 q 286 459 342 502 q 145 415 228 415 q 186 333 145 367 q 286 299 229 299 z "},"ॠ":{"ha":1114,"x_min":-58,"x_max":1172,"o":"m 789 484 q 699 444 735 452 q 583 431 625 428 l 574 432 l 574 0 l 482 50 l 482 340 l 150 141 l 100 224 l 482 432 q 387 481 435 465 q 291 498 338 498 q 189 484 238 498 q 100 440 140 469 l 42 548 q 250 590 157 590 q 359 562 300 590 q 482 481 419 533 l 482 749 l 0 749 l -58 827 l 1114 827 l 1172 749 l 574 749 l 574 473 q 679 491 633 473 q 756 540 725 509 q 738 568 745 555 q 731 590 731 580 q 747 637 731 618 q 781 656 762 656 q 864 614 823 656 q 906 532 906 573 q 831 517 906 524 l 884 406 q 866 375 876 380 q 830 322 830 359 q 847 283 830 300 q 887 265 865 265 q 939 290 921 265 l 965 231 q 891 205 943 205 q 880 161 880 186 q 894 128 880 142 q 927 115 907 115 q 1002 144 966 115 l 1027 87 q 928 49 981 49 q 852 79 886 49 q 815 162 815 111 q 829 218 815 195 q 791 250 810 227 q 766 321 766 282 q 784 384 766 363 l 815 423 l 789 484 z "},"ॡ":{"ha":867,"x_min":-58,"x_max":925,"o":"m 711 252 q 727 277 719 263 q 764 387 764 340 q 742 458 764 429 q 688 487 720 487 q 544 416 606 487 q 473 238 483 345 l 381 279 q 422 404 403 363 q 358 465 396 444 q 281 487 320 487 q 193 446 230 487 q 157 346 157 404 q 230 182 157 269 q 431 22 303 95 l 398 -28 q 149 172 240 63 q 57 379 57 281 q 118 520 57 463 q 265 578 178 578 q 374 547 323 578 q 456 463 425 515 q 535 542 491 513 q 622 570 579 570 l 622 749 l 0 749 l -58 827 l 867 827 l 925 749 l 713 749 l 713 562 q 799 485 777 545 q 838 346 838 424 q 836 312 838 326 q 800 233 831 280 q 777 203 790 218 q 732 166 750 175 q 696 113 696 150 q 713 74 696 91 q 753 56 730 56 q 804 81 787 56 l 831 22 q 757 -4 809 -4 q 746 -47 746 -23 q 760 -81 746 -67 q 793 -94 772 -94 q 868 -64 832 -94 l 892 -122 q 793 -160 847 -160 q 718 -130 751 -160 q 681 -47 681 -98 q 695 9 681 -14 q 657 41 675 18 q 632 113 632 73 q 650 175 632 154 l 711 252 z "},"ॢ":{"ha":0,"x_min":-460,"x_max":9,"o":"m -87 14 q -27 -19 -51 5 q -15 -37 -18 -28 q 9 -121 9 -74 q -17 -206 9 -161 q -91 -290 -43 -250 l -90 -294 q -124 -337 -90 -296 q -141 -374 -141 -357 l -141 -406 q -118 -419 -132 -419 q -96 -408 -110 -419 q -73 -378 -83 -397 l -35 -386 q -66 -437 -48 -422 q -106 -461 -93 -460 q -177 -442 -154 -463 q -196 -399 -189 -432 q -199 -345 -204 -366 q -190 -328 -196 -335 l -131 -255 q -61 -165 -111 -232 q -36 -96 -36 -131 q -49 -54 -36 -71 q -81 -36 -62 -36 q -168 -79 -131 -36 q -210 -186 -205 -122 l -265 -161 q -240 -86 -252 -111 q -279 -49 -256 -62 q -325 -36 -302 -36 q -378 -61 -356 -36 q -400 -121 -400 -86 q -356 -219 -400 -167 q -235 -315 -312 -271 l -256 -345 q -405 -225 -350 -290 q -460 -101 -460 -159 q -423 -16 -460 -51 q -335 18 -387 18 q -270 0 -300 18 q -220 -51 -239 -19 q -173 -3 -199 -20 q -97 14 -152 9 q -87 14 -91 14 z "},"ॣ":{"ha":0,"x_min":-471,"x_max":31,"o":"m -87 9 q -26 -35 -37 -6 q -2 -118 -2 -71 q -3 -132 -2 -126 q -25 -186 -5 -155 q -33 -196 -28 -191 q -66 -226 -52 -219 q -87 -258 -87 -236 q -77 -281 -87 -271 q -54 -292 -67 -292 q -22 -277 -33 -292 l -7 -313 q -51 -328 -20 -328 q -58 -354 -58 -339 q -50 -374 -58 -366 q -30 -382 -41 -382 q 16 -364 -6 -382 l 31 -399 q -29 -422 3 -422 q -75 -404 -54 -422 q -97 -354 -97 -384 q -88 -320 -97 -334 q -111 -301 -100 -315 q -126 -258 -126 -281 q -115 -220 -126 -233 l -79 -174 q -74 -168 -77 -171 q -47 -93 -47 -127 q -60 -51 -47 -68 q -92 -33 -73 -33 q -179 -77 -142 -33 q -222 -183 -216 -119 l -277 -158 q -252 -83 -264 -109 q -290 -46 -267 -60 q -336 -33 -313 -33 q -389 -58 -367 -33 q -411 -118 -411 -83 q -367 -216 -411 -164 q -247 -313 -323 -269 l -267 -342 q -416 -222 -361 -288 q -471 -98 -471 -157 q -435 -14 -471 -48 q -347 21 -398 21 q -281 2 -311 21 q -232 -48 -250 -16 q -184 -1 -211 -18 q -155 9 -175 5 q -87 9 -113 17 z "},"।":{"ha":520,"x_min":267,"x_max":387,"o":"m 387 -5 l 267 -5 l 267 827 l 387 827 l 387 -5 z "},"॥":{"ha":814,"x_min":277,"x_max":667,"o":"m 667 -5 l 548 -5 l 548 827 l 667 827 l 667 -5 m 396 -5 l 277 -5 l 277 827 l 396 827 l 396 -5 z "},"०":{"ha":472,"x_min":54,"x_max":427,"o":"m 240 151 q 109 201 163 151 q 54 323 54 252 q 117 478 54 407 q 254 549 179 549 q 376 490 326 549 q 427 350 427 432 q 362 219 427 288 q 240 151 298 151 m 260 223 q 331 252 301 223 q 360 323 360 282 q 317 436 360 389 q 214 483 275 483 q 148 452 175 483 q 121 376 121 420 q 162 268 121 313 q 260 223 203 223 z "},"१":{"ha":473,"x_min":46,"x_max":412,"o":"m 345 -98 l 286 -45 q 315 -18 304 -32 q 326 8 326 -4 q 315 63 326 37 q 286 108 304 89 l 66 287 l 193 420 q 85 513 123 468 q 46 593 46 559 q 85 686 46 647 q 179 726 125 726 q 299 663 239 726 q 359 540 359 601 q 306 414 359 486 q 159 260 254 340 l 312 127 q 386 53 360 87 q 412 -5 412 18 q 394 -58 412 -33 q 345 -98 376 -84 m 219 467 q 268 526 251 493 q 286 593 286 559 q 270 649 286 626 q 233 673 255 673 q 167 649 194 673 q 139 593 139 626 q 161 526 139 559 q 219 467 182 493 z "},"२":{"ha":451,"x_min":20,"x_max":418,"o":"m 359 -58 l 205 241 q 107 274 149 241 q 66 353 66 307 q 80 391 66 376 q 113 407 94 407 q 154 393 133 407 q 193 353 175 379 q 307 424 263 372 q 352 540 352 476 q 315 610 352 581 q 226 640 277 640 q 149 627 187 640 q 79 593 111 616 l 20 666 q 96 711 54 695 q 179 726 136 726 q 338 646 258 726 q 418 486 418 565 q 369 352 418 415 q 239 260 320 290 l 412 -39 l 359 -58 z "},"३":{"ha":451,"x_min":26,"x_max":425,"o":"m 325 -72 l 225 114 q 127 147 168 114 q 85 227 85 180 q 100 265 85 250 q 132 280 113 280 q 172 261 148 280 q 218 208 195 242 q 313 248 275 218 q 351 313 351 277 q 334 369 351 342 q 285 413 315 396 q 185 400 236 400 q 112 407 149 400 l 66 500 q 239 486 163 500 q 307 525 281 501 q 332 573 332 549 q 256 626 332 606 q 66 646 180 646 l 26 726 l 145 726 q 313 663 229 726 q 398 540 398 601 q 378 476 398 507 q 325 427 359 446 q 399 350 373 387 q 425 287 425 313 q 380 191 425 235 q 265 127 336 146 l 378 -39 l 325 -72 z "},"४":{"ha":622,"x_min":23,"x_max":594,"o":"m 335 47 q 215 100 267 47 q 162 220 162 153 q 190 282 162 243 q 269 374 217 321 l 23 633 l 76 673 l 302 400 l 528 666 l 594 619 l 342 353 q 440 250 406 300 q 475 161 475 199 q 433 81 475 114 q 335 47 392 47 m 289 108 q 378 129 340 108 q 415 180 415 150 q 391 239 415 203 q 322 320 367 275 q 243 238 271 277 q 216 168 216 198 q 237 125 216 142 q 289 108 258 108 z "},"५":{"ha":575,"x_min":31,"x_max":535,"o":"m 475 -65 l 369 274 q 313 239 342 252 q 256 228 284 228 q 97 303 163 228 q 31 487 31 379 q 43 620 31 559 q 83 726 57 681 l 163 653 q 112 550 130 613 q 94 407 94 487 q 126 332 94 363 q 203 300 158 300 q 263 316 233 300 q 323 361 294 331 q 308 376 313 366 q 302 400 302 387 q 318 443 302 426 q 356 460 333 460 q 408 437 387 460 q 429 380 429 414 q 418 328 429 353 q 389 288 408 303 l 535 -38 l 475 -65 z "},"६":{"ha":450,"x_min":24,"x_max":496,"o":"m 443 -45 l 363 127 q 228 146 296 116 q 160 186 194 161 q 58 354 58 262 q 75 410 58 382 q 124 460 92 439 q 51 529 77 487 q 24 620 24 572 q 81 694 24 663 q 217 726 137 726 q 301 723 264 726 q 363 713 338 720 l 390 633 q 270 646 340 646 q 157 623 203 646 q 111 566 111 600 q 127 518 111 540 q 170 487 144 496 q 283 500 220 500 q 302 494 273 500 q 343 487 317 491 l 370 407 q 243 420 294 420 q 163 389 197 420 q 130 314 130 357 q 168 229 130 264 q 257 194 205 194 q 282 197 269 194 q 310 208 295 201 q 296 254 296 235 q 316 287 296 273 q 363 300 335 300 q 414 272 386 300 q 443 221 443 243 q 432 176 443 197 q 403 141 422 155 l 496 -18 l 443 -45 z "},"७":{"ha":610,"x_min":28,"x_max":573,"o":"m 360 41 q 125 220 222 41 q 28 652 28 398 l 94 652 q 85 526 85 599 q 165 244 85 361 q 360 127 246 127 q 464 182 421 127 q 507 313 507 236 q 469 289 488 297 q 433 280 450 280 q 327 340 380 280 q 274 460 274 399 q 303 539 274 506 q 374 572 332 572 q 506 484 439 572 q 573 307 573 395 q 511 119 573 197 q 360 41 448 41 m 400 347 q 445 362 418 347 q 500 406 471 377 q 466 478 492 450 q 407 506 440 506 q 359 479 379 506 q 340 413 340 452 q 357 366 340 385 q 400 347 375 347 z "},"८":{"ha":451,"x_min":21,"x_max":500,"o":"m 260 24 q 113 96 194 24 q 21 237 33 167 q 28 260 21 247 q 47 290 35 275 l 367 703 l 433 643 l 147 283 q 123 240 132 264 q 114 191 114 216 q 151 120 114 149 q 241 91 189 91 q 332 127 279 91 q 440 231 384 164 l 500 178 q 376 64 439 104 q 260 24 314 25 z "},"९":{"ha":451,"x_min":18,"x_max":456,"o":"m 390 -45 l 304 22 q 348 49 332 35 q 363 75 363 62 q 357 109 363 92 q 337 141 351 125 l 111 380 q 42 482 66 433 q 18 566 18 530 q 68 680 18 633 q 191 726 119 726 q 315 666 252 726 q 377 547 377 606 q 321 450 377 496 q 178 380 265 404 l 404 155 q 443 104 429 129 q 456 61 456 80 q 439 1 456 29 q 390 -45 420 -28 m 124 447 q 250 510 201 467 q 297 600 297 553 q 276 637 297 623 q 224 653 254 653 q 130 612 170 653 q 91 513 91 570 q 100 483 91 500 q 124 447 109 465 z "},"॰":{"ha":430,"x_min":106,"x_max":360,"o":"m 360 624 q 323 534 360 571 q 233 497 286 497 q 143 534 180 497 q 106 624 106 571 q 144 713 106 677 q 233 751 180 751 q 323 713 286 751 q 360 624 360 677 m 295 624 q 277 667 295 650 q 233 686 259 686 q 190 667 208 686 q 172 624 172 650 q 190 581 172 598 q 233 562 208 562 q 277 581 259 562 q 295 624 295 598 z "},"ஂ":{"ha":0,"x_min":-424,"x_max":-226,"o":"m -226 956 q -254 884 -226 913 q -329 857 -281 857 q -401 884 -374 857 q -424 960 -424 911 q -395 1029 -424 1005 q -325 1055 -366 1055 q -250 1021 -279 1055 q -226 956 -226 993 z "},"ஃ":{"ha":1103,"x_min":11,"x_max":1019,"o":"m 785 874 q 712 696 785 774 q 571 625 644 625 q 473 669 517 625 q 424 797 424 719 q 481 970 424 892 q 640 1055 545 1055 q 740 1000 695 1055 q 785 874 785 945 m 1019 376 q 958 216 1019 297 q 807 135 897 135 q 684 193 726 135 q 658 307 658 241 q 717 475 658 404 q 871 548 775 548 q 976 497 933 548 q 1019 376 1019 446 m 363 380 q 318 222 363 296 q 154 135 260 135 q 47 185 84 135 q 11 307 11 235 q 74 481 11 406 q 219 556 136 556 q 307 517 264 556 q 363 380 363 468 m 667 831 q 644 903 667 873 q 584 933 623 933 q 517 893 541 933 q 493 810 493 857 q 529 726 493 757 q 571 702 548 709 q 633 741 600 702 q 667 831 667 781 m 889 328 q 867 406 889 376 q 808 435 844 435 q 749 385 783 435 q 716 317 716 334 q 742 243 716 282 q 794 203 768 203 q 862 243 834 203 q 889 328 889 283 m 237 332 q 222 406 237 376 q 163 435 206 435 q 91 359 117 435 l 83 332 q 80 311 83 317 q 110 233 80 267 q 149 203 135 203 q 214 250 180 203 q 237 332 237 293 z "},"அ":{"ha":1317,"x_min":-5,"x_max":1220,"o":"m 1220 658 l 1184 508 l 1133 262 l 1100 99 l 1088 41 l 1081 12 q 1000 -75 1060 -75 q 964 -71 973 -75 q 951 -55 956 -66 l 953 -40 q 977 80 953 -19 q 1002 201 1002 179 q 979 235 1002 224 q 926 245 957 245 q 811 183 885 245 q 648 66 713 102 q 378 3 522 3 q 117 62 230 3 q -5 231 -5 127 q 12 286 -5 267 q 56 304 29 304 l 779 304 q 829 380 811 337 q 848 469 848 422 q 821 564 848 524 q 745 624 795 606 l 749 570 l 754 530 q 722 425 754 477 q 599 366 679 366 q 494 416 540 366 q 452 516 452 467 q 512 640 452 588 q 698 702 583 702 q 883 640 814 702 q 953 469 953 577 l 940 401 q 918 322 929 341 l 930 309 l 972 306 q 1069 516 1032 306 q 1116 701 1089 644 l 1220 701 l 1220 658 m 642 533 q 631 575 642 551 q 599 624 620 599 l 551 572 q 529 511 529 543 q 541 468 529 480 q 572 452 552 456 q 621 476 600 452 q 642 533 642 501 m 702 218 l 676 235 l 151 235 q 114 226 130 235 l 83 201 q 195 106 120 139 q 336 80 270 80 q 520 109 442 80 q 702 218 599 138 z "},"ஆ":{"ha":1470,"x_min":14,"x_max":1390,"o":"m 1390 60 q 1274 -138 1390 -43 q 907 -254 1133 -254 l 858 -252 q 801 -245 830 -252 q 761 -237 775 -241 q 713 -222 746 -234 q 564 -95 564 -176 q 629 -15 564 -45 l 719 12 l 779 12 l 779 -90 q 680 -56 734 -56 q 633 -91 633 -56 q 695 -153 633 -120 q 890 -193 775 -193 q 1119 -139 1005 -193 q 1253 39 1253 -72 q 1227 114 1253 85 q 1162 143 1200 143 q 1082 71 1108 143 l 1038 -75 l 933 -75 l 933 -22 q 966 111 945 8 l 985 202 q 962 236 985 227 q 907 245 939 245 q 791 183 862 245 q 640 69 703 106 q 370 5 517 5 q 149 56 256 5 q 14 227 14 119 q 39 285 14 264 q 91 306 63 306 l 771 306 l 789 338 l 811 381 q 829 465 829 435 q 743 606 829 549 l 732 570 l 738 552 l 743 516 q 706 418 743 468 q 589 366 662 366 q 486 408 532 366 q 444 513 444 450 q 515 650 444 599 q 683 702 587 702 q 844 650 775 702 q 933 469 933 584 l 932 432 l 928 405 l 921 382 q 899 322 913 346 l 918 309 l 956 306 q 1046 456 1017 306 q 1097 701 1086 676 l 1200 701 l 1200 640 q 1151 420 1188 602 l 1107 184 l 1122 183 l 1148 187 q 1231 203 1214 203 q 1339 163 1289 203 q 1390 60 1390 121 m 633 520 q 625 562 633 543 q 581 615 615 583 q 512 512 512 562 q 541 461 512 490 l 559 452 q 605 472 577 452 q 633 520 633 493 m 692 219 l 668 237 l 117 237 q 98 210 109 220 l 91 203 q 189 111 91 150 q 330 83 266 83 q 527 120 428 83 q 692 219 606 151 z "},"இ":{"ha":1239,"x_min":3,"x_max":1159,"o":"m 1159 512 q 1114 216 1159 413 l 1004 -212 l 951 -212 l 951 -151 l 996 8 l 1020 110 l 1056 277 q 1088 494 1088 450 q 953 831 1088 692 q 610 969 818 969 q 269 810 412 969 q 132 473 132 658 l 138 413 q 144 359 142 373 q 155 322 153 334 q 223 184 184 184 q 361 227 281 208 q 490 245 441 245 q 559 242 545 245 q 606 234 577 242 l 684 210 q 757 285 712 210 q 787 417 787 349 q 758 545 787 492 q 668 632 728 599 l 672 592 l 675 547 q 647 416 675 465 q 520 347 610 347 q 441 376 486 347 q 382 490 382 417 q 458 652 382 585 q 628 719 533 719 q 798 646 727 719 q 881 417 881 563 q 855 274 881 336 l 795 168 q 852 111 795 159 q 909 -14 909 63 q 833 -163 909 -98 q 642 -229 757 -229 q 489 -194 552 -229 q 465 -184 488 -193 q 439 -176 442 -176 l 333 -212 q 206 -229 275 -229 q 57 -191 111 -229 q 3 -75 3 -153 q 45 64 3 12 l 140 154 q 87 304 111 219 q 63 490 63 389 l 64 541 l 73 606 q 103 703 81 651 q 270 936 157 848 q 624 1046 412 1046 q 826 1008 724 1046 q 1052 851 961 961 q 1159 512 1159 716 m 581 508 q 568 559 581 523 l 547 606 l 522 606 l 480 552 q 452 500 452 515 q 466 453 452 479 q 508 427 480 427 q 552 456 527 427 q 581 508 577 485 m 787 -31 q 750 54 787 26 l 728 63 l 692 19 q 631 -43 672 -5 q 581 -100 593 -80 l 616 -110 l 654 -116 q 745 -91 702 -116 q 787 -31 787 -66 m 614 116 l 610 128 l 607 140 l 591 140 q 568 143 580 140 l 533 151 l 500 158 l 448 159 q 378 157 389 159 q 336 149 365 157 q 271 106 297 140 l 380 0 q 444 -39 416 -32 q 562 51 464 -39 q 614 116 608 94 m 323 -117 q 246 -18 317 -94 l 176 63 q 106 14 143 63 q 72 -64 72 -43 q 104 -123 72 -103 q 184 -143 136 -143 q 259 -131 218 -143 l 323 -117 z "},"ஈ":{"ha":880,"x_min":-5,"x_max":777,"o":"m 716 427 q 696 369 716 388 q 644 350 677 350 q 593 370 623 350 q 570 422 570 391 q 592 473 570 452 l 608 486 q 640 496 620 494 q 690 475 663 496 q 716 427 716 456 m 777 698 q 768 654 777 665 q 739 640 760 643 q 699 647 719 640 l 663 655 l 635 661 q 570 633 597 661 q 520 512 537 597 q 460 212 473 256 q 425 135 448 164 l 330 135 l 416 607 q 396 644 408 636 q 357 652 384 652 l 325 651 l 288 650 q 168 640 179 650 q 128 516 157 633 l 88 297 q 39 135 63 179 l 4 135 l -5 161 l 56 453 l 103 663 q 159 719 120 719 l 770 719 q 777 698 772 702 m 330 427 q 304 372 330 394 q 254 350 277 350 q 205 374 229 350 q 184 422 189 399 q 205 471 184 446 q 258 496 226 496 q 313 473 290 496 q 330 427 330 456 z "},"உ":{"ha":1111,"x_min":-5,"x_max":1008,"o":"m 1008 187 l 1005 176 l 997 163 l 983 136 l 176 136 l 116 140 l 90 146 l 62 155 q -5 231 -5 180 q 31 288 -5 260 q 107 317 67 317 l 288 317 q 385 354 332 317 q 449 497 449 405 q 409 606 449 560 q 326 652 369 652 l 303 646 l 288 642 l 286 618 q 294 569 286 602 q 303 513 303 537 q 277 422 303 452 q 201 394 252 394 q 135 417 163 394 q 91 513 91 450 q 170 652 91 583 q 361 722 249 722 q 505 660 439 722 q 570 519 570 599 q 464 309 570 377 q 259 246 387 259 l 124 238 l 136 216 q 168 205 143 205 l 1000 205 l 1008 187 m 210 526 q 205 560 210 548 l 193 574 q 168 519 168 529 l 170 500 l 176 479 l 202 479 l 206 500 l 210 526 z "},"ஊ":{"ha":1602,"x_min":-5,"x_max":1503,"o":"m 1503 702 q 1469 654 1503 679 l 1426 632 q 1421 608 1422 628 l 1417 551 l 1400 476 l 1363 288 q 1303 262 1355 262 q 1254 270 1283 262 l 1322 620 q 1295 646 1305 640 q 1263 650 1291 650 q 1160 456 1181 650 q 1137 311 1160 358 q 1081 262 1116 262 l 1049 266 l 1029 270 l 1029 330 q 1050 409 1038 351 q 1063 494 1063 467 q 1016 611 1063 564 q 917 650 977 650 q 782 608 840 650 q 694 494 742 577 l 694 408 l 710 391 q 746 486 734 472 q 857 545 778 545 q 947 505 920 545 q 964 468 958 489 l 969 417 q 920 298 969 351 q 793 245 871 245 q 669 307 710 245 q 633 448 633 362 q 723 651 633 576 q 925 719 807 719 q 1025 694 983 719 q 1115 606 1067 669 q 1148 684 1136 631 q 1194 718 1155 718 l 1495 718 l 1503 702 m 1382 172 q 1371 147 1382 158 l 1358 132 l 910 134 l 501 138 l 125 140 q 37 165 83 140 q -5 235 -5 191 q 113 311 -5 311 l 134 311 l 151 311 l 168 311 q 266 317 227 311 q 333 329 313 321 q 452 498 452 362 q 439 570 452 543 q 366 640 425 597 l 289 640 l 278 624 l 296 592 l 310 547 l 314 512 q 279 426 314 461 q 197 391 245 391 q 121 427 153 391 q 91 520 91 465 q 174 661 91 603 q 358 719 256 719 q 507 661 441 719 q 572 520 572 604 q 446 297 572 361 l 117 235 l 117 202 l 1374 201 l 1382 172 m 865 405 q 857 442 865 433 l 831 460 q 793 398 815 441 l 787 382 q 793 361 787 370 l 814 330 q 833 343 829 340 q 854 359 838 347 q 865 405 865 373 m 211 503 l 211 571 l 182 552 q 168 529 170 540 l 172 505 l 176 485 q 194 476 183 485 l 211 503 z "},"எ":{"ha":1048,"x_min":-5,"x_max":950,"o":"m 950 694 q 936 658 950 667 q 898 647 922 650 l 870 648 l 841 650 q 808 642 818 650 q 782 578 798 633 q 763 468 766 473 q 724 286 741 362 q 702 198 706 210 q 676 132 691 151 l 581 132 l 581 184 l 675 621 l 659 640 q 625 650 650 650 l 314 650 q 153 578 238 650 q 55 401 55 497 q 63 337 55 366 q 99 279 72 309 l 140 425 q 283 520 174 520 q 368 479 319 520 q 416 357 416 428 q 359 198 416 264 q 227 132 303 132 q 62 216 131 132 q -5 405 -5 299 q 125 642 -5 548 q 332 719 234 719 l 943 719 q 950 694 946 698 m 289 328 q 282 384 289 369 q 245 399 275 399 q 198 355 220 399 l 184 322 q 176 288 176 302 q 183 250 176 262 l 202 219 q 262 258 243 239 q 289 328 289 285 z "},"ஏ":{"ha":1048,"x_min":3,"x_max":951,"o":"m 951 667 l 806 615 q 719 235 793 595 q 673 132 702 140 l 520 98 q 378 16 428 64 l 263 -91 l 254 -71 q 341 62 254 -12 q 508 170 401 109 l 599 219 l 642 425 l 675 611 q 668 642 675 631 l 659 650 l 323 650 q 148 566 233 650 q 63 401 63 481 q 76 332 63 372 l 83 313 l 99 288 l 125 370 l 155 453 q 275 512 195 512 q 380 466 334 512 q 427 353 427 420 q 357 193 427 266 q 223 132 293 132 q 60 219 135 132 q 3 405 3 292 q 140 646 3 553 q 349 719 249 719 l 935 719 l 943 713 l 951 709 l 951 667 m 297 328 q 285 376 297 358 q 249 399 273 394 q 205 358 233 399 q 184 288 184 317 q 191 248 184 266 l 202 219 q 266 250 258 242 q 297 328 297 275 z "},"ஐ":{"ha":1119,"x_min":14,"x_max":1027,"o":"m 1027 559 q 943 351 1027 439 q 736 262 859 262 l 297 262 q 170 194 223 262 q 124 85 124 138 q 169 -38 124 15 q 263 -91 214 -91 q 385 -8 342 -91 q 473 75 428 75 q 552 -20 519 75 q 676 -116 585 -116 q 800 -51 764 -116 q 827 76 827 -3 l 827 94 l 825 120 l 825 136 q 822 158 825 150 l 880 158 l 878 139 l 878 125 l 880 90 l 881 51 q 802 -138 881 -76 q 658 -176 747 -176 q 530 -150 574 -176 l 456 -91 l 427 -114 l 385 -139 q 262 -159 345 -159 q 80 -92 146 -159 q 14 83 14 -25 q 98 257 14 183 q 297 330 182 330 l 736 330 q 851 387 794 330 q 917 555 917 453 q 889 667 917 621 q 826 719 865 719 q 704 555 743 719 q 611 391 665 391 l 584 394 l 555 399 q 516 663 555 608 q 387 719 477 719 q 250 677 307 719 q 193 563 193 635 q 218 480 193 509 l 255 444 l 260 480 l 256 507 l 254 530 q 285 615 254 580 q 369 650 319 650 q 453 614 425 650 q 476 530 476 584 q 431 415 476 464 q 318 366 387 366 q 180 427 239 366 q 124 567 124 490 q 189 705 124 639 q 399 787 267 787 q 504 763 452 787 q 633 632 574 726 l 709 730 q 838 787 763 787 q 979 719 926 787 q 1027 559 1027 655 m 399 520 q 387 553 399 537 l 358 581 l 333 552 l 322 520 q 338 467 322 488 l 366 444 l 388 485 l 399 520 z "},"ஒ":{"ha":970,"x_min":-5,"x_max":873,"o":"m 873 457 q 816 306 873 374 q 688 237 759 237 q 589 282 623 237 l 537 374 l 513 342 l 512 311 q 581 182 512 216 q 724 158 628 158 l 755 158 l 787 159 q 795 143 795 151 q 692 98 795 98 q 537 22 595 98 l 461 -92 q 292 -157 413 -157 q 146 -124 212 -157 q 72 -11 72 -84 q 96 56 72 12 q 134 99 102 67 l 159 99 l 161 87 l 161 79 q 150 48 161 60 q 140 1 140 32 q 180 -71 140 -44 q 271 -96 226 -96 q 421 26 337 -96 q 493 155 493 131 l 468 211 q 444 311 444 267 q 475 416 444 366 q 589 512 508 467 l 624 512 l 625 496 l 620 457 l 614 414 q 624 351 614 372 q 679 314 640 314 q 731 342 706 314 q 751 431 751 372 q 643 632 751 541 q 421 710 544 710 q 165 627 275 710 q 55 431 55 544 q 63 375 55 399 q 107 314 72 351 l 125 314 q 156 475 125 418 q 271 532 187 532 q 365 493 325 532 q 399 401 399 454 q 340 263 399 322 q 211 203 281 203 q 55 273 116 203 q -5 439 -5 341 q 130 688 -5 592 q 429 779 256 779 q 738 684 603 779 q 873 457 873 588 m 286 372 q 239 427 286 427 q 203 405 222 427 q 193 354 193 382 q 227 289 193 289 q 260 309 241 289 q 286 372 286 334 z "},"ஓ":{"ha":970,"x_min":-5,"x_max":873,"o":"m 873 461 q 825 305 873 373 q 696 237 778 237 q 588 299 629 237 l 547 374 q 517 337 526 354 l 512 315 q 610 176 512 214 q 795 159 659 159 q 804 143 804 151 q 790 107 804 123 q 753 99 778 99 l 699 100 q 618 87 650 100 q 537 14 572 66 l 476 -83 q 288 -157 406 -157 q 147 -120 210 -157 q 80 -8 80 -77 q 114 80 80 41 q 206 119 149 119 q 299 83 269 119 q 322 5 322 52 l 318 -39 l 306 -73 q 330 -80 326 -76 q 414 1 380 -80 l 444 91 l 453 102 l 484 132 q 501 155 500 149 l 476 205 q 452 307 452 263 q 484 420 452 373 q 589 512 515 468 l 640 512 l 614 406 q 642 342 614 372 q 691 314 669 314 q 739 342 715 314 q 760 435 760 372 q 648 639 760 553 q 421 710 548 710 q 187 642 299 710 q 55 441 55 560 q 73 355 55 382 q 125 314 85 333 l 125 332 q 163 486 125 432 q 274 540 199 540 q 362 505 322 540 q 408 401 408 465 q 366 285 408 338 q 206 212 313 212 q 55 274 120 212 q -5 441 -5 337 q 110 671 -5 564 q 438 779 239 779 q 734 701 606 779 q 873 461 873 611 m 297 376 q 282 413 297 394 q 245 435 269 435 q 210 405 234 435 q 193 358 193 376 q 203 310 193 336 l 219 279 l 248 300 l 273 319 q 297 376 297 342 m 262 -3 q 252 36 262 20 q 206 58 237 58 q 162 37 183 58 q 140 -3 140 15 l 157 -41 q 210 -80 179 -80 q 246 -56 231 -80 q 262 -3 262 -33 z "},"ஔ":{"ha":2315,"x_min":-5,"x_max":2132,"o":"m 2132 710 q 2115 652 2125 663 q 2080 639 2105 646 l 2052 642 l 2029 646 q 1976 617 2000 646 q 1927 479 1952 589 l 1882 241 l 1872 190 l 1858 135 l 1747 135 l 1747 186 l 1788 376 q 1832 564 1825 556 l 1832 642 l 1686 642 q 1644 501 1671 618 l 1603 277 q 1593 224 1597 242 q 1582 178 1590 206 q 1567 135 1575 150 l 1453 135 l 1476 250 q 1506 457 1506 428 q 1451 600 1506 540 q 1312 661 1397 661 q 1116 567 1200 661 q 1040 388 1040 479 q 1055 309 1040 334 l 1093 264 l 1111 264 l 1109 293 q 1131 413 1109 369 q 1255 488 1167 488 q 1327 457 1287 488 q 1385 337 1385 413 q 1343 206 1385 269 q 1200 135 1291 135 q 1038 217 1105 135 q 972 380 972 299 q 1044 584 972 485 q 1312 719 1143 719 q 1478 675 1417 719 q 1583 564 1504 656 q 1598 596 1588 574 q 1615 643 1607 618 q 1623 686 1619 671 q 1634 710 1627 701 l 2132 710 m 1263 337 q 1249 381 1263 366 l 1222 401 l 1192 370 q 1170 299 1170 345 q 1175 269 1170 283 l 1188 238 l 1214 238 l 1243 275 q 1263 337 1263 309 m 873 461 q 825 305 873 373 q 696 237 778 237 q 588 299 629 237 l 547 374 q 517 337 526 354 l 512 315 q 610 176 512 214 q 795 159 659 159 q 804 143 804 151 q 790 107 804 123 q 753 99 778 99 l 699 100 q 618 87 650 100 q 537 14 572 66 l 476 -83 q 288 -157 406 -157 q 147 -120 210 -157 q 80 -8 80 -77 q 114 80 80 41 q 206 119 149 119 q 299 83 269 119 q 322 5 322 52 l 318 -39 l 306 -73 q 330 -80 326 -76 q 414 1 380 -80 l 444 91 l 453 102 l 484 132 q 501 155 500 149 l 476 205 q 452 307 452 263 q 484 420 452 373 q 589 512 515 468 l 640 512 l 614 406 q 642 342 614 372 q 691 314 669 314 q 739 342 715 314 q 760 435 760 372 q 648 639 760 553 q 421 710 548 710 q 187 642 299 710 q 55 441 55 560 q 73 355 55 382 q 125 314 85 333 l 125 332 q 163 486 125 432 q 274 540 199 540 q 362 505 322 540 q 408 401 408 465 q 366 285 408 338 q 206 212 313 212 q 55 274 120 212 q -5 441 -5 337 q 110 671 -5 564 q 438 779 239 779 q 734 701 606 779 q 873 461 873 611 m 297 376 q 282 413 297 394 q 245 435 269 435 q 210 405 234 435 q 193 358 193 376 q 203 310 193 336 l 219 279 l 248 300 l 273 319 q 297 376 297 342 m 262 -3 q 252 36 262 20 q 206 58 237 58 q 162 37 183 58 q 140 -3 140 15 l 157 -41 q 210 -80 179 -80 q 246 -56 231 -80 q 262 -3 262 -33 z "},"க":{"ha":817,"x_min":-5,"x_max":715,"o":"m 715 677 q 672 652 695 661 l 652 648 q 628 646 633 648 l 588 650 l 556 654 l 541 648 q 515 602 533 644 q 493 498 493 536 q 603 450 493 473 q 713 314 713 425 q 662 189 713 239 q 526 138 611 138 q 467 146 504 138 l 458 172 q 547 202 522 189 q 603 310 603 231 q 574 380 603 355 q 516 397 553 397 q 441 267 496 397 q 231 138 387 138 q 79 189 151 138 q -5 326 -5 248 q 76 445 -5 408 l 176 480 q 193 547 183 492 q 235 720 214 680 l 715 720 l 715 677 m 397 624 l 394 631 l 389 643 l 333 652 q 264 580 299 652 l 250 538 q 242 490 242 509 l 254 484 l 271 477 l 317 473 q 379 514 362 473 q 397 624 397 555 m 338 326 l 338 397 l 191 397 q 140 393 161 397 q 99 377 119 388 q 63 328 63 358 q 123 246 63 288 q 219 215 174 215 q 306 250 283 215 q 338 326 314 264 z "},"ங":{"ha":1048,"x_min":-5,"x_max":943,"o":"m 943 709 q 859 252 886 357 q 814 132 842 190 l 220 132 l 210 155 q 361 205 210 184 q 512 362 512 226 q 486 404 512 376 q 448 435 463 431 q 384 384 406 435 l 349 288 l 245 288 l 237 314 l 266 433 l 289 551 l 306 640 l 260 651 l 237 650 q 130 548 158 650 l 100 330 q 39 132 84 190 l 4 132 l -3 147 l -5 164 l 22 300 l 81 567 q 125 719 114 703 l 581 719 l 581 667 l 553 654 l 524 643 l 481 637 l 444 643 q 421 600 431 643 l 401 494 l 437 497 l 486 503 q 580 479 547 503 q 625 370 625 448 q 583 263 625 314 l 556 231 l 538 201 l 710 201 q 768 406 743 263 q 808 620 801 607 q 882 719 836 719 q 926 716 921 719 l 943 709 z "},"ச":{"ha":809,"x_min":-5,"x_max":707,"o":"m 707 690 l 683 680 l 604 656 q 501 497 501 632 q 513 467 501 481 q 549 458 526 458 l 580 460 q 610 463 603 460 q 644 456 632 463 q 655 428 655 449 q 650 404 655 409 q 621 391 644 398 l 593 394 l 560 397 q 504 378 527 397 q 459 294 475 355 q 385 190 444 233 q 311 149 349 165 q 231 135 266 135 q 60 199 134 135 q -5 325 -5 258 q 77 439 -5 402 q 167 484 159 475 q 175 532 171 492 l 184 599 q 216 703 201 686 q 300 722 230 722 l 365 720 l 454 719 l 527 719 l 593 720 q 685 715 667 720 q 707 690 703 710 m 391 608 q 334 650 391 650 q 256 610 273 650 q 227 479 248 551 l 304 471 l 357 469 q 382 562 366 492 l 391 608 m 349 358 l 349 384 l 134 384 q 89 363 106 384 q 72 313 72 341 q 132 241 72 275 q 227 212 186 212 q 311 259 281 212 l 349 358 z "},"ஜ":{"ha":1127,"x_min":-5,"x_max":1027,"o":"m 1027 479 q 933 274 1027 363 q 751 194 845 194 l 306 194 q 163 123 233 194 q 107 9 107 59 q 143 -80 107 -25 q 235 -149 187 -149 q 374 -77 289 -149 l 538 60 q 705 135 636 135 q 844 91 783 135 q 914 -50 914 39 q 859 -180 914 -138 q 738 -210 818 -210 l 702 -208 q 687 -208 694 -208 q 661 -202 669 -203 l 580 -191 l 570 -165 q 600 -140 570 -140 l 635 -144 l 673 -149 q 773 -115 726 -149 q 821 -36 821 -81 q 778 39 821 4 q 701 75 735 75 q 534 1 624 75 l 387 -135 q 235 -210 300 -210 q 65 -138 136 -210 q -5 24 -5 -67 q 120 206 -5 147 q 399 255 224 255 l 718 255 q 837 303 781 255 q 914 497 914 369 q 895 591 914 548 q 825 650 870 650 q 718 556 763 650 l 648 323 l 552 323 l 548 358 l 551 399 l 553 463 q 511 596 553 541 q 382 658 463 658 q 250 615 314 658 q 176 493 176 566 q 194 421 176 452 q 245 374 212 395 l 246 399 l 248 425 q 260 529 248 500 q 361 581 283 581 q 445 541 417 581 q 468 453 468 507 q 408 332 468 382 q 304 289 353 289 q 172 353 235 289 q 116 497 116 409 q 197 657 116 596 q 389 719 279 719 q 555 655 486 719 l 632 564 l 705 661 q 829 719 759 719 q 984 644 926 719 q 1027 479 1027 576 m 391 449 q 380 494 391 479 q 351 512 370 512 q 325 485 338 512 l 314 449 l 315 416 l 325 398 l 349 374 l 372 395 q 391 449 391 417 z "},"ஞ":{"ha":1334,"x_min":11,"x_max":1242,"o":"m 1242 676 q 1199 651 1221 659 l 1180 647 l 1159 644 l 1120 648 l 1086 652 q 1037 632 1057 652 q 993 538 1020 612 l 993 477 l 1012 477 l 1037 480 q 1140 448 1103 480 q 1198 273 1198 398 q 1002 -99 1198 50 q 584 -234 823 -234 q 165 -50 333 -234 q 11 332 11 121 q 87 568 11 427 q 215 710 163 710 q 233 703 226 710 q 245 676 241 695 q 134 519 183 602 q 80 329 80 425 q 229 -18 80 130 q 584 -165 378 -165 q 926 -51 783 -165 q 1080 256 1080 69 q 1067 353 1080 309 q 1005 410 1048 410 q 936 259 966 410 q 907 135 924 164 l 804 135 l 795 151 l 889 607 l 881 633 l 873 650 l 571 650 q 367 565 456 650 q 278 388 278 480 q 284 325 278 345 q 322 263 290 306 l 357 395 q 503 496 402 496 q 602 454 564 496 q 639 346 639 412 q 593 208 639 273 q 438 135 537 135 q 304 190 369 135 q 218 389 218 263 q 355 637 218 541 q 589 719 472 719 l 1242 719 l 1242 676 m 520 323 q 507 370 520 346 q 472 394 494 394 q 417 342 444 394 q 399 281 404 309 l 417 220 l 477 252 q 503 274 496 263 q 520 323 520 296 z "},"ட":{"ha":1111,"x_min":22,"x_max":1017,"o":"m 1017 195 l 1017 182 l 1008 136 l 22 136 l 22 205 l 58 349 l 106 580 q 142 720 131 706 l 245 720 l 254 702 l 149 223 l 174 203 q 202 195 186 195 l 1017 195 z "},"ண":{"ha":1730,"x_min":3,"x_max":1630,"o":"m 1630 667 l 1597 651 l 1571 647 l 1548 650 l 1531 652 l 1517 650 q 1454 485 1485 637 q 1379 134 1413 245 l 1268 134 l 1268 178 q 1305 326 1276 194 q 1363 612 1363 591 q 1350 642 1363 633 q 1315 650 1337 650 l 1301 650 l 1215 633 q 1129 591 1129 612 q 1183 488 1156 552 q 1208 341 1208 422 q 1166 191 1208 246 q 1049 135 1123 135 q 937 189 984 135 q 889 328 889 243 q 895 387 889 357 q 913 448 901 418 q 984 564 937 505 q 935 611 969 588 l 893 628 l 846 633 q 781 625 804 633 q 727 589 757 615 l 767 523 l 795 465 q 821 332 821 404 q 781 195 821 248 q 661 135 736 135 q 546 193 591 135 q 501 328 501 252 q 553 522 501 417 l 581 572 q 480 624 543 603 q 385 642 413 642 q 172 572 270 642 q 63 384 63 497 q 75 311 63 337 q 134 237 87 283 l 151 408 q 288 496 176 496 q 388 446 349 496 q 416 340 416 404 q 347 187 416 248 q 219 135 286 135 q 87 187 147 135 q 3 388 3 259 q 119 624 3 529 q 391 719 234 719 q 541 698 460 719 l 671 650 l 713 672 l 770 698 q 867 719 823 719 q 976 698 920 719 l 1088 650 l 1148 680 q 1259 710 1221 710 l 1630 710 l 1630 667 m 1088 340 l 1086 385 q 1076 420 1086 399 q 1063 454 1072 439 l 1037 496 l 1019 496 q 973 401 990 446 l 962 366 l 958 337 q 975 272 958 307 q 1023 237 993 237 q 1065 255 1048 237 q 1088 340 1088 285 m 699 340 q 694 412 699 384 q 672 464 688 439 l 640 504 q 588 424 612 476 q 570 340 570 370 q 587 271 570 306 q 640 237 603 237 q 683 270 663 237 q 699 340 699 303 m 297 337 q 278 378 297 359 q 245 402 267 395 q 216 368 233 402 l 205 337 l 201 311 q 203 270 201 275 l 229 220 q 278 271 264 252 q 297 337 297 302 z "},"த":{"ha":888,"x_min":3,"x_max":785,"o":"m 785 288 q 673 91 785 186 q 458 8 570 8 l 201 8 q 140 -4 164 8 q 124 -44 124 -16 l 128 -79 l 132 -111 q 121 -140 132 -127 q 77 -154 109 -154 q 26 -143 41 -154 q 3 -76 3 -127 q 48 12 3 -28 q 94 41 72 32 q 142 51 116 51 l 389 51 q 578 121 492 51 q 663 279 663 191 q 636 365 663 336 q 570 394 608 394 q 529 341 537 394 q 476 215 516 264 q 394 159 457 187 q 282 138 328 138 q 121 190 194 138 q 47 326 47 242 q 129 435 47 406 q 219 497 211 465 l 256 686 q 304 720 264 720 l 742 720 l 754 712 q 766 690 760 710 q 752 657 766 667 q 712 648 739 648 l 677 650 l 661 650 q 643 652 651 650 q 602 642 616 652 q 578 597 588 632 l 570 549 l 562 523 l 562 454 q 719 410 652 454 q 785 288 785 365 m 457 623 l 450 643 l 330 643 l 310 589 l 294 524 l 288 471 q 351 463 317 463 q 435 508 404 463 q 452 555 446 529 l 457 623 m 399 361 q 379 377 399 368 q 330 387 359 387 l 303 385 l 278 385 q 172 377 210 385 q 116 317 116 362 q 175 245 116 288 q 282 206 241 206 q 368 269 322 206 q 399 361 399 319 z "},"ந":{"ha":801,"x_min":3,"x_max":688,"o":"m 688 310 q 563 84 688 183 q 381 9 464 9 l 184 9 q 136 -3 155 9 q 123 -41 123 -16 l 125 -72 l 128 -102 q 115 -137 128 -123 q 69 -151 102 -151 q 14 -127 37 -151 l 5 -106 l 3 -75 q 146 50 3 29 l 428 91 q 578 289 578 136 q 551 349 578 315 q 488 388 519 388 q 398 262 427 388 q 363 139 385 175 l 270 139 l 262 165 l 355 614 l 349 643 q 286 652 338 652 l 256 652 l 226 646 q 201 627 212 643 l 183 515 l 165 420 l 138 270 q 76 140 114 140 q 55 149 63 140 q 47 170 47 157 l 72 302 q 123 556 104 493 q 167 720 151 698 l 688 720 l 688 686 q 651 655 679 671 q 627 650 635 651 q 600 648 618 648 l 560 650 l 517 655 q 501 652 504 655 q 471 602 480 640 q 449 515 456 527 l 449 464 l 488 464 l 526 465 q 647 442 618 465 q 688 310 688 410 z "},"ன":{"ha":1317,"x_min":3,"x_max":1228,"o":"m 1228 692 q 1221 659 1228 668 q 1198 647 1217 651 l 1158 651 q 1128 643 1144 651 l 1105 608 l 1095 577 l 1086 541 l 1072 450 l 1055 357 q 996 132 1013 161 l 892 132 l 892 175 l 987 632 l 940 643 l 899 650 q 802 629 861 650 q 743 585 745 607 q 797 486 771 547 q 823 345 823 425 q 779 198 823 264 q 663 132 735 132 q 572 167 616 132 q 504 330 504 220 q 530 458 504 406 l 589 555 q 513 610 589 580 q 382 633 454 633 q 165 558 259 633 q 72 365 72 484 l 73 328 q 83 294 73 315 q 134 235 92 273 l 136 256 q 134 285 136 279 l 132 304 q 176 408 132 363 q 306 460 226 460 q 401 417 368 460 q 427 322 427 376 q 353 179 427 241 q 227 132 289 132 q 70 205 136 132 q 3 361 3 279 q 134 620 3 513 q 417 719 256 719 q 600 680 509 719 l 680 642 q 786 691 715 665 q 943 718 858 718 l 1220 718 l 1228 692 m 702 349 l 698 394 q 642 494 683 468 l 591 393 l 572 338 q 593 275 572 317 q 612 246 603 256 q 637 237 623 237 q 683 279 662 237 q 702 349 702 326 m 322 306 q 299 355 322 328 l 285 368 l 270 374 q 233 337 258 374 q 218 311 223 322 q 210 283 214 300 l 211 270 l 220 242 l 229 218 l 283 245 q 322 306 322 271 z "},"ப":{"ha":954,"x_min":3,"x_max":846,"o":"m 846 668 l 718 135 l 12 135 l 3 161 l 64 461 l 94 611 q 175 719 123 719 q 214 717 208 719 q 237 690 219 715 l 140 234 l 144 218 l 159 194 l 606 194 q 668 387 646 243 l 703 610 q 790 719 731 719 q 830 716 823 719 l 846 710 l 846 668 z "},"ம":{"ha":1016,"x_min":-5,"x_max":906,"o":"m 906 394 q 867 231 906 309 q 743 135 819 135 l 12 135 l -5 170 l 107 719 l 219 719 l 219 650 l 184 504 l 132 246 q 147 206 132 222 q 184 194 163 194 l 365 194 q 453 328 431 194 l 494 576 q 648 710 536 710 q 830 620 751 710 q 886 519 866 578 q 906 394 906 461 m 837 397 q 825 500 837 454 q 785 580 812 547 q 695 633 743 633 q 593 442 648 633 q 553 238 553 279 q 571 211 553 223 q 620 203 589 203 l 652 203 q 783 238 739 203 q 837 397 837 282 z "},"ய":{"ha":983,"x_min":11,"x_max":886,"o":"m 886 694 l 881 650 l 880 632 l 870 584 l 829 402 l 778 175 q 734 136 767 136 l 99 136 q 39 182 75 136 q 11 294 11 229 q 52 505 11 315 q 107 719 94 695 l 202 719 l 210 694 l 132 313 q 157 249 144 266 q 184 231 170 237 q 264 334 229 231 l 304 548 q 357 719 328 682 l 442 719 l 442 659 l 355 239 q 388 203 362 220 l 418 197 l 450 194 l 481 194 l 515 195 l 556 194 l 595 194 q 682 252 665 194 q 751 591 706 405 l 767 691 q 827 719 775 719 q 866 714 850 719 q 886 694 882 709 z "},"ர":{"ha":776,"x_min":22,"x_max":673,"o":"m 673 668 l 642 652 l 614 648 l 587 651 q 562 651 570 655 q 529 541 551 644 l 468 238 l 456 175 q 435 128 448 143 l 175 19 q 22 -36 64 -24 l 22 -9 q 172 77 69 31 q 357 248 328 147 l 399 456 l 432 625 q 376 654 432 654 l 347 652 l 317 652 l 219 651 q 183 524 210 646 l 143 296 q 99 136 120 167 l 64 136 l 55 163 l 69 245 l 134 556 l 161 694 q 267 720 175 720 l 345 719 l 416 719 l 673 719 l 673 668 z "},"ற":{"ha":867,"x_min":3,"x_max":757,"o":"m 757 444 q 683 172 757 278 q 450 35 608 64 l 351 20 l 289 16 l 258 18 l 227 19 l 190 16 q 157 -1 170 14 q 146 -45 146 -19 l 147 -76 l 149 -106 q 136 -146 149 -130 q 85 -163 124 -163 q 18 -123 40 -163 l 7 -98 l 3 -72 q 153 60 3 43 l 389 77 q 580 213 512 110 q 647 444 647 315 q 616 581 647 520 q 517 652 581 652 q 414 553 448 652 l 374 345 q 321 164 354 218 l 227 164 l 227 215 l 269 408 l 303 602 q 286 650 303 631 q 243 669 269 669 q 158 556 195 669 l 116 330 q 64 164 92 194 l 39 164 l 33 186 l 31 208 q 109 571 31 365 q 260 738 171 738 q 333 709 293 738 q 384 677 366 684 l 441 707 q 552 738 509 738 q 697 650 637 738 q 757 444 757 562 z "},"ல":{"ha":1086,"x_min":-5,"x_max":983,"o":"m 983 509 q 913 264 983 376 q 675 135 827 135 q 534 179 574 135 q 501 277 501 215 q 515 362 501 315 l 536 445 l 545 492 q 481 600 545 549 q 340 650 418 650 q 151 572 248 650 q 55 397 55 494 l 59 359 q 64 336 60 351 q 75 311 69 322 q 134 229 95 259 l 134 245 l 132 274 q 157 404 132 347 q 288 479 195 479 q 391 437 350 479 q 432 333 432 395 q 370 194 432 256 q 302 150 340 165 q 215 135 264 135 q 50 220 110 135 q -5 401 -5 296 q 104 617 -5 524 q 373 710 214 710 q 582 648 489 710 q 675 497 675 585 q 644 372 675 467 l 633 336 l 627 313 l 614 281 q 646 229 614 256 q 709 203 679 203 q 772 216 742 203 q 834 264 801 229 q 914 467 914 341 q 845 608 914 545 q 812 686 812 637 q 827 722 812 706 q 863 738 841 736 q 949 672 907 738 q 983 509 983 599 m 306 323 q 297 377 306 365 q 266 394 289 389 q 222 362 245 394 q 201 307 201 330 q 216 258 201 281 l 245 220 l 285 245 q 306 323 306 266 z "},"ள":{"ha":1255,"x_min":-5,"x_max":1155,"o":"m 1155 710 q 1137 652 1148 663 q 1103 639 1128 646 l 1075 642 l 1052 646 q 999 617 1023 646 q 950 479 975 589 l 905 241 l 895 190 l 881 135 l 770 135 l 770 186 l 811 376 q 855 564 848 556 l 855 642 l 709 642 q 667 501 694 618 l 625 277 q 616 224 620 242 q 605 178 612 206 q 589 135 597 150 l 476 135 l 498 250 q 529 457 529 428 q 474 600 529 540 q 334 661 420 661 q 139 567 223 661 q 63 388 63 479 q 77 309 63 334 l 116 264 l 134 264 l 132 293 q 154 413 132 369 q 278 488 190 488 q 350 457 310 488 q 408 337 408 413 q 366 206 408 269 q 223 135 314 135 q 61 217 128 135 q -5 380 -5 299 q 67 584 -5 485 q 334 719 165 719 q 501 675 439 719 q 606 564 527 656 q 621 596 611 574 q 637 643 629 618 q 646 686 642 671 q 656 710 650 701 l 1155 710 m 286 337 q 271 381 286 366 l 245 401 l 215 370 q 193 299 193 345 q 198 269 193 283 l 211 238 l 237 238 l 266 275 q 286 337 286 309 z "},"ழ":{"ha":1065,"x_min":11,"x_max":956,"o":"m 956 389 q 950 313 956 345 q 928 248 945 281 q 827 153 903 190 l 778 139 l 720 135 l 682 135 l 647 136 l 627 136 l 599 131 q 578 102 578 127 q 648 54 578 69 l 726 51 l 726 7 l 690 -7 l 648 -12 q 596 -18 607 -12 q 429 -181 522 -111 q 231 -250 337 -250 q 78 -200 144 -250 q 11 -69 11 -150 q 45 27 11 -15 q 111 69 79 69 q 145 54 134 69 q 157 20 157 39 q 132 -33 157 -3 q 107 -95 107 -63 q 155 -168 107 -140 q 191 -184 178 -180 l 223 -190 q 399 -88 314 -190 q 468 20 468 -7 q 451 79 468 35 q 425 136 433 124 l 47 136 l 47 187 l 60 239 l 83 329 l 142 608 l 153 687 q 215 722 164 722 q 237 719 231 722 l 270 710 l 270 668 l 184 256 l 184 205 l 460 205 q 509 403 485 254 q 564 612 534 552 q 722 710 614 710 q 891 621 827 710 q 956 389 956 532 m 886 389 q 844 557 886 489 q 742 625 802 625 q 680 580 701 625 l 604 222 l 644 210 l 686 206 q 826 241 778 206 q 886 389 886 285 z "},"வ":{"ha":1160,"x_min":-5,"x_max":1063,"o":"m 1063 680 l 953 132 l 427 132 q 527 279 490 208 q 564 413 564 351 q 490 578 564 508 q 416 632 453 614 l 385 643 q 363 648 370 647 q 340 650 357 650 q 138 553 222 650 q 63 378 63 468 l 64 342 l 73 306 q 107 252 81 279 l 144 394 q 267 460 174 460 q 354 428 318 460 q 399 322 399 391 q 349 186 399 241 q 215 132 299 132 q 51 219 121 132 q -5 382 -5 294 q 113 628 -5 517 q 358 719 211 719 q 564 652 473 719 q 675 417 675 570 l 675 381 l 668 342 q 651 290 667 326 l 616 210 l 669 191 l 690 191 l 728 193 l 810 190 q 823 193 819 190 q 893 437 844 205 q 943 701 943 668 l 1056 701 l 1063 680 m 281 314 q 252 366 281 341 q 233 374 239 374 q 202 346 222 374 q 184 300 187 318 q 197 256 184 285 q 224 229 210 233 q 273 286 243 229 l 281 314 z "},"ஷ":{"ha":1342,"x_min":14,"x_max":1236,"o":"m 1236 454 q 1200 260 1219 393 q 1064 128 1183 128 q 920 -14 935 128 q 840 -155 906 -155 q 796 -151 810 -155 q 779 -127 783 -147 l 801 -31 l 823 85 l 819 104 l 806 128 l 427 136 q 492 233 431 154 q 529 369 529 285 q 484 541 529 454 q 421 611 458 585 q 340 637 384 637 q 146 545 229 637 q 72 361 72 460 q 90 281 72 303 l 125 258 q 165 416 125 370 q 271 456 198 456 q 370 414 333 456 q 408 310 408 372 q 345 179 408 242 q 237 128 285 128 q 100 179 165 128 q 14 374 14 248 q 121 612 14 507 q 349 706 223 706 q 581 571 493 706 q 650 357 650 465 q 647 330 650 336 l 639 294 l 616 214 l 650 199 l 676 195 l 701 195 l 732 197 l 778 194 q 842 215 814 194 q 876 318 876 243 q 789 387 831 341 q 746 507 746 433 q 801 647 746 588 q 918 706 857 706 q 1012 662 984 706 q 1028 618 1023 642 q 1034 562 1034 596 l 1029 492 l 1021 412 l 1042 404 q 1160 469 1080 404 q 1236 533 1208 513 l 1236 454 m 917 560 q 908 590 917 574 q 878 610 899 606 q 836 571 858 610 q 815 512 819 534 q 829 458 815 479 q 884 420 844 437 l 892 468 l 907 524 l 917 560 m 1082 334 l 1013 334 l 1001 299 l 994 271 q 988 227 989 241 q 987 205 987 214 l 1017 197 q 1072 274 1059 197 l 1082 334 m 306 304 q 294 340 306 329 q 255 351 283 351 q 195 319 214 351 q 184 271 184 300 q 198 224 184 242 l 212 214 q 277 243 241 214 q 306 304 306 269 z "},"ஸ":{"ha":1358,"x_min":3,"x_max":1242,"o":"m 1242 543 q 1177 278 1242 391 q 970 135 1099 135 q 821 192 882 135 q 760 323 760 249 l 786 433 l 806 519 l 812 568 q 800 606 812 580 q 772 633 787 632 q 679 524 724 633 l 656 445 l 627 303 q 581 134 602 167 l 486 134 q 481 154 486 150 l 476 164 q 511 338 476 191 l 522 401 l 529 453 q 469 591 529 532 q 336 650 410 650 q 144 567 227 650 q 84 481 104 526 q 63 388 63 438 q 79 319 63 354 q 107 271 84 302 l 139 418 q 267 479 164 479 q 368 439 328 479 q 408 337 408 399 q 349 197 408 259 q 223 135 290 135 q 65 212 128 135 q 3 393 3 288 q 123 635 3 532 q 345 719 227 719 q 508 659 439 719 l 606 538 l 669 640 q 802 710 723 710 q 888 668 850 710 q 922 560 922 625 q 906 450 922 522 q 889 328 889 377 q 913 240 889 277 q 979 203 936 203 q 1097 264 1037 203 q 1164 441 1164 336 q 1128 573 1164 490 q 1088 686 1092 656 q 1107 730 1088 706 q 1148 754 1126 754 q 1204 706 1173 754 q 1242 543 1242 644 m 286 337 q 277 375 286 362 q 245 394 269 388 q 202 361 226 394 q 193 336 197 347 q 184 307 190 326 q 211 237 184 273 l 255 271 q 286 337 286 300 z "},"ஹ":{"ha":1643,"x_min":22,"x_max":1528,"o":"m 1528 448 q 1392 116 1528 263 q 1123 -14 1267 -14 l 186 -14 q 147 -29 163 -14 l 134 -48 l 158 -84 l 168 -107 q 134 -157 168 -147 l 98 -159 q 41 -144 56 -159 q 22 -60 22 -123 q 55 18 22 -19 q 134 55 88 55 l 1123 55 q 1318 175 1223 55 q 1423 488 1423 309 q 1381 618 1423 576 q 1308 642 1353 642 q 1166 536 1217 642 q 1113 321 1140 476 q 1063 132 1086 167 l 960 132 l 960 193 q 1012 410 965 208 l 1046 585 q 1029 618 1046 602 q 994 642 1012 635 q 907 536 940 642 q 867 322 890 476 q 822 132 842 168 l 461 132 q 452 147 453 140 q 522 259 492 189 l 533 289 l 547 340 q 553 383 552 365 q 553 413 553 402 q 495 565 553 497 q 349 633 437 633 q 162 554 241 633 q 83 366 83 475 l 84 345 l 94 317 q 125 262 106 282 l 157 381 q 296 460 186 460 q 394 416 354 460 q 427 323 427 378 q 372 188 427 243 q 239 132 317 132 q 85 211 149 132 q 22 384 22 289 q 127 620 22 520 q 365 719 233 719 q 556 647 468 719 q 667 409 667 557 q 654 303 667 363 l 642 254 l 633 229 l 624 211 l 658 195 l 692 193 q 808 326 779 193 l 851 576 q 998 710 888 710 q 1088 665 1044 710 l 1123 615 l 1164 654 l 1206 684 q 1308 710 1258 710 q 1473 631 1411 710 q 1528 448 1528 555 m 306 318 q 292 355 306 338 q 258 374 279 370 q 222 345 239 374 q 210 296 210 315 q 220 243 210 260 l 237 227 q 285 263 270 243 q 306 318 306 288 z "},"ா":{"ha":764,"x_min":3,"x_max":663,"o":"m 663 669 l 625 651 l 591 647 l 570 648 l 552 650 q 508 618 527 650 q 467 464 492 587 q 425 283 463 429 l 412 222 l 389 138 l 286 138 l 380 624 l 373 651 l 176 651 q 120 475 155 623 q 47 138 58 155 l 12 138 l 3 161 l 116 712 l 663 712 l 663 669 z "},"ி":{"ha":399,"x_min":-358,"x_max":237,"o":"m -134 618 l -227 646 l -274 662 q -358 821 -358 699 q -294 992 -358 908 q -47 1108 -208 1108 q 149 1028 73 1108 q 237 826 212 960 l 99 153 l 56 153 l 47 178 l 168 786 q 107 932 168 870 q -60 998 43 998 q -210 955 -136 998 q -297 829 -297 904 q -264 746 -297 791 q -178 695 -226 695 l -163 695 q -144 698 -150 695 l -107 729 l -134 618 z "},"ீ":{"ha":269,"x_min":-239,"x_max":250,"o":"m 174 1015 l 170 1053 q 157 1072 161 1063 l 131 1072 l 98 1017 l 92 1002 l 88 989 q 103 961 88 977 q 130 945 119 945 q 161 965 142 945 q 174 1015 174 986 m -84 642 q -206 716 -165 669 q -239 833 -239 760 q -155 1064 -239 962 q 62 1176 -64 1176 q 197 1115 136 1176 q 250 993 250 1059 q 218 899 250 947 q 139 859 184 859 q 54 888 99 859 q 11 975 11 922 q 28 1045 11 1008 l 54 1107 l 1 1107 q -125 1003 -79 1069 q -171 845 -171 936 q -158 753 -171 790 q -123 732 -154 741 l -71 726 l -63 713 q -73 669 -63 698 l -84 642 z "},"ு":{"ha":582,"x_min":-211,"x_max":416,"o":"m 334 670 l 334 711 l 252 711 l 231 648 l 223 623 q 224 618 224 620 q 239 591 230 606 l 264 573 q 314 609 297 573 q 334 670 321 640 m 239 762 l 248 764 l 264 764 l 299 760 l 326 760 l 357 762 l 384 760 l 398 764 l 416 764 l 416 734 l 359 558 q 241 490 315 490 q 166 521 191 490 q 140 601 140 553 l 142 629 q 151 657 142 638 l 151 705 l -161 705 q -195 712 -183 705 q -211 737 -206 720 l -208 747 l -203 760 l 165 760 l 175 756 l 239 762 z "},"ூ":{"ha":679,"x_min":-211,"x_max":629,"o":"m 629 663 q 535 408 629 523 q 306 293 441 293 q 87 405 178 293 q 7 615 7 505 q 11 640 7 632 l 29 647 q 62 584 50 647 q 109 467 76 520 q 296 355 179 355 q 467 440 394 355 q 540 652 540 526 q 494 788 540 727 q 369 849 448 849 q 298 833 329 849 q 235 778 267 818 l 264 767 l 299 764 l 326 764 l 357 766 l 384 764 q 416 758 401 764 l 416 738 l 359 562 q 241 493 315 493 q 166 524 191 493 q 140 604 140 556 l 142 632 q 151 661 142 642 l 151 709 l -161 709 q -195 715 -183 709 q -211 741 -206 723 l -208 750 l -203 764 l 165 764 q 281 880 231 853 q 397 906 330 906 q 566 836 503 906 q 629 663 629 767 m 334 673 l 334 714 l 252 714 l 231 651 l 223 626 q 224 622 224 623 q 239 595 230 610 l 264 576 q 314 612 297 576 q 334 673 321 643 z "},"ெ":{"ha":999,"x_min":-5,"x_max":878,"o":"m 878 715 l 873 668 l 867 628 l 855 563 l 834 450 q 817 362 826 391 l 798 288 q 734 109 762 134 l 699 109 l 699 161 q 759 397 712 191 l 790 559 q 798 612 795 592 q 801 651 801 633 q 743 863 801 762 q 523 985 669 985 q 195 841 340 985 q 63 519 63 702 q 245 222 63 317 l 286 222 l 250 322 l 245 384 q 294 516 245 460 q 416 572 342 572 q 512 530 461 572 q 587 342 587 468 q 509 159 587 223 q 330 102 439 102 q 77 243 174 102 q -5 513 -5 366 q 151 921 -5 743 q 509 1099 309 1099 q 786 989 688 1099 q 878 715 878 884 m 493 381 q 465 456 493 424 q 398 488 441 488 q 337 453 368 488 q 314 376 314 418 q 330 296 314 332 q 391 222 347 260 q 473 315 448 269 q 493 381 493 351 z "},"ே":{"ha":884,"x_min":11,"x_max":829,"o":"m 829 841 q 795 745 829 798 q 651 677 747 677 q 555 713 596 677 q 501 831 501 757 l 505 877 l 511 899 l 522 933 q 553 985 530 956 l 536 1004 q 520 1012 527 1012 l 501 1010 l 476 1010 q 180 873 309 1010 q 72 595 72 747 q 170 333 72 457 q 424 195 278 195 q 457 202 446 195 l 476 214 l 452 283 q 432 389 432 354 q 490 526 432 460 q 625 592 548 592 q 735 548 687 592 q 785 450 785 507 q 695 242 785 333 q 428 138 593 138 q 136 271 260 138 q 11 591 11 404 q 124 905 11 766 q 489 1071 262 1071 q 720 1012 623 1071 q 829 841 829 945 m 716 844 q 687 914 716 877 q 639 953 661 953 q 588 899 620 953 l 570 844 q 616 774 570 802 l 639 763 q 691 791 658 763 q 716 844 716 821 m 647 399 q 627 460 647 433 q 578 488 607 488 q 530 449 549 488 q 509 385 509 410 q 536 293 509 328 l 562 273 q 614 314 574 273 q 647 399 647 355 z "},"ை":{"ha":1230,"x_min":3,"x_max":1120,"o":"m 1120 432 q 1084 273 1120 354 q 983 143 1055 215 l 949 143 l 949 195 q 991 288 966 223 q 1008 416 1008 346 q 960 572 1008 508 q 845 642 914 642 l 789 628 q 732 583 732 608 q 760 538 745 566 q 786 476 774 509 q 812 341 812 406 q 781 215 812 270 q 640 135 734 135 q 551 171 595 135 q 493 307 493 220 q 527 439 493 378 l 597 564 l 591 572 l 568 595 q 381 642 490 642 q 153 551 256 642 q 63 368 63 468 q 88 288 63 333 q 125 246 104 263 l 124 286 q 159 402 124 354 q 283 463 203 463 q 391 417 358 463 q 416 329 416 384 q 357 193 416 250 q 215 135 299 135 q 149 149 168 139 q 3 372 3 201 q 111 604 3 504 q 408 710 229 710 q 587 692 516 710 l 687 650 q 727 680 707 671 q 859 710 791 710 q 1046 635 970 710 q 1120 432 1120 559 m 707 350 q 690 439 707 398 q 648 496 673 479 l 588 393 q 562 313 564 336 q 584 258 562 279 q 623 239 595 248 q 682 275 655 239 q 707 350 707 311 m 314 303 q 292 349 314 328 q 254 369 271 369 q 223 341 242 369 l 201 299 l 208 277 l 219 230 l 237 223 q 279 242 255 223 q 314 303 314 269 z "},"ொ":{"ha":1756,"x_min":-5,"x_max":1624,"o":"m 1624 669 l 1586 651 l 1552 647 l 1531 648 l 1513 650 q 1469 618 1488 650 q 1428 464 1453 587 q 1386 283 1423 429 l 1373 222 l 1350 138 l 1247 138 l 1341 624 l 1334 651 l 1137 651 q 1081 475 1116 623 q 1008 138 1019 155 l 973 138 l 964 161 l 1077 712 l 1624 712 l 1624 669 m 878 715 l 873 668 l 867 628 l 855 563 l 834 450 q 817 362 826 391 l 798 288 q 734 109 762 134 l 699 109 l 699 161 q 759 397 712 191 l 790 559 q 798 612 795 592 q 801 651 801 633 q 743 863 801 762 q 523 985 669 985 q 195 841 340 985 q 63 519 63 702 q 245 222 63 317 l 286 222 l 250 322 l 245 384 q 294 516 245 460 q 416 572 342 572 q 512 530 461 572 q 587 342 587 468 q 509 159 587 223 q 330 102 439 102 q 77 243 174 102 q -5 513 -5 366 q 151 921 -5 743 q 509 1099 309 1099 q 786 989 688 1099 q 878 715 878 884 m 493 381 q 465 456 493 424 q 398 488 441 488 q 337 453 368 488 q 314 376 314 418 q 330 296 314 332 q 391 222 347 260 q 473 315 448 269 q 493 381 493 351 z "},"ோ":{"ha":1772,"x_min":11,"x_max":1624,"o":"m 1624 669 l 1586 651 l 1552 647 l 1531 648 l 1513 650 q 1469 618 1488 650 q 1428 464 1453 587 q 1386 283 1423 429 l 1373 222 l 1350 138 l 1247 138 l 1341 624 l 1334 651 l 1137 651 q 1081 475 1116 623 q 1008 138 1019 155 l 973 138 l 964 161 l 1077 712 l 1624 712 l 1624 669 m 829 841 q 795 745 829 798 q 651 677 747 677 q 555 713 596 677 q 501 831 501 757 l 505 877 l 511 899 l 522 933 q 553 985 530 956 l 536 1004 q 520 1012 527 1012 l 501 1010 l 476 1010 q 180 873 309 1010 q 72 595 72 747 q 170 333 72 457 q 424 195 278 195 q 457 202 446 195 l 476 214 l 452 283 q 432 389 432 354 q 490 526 432 460 q 625 592 548 592 q 735 548 687 592 q 785 450 785 507 q 695 242 785 333 q 428 138 593 138 q 136 271 260 138 q 11 591 11 404 q 124 905 11 766 q 489 1071 262 1071 q 720 1012 623 1071 q 829 841 829 945 m 716 844 q 687 914 716 877 q 639 953 661 953 q 588 899 620 953 l 570 844 q 616 774 570 802 l 639 763 q 691 791 658 763 q 716 844 716 821 m 647 399 q 627 460 647 433 q 578 488 607 488 q 530 449 549 488 q 509 385 509 410 q 536 293 509 328 l 562 273 q 614 314 574 273 q 647 399 647 355 z "},"ௌ":{"ha":2297,"x_min":-5,"x_max":2126,"o":"m 2126 710 q 2108 652 2119 663 q 2074 639 2099 646 l 2046 642 l 2023 646 q 1970 617 1994 646 q 1921 479 1946 589 l 1876 241 l 1866 190 l 1852 135 l 1741 135 l 1741 186 l 1782 376 q 1826 564 1819 556 l 1826 642 l 1680 642 q 1638 501 1665 618 l 1596 277 q 1587 224 1591 242 q 1576 178 1584 206 q 1560 135 1569 150 l 1447 135 l 1470 250 q 1500 457 1500 428 q 1445 600 1500 540 q 1305 661 1391 661 q 1110 567 1194 661 q 1034 388 1034 479 q 1048 309 1034 334 l 1087 264 l 1105 264 l 1103 293 q 1125 413 1103 369 q 1249 488 1161 488 q 1321 457 1281 488 q 1379 337 1379 413 q 1337 206 1379 269 q 1194 135 1285 135 q 1032 217 1099 135 q 966 380 966 299 q 1038 584 966 485 q 1305 719 1137 719 q 1472 675 1411 719 q 1577 564 1498 656 q 1592 596 1582 574 q 1609 643 1600 618 q 1617 686 1613 671 q 1628 710 1621 701 l 2126 710 m 1257 337 q 1242 381 1257 366 l 1216 401 l 1186 370 q 1164 299 1164 345 q 1169 269 1164 283 l 1182 238 l 1208 238 l 1237 275 q 1257 337 1257 309 m 878 715 l 873 668 l 867 628 l 855 563 l 834 450 q 817 362 826 391 l 798 288 q 734 109 762 134 l 699 109 l 699 161 q 759 397 712 191 l 790 559 q 798 612 795 592 q 801 651 801 633 q 743 863 801 762 q 523 985 669 985 q 195 841 340 985 q 63 519 63 702 q 245 222 63 317 l 286 222 l 250 322 l 245 384 q 294 516 245 460 q 416 572 342 572 q 512 530 461 572 q 587 342 587 468 q 509 159 587 223 q 330 102 439 102 q 77 243 174 102 q -5 513 -5 366 q 151 921 -5 743 q 509 1099 309 1099 q 786 989 688 1099 q 878 715 878 884 m 493 381 q 465 456 493 424 q 398 488 441 488 q 337 453 368 488 q 314 376 314 418 q 330 296 314 332 q 391 222 347 260 q 473 315 448 269 q 493 381 493 351 z "},"்":{"ha":0,"x_min":-427,"x_max":-227,"o":"m -227 964 q -255 892 -227 921 q -332 864 -283 864 q -404 892 -378 864 q -427 968 -427 920 q -398 1039 -427 1014 q -328 1064 -369 1064 q -252 1031 -281 1064 q -227 964 -227 1002 z "},"ௗ":{"ha":1255,"x_min":-5,"x_max":1155,"o":"m 1155 710 q 1137 652 1148 663 q 1103 639 1128 646 l 1075 642 l 1052 646 q 999 617 1023 646 q 950 479 975 589 l 905 241 l 895 190 l 881 135 l 770 135 l 770 186 l 811 376 q 855 564 848 556 l 855 642 l 709 642 q 667 501 694 618 l 625 277 q 616 224 620 242 q 605 178 612 206 q 589 135 597 150 l 476 135 l 498 250 q 529 457 529 428 q 474 600 529 540 q 334 661 420 661 q 139 567 223 661 q 63 388 63 479 q 77 309 63 334 l 116 264 l 134 264 l 132 293 q 154 413 132 369 q 278 488 190 488 q 350 457 310 488 q 408 337 408 413 q 366 206 408 269 q 223 135 314 135 q 61 217 128 135 q -5 380 -5 299 q 67 584 -5 485 q 334 719 165 719 q 501 675 439 719 q 606 564 527 656 q 621 596 611 574 q 637 643 629 618 q 646 686 642 671 q 656 710 650 701 l 1155 710 m 286 337 q 271 381 286 366 l 245 401 l 215 370 q 193 299 193 345 q 198 269 193 283 l 211 238 l 237 238 l 266 275 q 286 337 286 309 z "},"௧":{"ha":1107,"x_min":22,"x_max":958,"o":"m 958 728 q 902 695 932 705 l 877 690 q 845 687 852 690 l 793 692 l 751 698 l 732 690 q 698 629 724 686 l 677 557 q 669 496 669 522 q 812 434 669 465 q 956 255 956 404 q 889 92 956 163 q 841 56 861 63 q 800 49 822 50 q 767 48 779 48 l 750 44 l 732 48 l 722 81 q 745 94 741 85 l 735 102 l 739 110 q 812 250 812 147 q 775 341 812 309 q 701 362 747 362 q 602 194 672 362 q 329 26 532 26 q 131 92 230 26 q 22 271 22 170 q 128 425 22 378 l 258 472 q 279 557 266 484 q 334 783 304 731 l 958 783 l 958 728 m 544 658 l 541 667 l 536 683 l 463 695 q 373 600 417 695 l 351 534 l 345 485 l 358 475 l 381 468 l 441 463 q 522 513 496 463 q 544 658 544 568 m 469 271 l 469 362 l 278 362 q 159 338 208 362 q 111 273 111 314 q 189 168 111 216 q 314 127 254 127 q 427 174 397 127 q 469 271 435 182 z "},"௨":{"ha":1503,"x_min":41,"x_max":1359,"o":"m 1359 128 l 1355 114 l 1345 96 l 1327 62 l 278 62 l 229 62 l 193 67 l 164 73 l 130 87 q 41 186 41 120 q 90 258 41 219 q 189 296 138 296 l 422 296 q 549 345 480 296 q 632 532 632 410 q 580 673 632 612 q 472 734 527 734 l 442 724 l 422 719 l 346 688 q 338 682 340 684 q 325 656 332 673 q 311 607 314 631 l 311 599 l 314 592 q 337 563 323 574 l 368 545 l 416 513 q 444 486 433 505 q 454 449 449 473 q 414 418 454 418 l 357 422 q 317 442 336 427 q 265 490 288 463 q 227 559 242 517 l 219 595 l 215 629 q 227 683 215 659 q 269 735 239 706 q 378 797 313 771 q 517 823 445 823 q 705 743 621 823 q 790 559 790 663 q 652 285 790 377 q 385 205 556 223 l 210 194 l 226 165 q 267 151 235 151 l 1348 151 l 1359 128 z "},"௩":{"ha":1365,"x_min":14,"x_max":1183,"o":"m 1180 51 l 307 52 l 293 83 q 490 146 293 117 q 687 351 687 176 q 654 405 687 368 q 603 446 621 442 q 520 380 549 446 l 473 255 l 338 255 l 329 288 l 366 445 l 377 507 l 397 596 l 418 713 l 359 727 l 329 726 q 189 592 226 726 l 151 310 q 71 52 131 127 l 26 52 l 16 72 l 14 94 l 50 270 l 127 618 q 183 815 171 794 l 777 815 l 777 746 l 741 731 l 702 716 l 647 709 l 597 716 q 568 661 581 716 l 541 523 l 588 526 l 652 534 q 774 503 730 534 q 833 362 833 464 q 778 222 833 289 l 743 180 l 720 142 l 1183 142 l 1180 51 z "},"௪":{"ha":1138,"x_min":22,"x_max":1009,"o":"m 556 648 l 537 574 l 530 517 q 494 497 526 505 l 463 492 l 422 490 l 370 492 l 322 501 l 349 633 l 368 726 l 556 726 l 556 648 m 501 369 q 450 222 501 294 q 389 172 429 190 l 358 161 q 339 157 349 158 q 318 154 330 155 q 194 195 273 154 q 98 300 98 250 q 131 358 98 321 q 189 389 165 385 l 490 389 q 501 369 490 380 m 993 621 l 989 642 l 983 661 q 954 673 983 669 l 920 676 l 884 675 l 869 673 l 873 620 l 881 560 l 888 530 q 867 481 888 498 l 837 479 l 786 477 l 770 477 l 724 477 l 692 479 q 637 524 637 479 q 676 696 637 624 l 691 715 l 716 738 l 772 739 q 837 735 789 735 l 865 735 l 885 735 l 902 738 q 924 753 922 742 l 924 829 l 841 827 l 346 827 q 282 751 304 827 l 270 707 l 260 656 l 250 600 l 246 536 q 205 492 238 515 l 161 472 l 124 460 q 22 300 22 431 q 123 130 22 201 q 328 64 219 64 q 469 109 420 64 q 551 237 504 138 l 599 361 q 627 401 611 397 l 680 402 l 727 404 q 774 399 763 404 l 960 399 l 1000 399 l 1006 414 l 1009 457 l 1009 480 l 1008 500 q 1001 513 1002 508 l 1000 544 l 998 581 q 993 621 998 600 z "},"௫":{"ha":1291,"x_min":20,"x_max":1181,"o":"m 1181 347 q 1012 -39 1181 138 q 581 -216 842 -216 q 180 -37 351 -216 q 20 341 20 134 q 81 661 20 453 q 216 976 147 902 q 338 1096 266 1037 q 526 1200 444 1181 l 587 1207 l 658 1210 q 886 1185 786 1210 q 996 1123 985 1159 q 964 1059 1000 1086 l 914 1029 l 808 1076 q 599 1125 683 1125 l 551 1120 q 357 1005 460 1100 q 293 939 321 972 q 246 877 266 907 q 151 602 212 818 l 107 427 q 92 328 92 358 q 262 -15 92 138 q 564 -144 412 -144 q 910 16 766 -144 q 1038 332 1038 161 l 1038 363 l 1031 389 q 1027 409 1031 401 l 1013 437 q 935 500 981 500 q 844 365 874 500 l 798 154 l 676 154 l 676 216 q 742 498 688 241 l 787 724 q 768 762 787 746 q 720 770 751 770 l 687 770 q 532 441 583 770 q 456 154 503 231 l 414 154 l 408 165 l 404 191 l 457 439 l 505 675 q 555 817 526 777 q 650 852 588 852 l 762 844 l 858 841 l 1181 841 l 1181 800 l 1132 763 l 1081 753 q 1027 762 1060 753 l 979 767 q 949 762 961 767 q 889 568 924 745 q 1099 538 1042 568 q 1181 347 1181 494 z "},"௬":{"ha":1417,"x_min":18,"x_max":1272,"o":"m 532 646 l 532 723 l 363 723 l 345 631 l 318 498 l 368 490 l 418 488 q 505 515 493 488 l 507 549 q 516 592 507 562 l 532 646 m 476 366 q 465 387 471 373 l 184 387 q 127 355 167 387 l 107 333 q 94 297 95 318 q 190 193 94 248 q 314 151 269 151 q 425 219 380 151 q 476 366 476 290 m 1021 408 l 990 397 l 972 393 l 958 387 q 909 239 928 362 q 855 62 890 117 l 734 62 l 734 151 l 762 248 l 771 300 l 777 337 q 760 383 777 373 q 732 395 742 394 l 705 398 q 597 230 673 398 q 323 62 520 62 q 119 127 214 62 q 18 297 18 195 q 118 454 18 425 q 242 533 218 484 l 242 556 l 248 602 l 259 668 l 266 709 l 278 749 q 341 825 299 825 l 935 825 l 958 802 l 966 786 q 949 748 966 766 q 873 731 932 731 l 819 732 q 768 736 785 732 l 745 735 l 718 710 l 705 694 q 676 616 686 658 l 669 572 l 667 522 q 722 476 667 476 l 1001 476 l 1203 476 l 1231 477 q 1265 471 1257 477 q 1272 449 1272 464 q 1253 410 1272 421 l 1231 405 l 1217 404 l 1206 405 q 1181 391 1191 405 q 1152 318 1172 377 l 1152 302 l 1141 259 q 1125 174 1129 208 l 1115 116 q 1101 79 1111 92 l 1002 79 l 997 92 l 1090 391 q 1085 393 1088 393 q 1042 405 1061 401 l 1021 408 z "},"௭":{"ha":1227,"x_min":8,"x_max":1126,"o":"m 1126 751 q 1109 709 1126 726 q 1065 698 1092 698 l 1034 699 l 998 701 q 963 694 972 701 q 929 616 954 687 q 907 489 910 496 l 862 282 l 836 172 q 806 95 827 121 l 695 95 l 695 155 l 804 667 l 786 690 q 746 701 778 701 l 381 701 q 193 616 294 701 q 80 409 80 520 q 88 335 80 363 q 131 267 96 307 l 179 439 q 347 549 216 549 q 445 501 393 549 q 501 358 501 442 q 435 173 501 250 q 281 95 369 95 q 87 192 167 95 q 8 414 8 289 q 161 691 8 580 q 402 782 289 782 l 1119 782 q 1126 751 1119 759 m 353 323 l 353 345 q 346 387 353 374 q 302 408 337 408 q 246 355 274 408 l 230 317 l 220 278 q 229 234 220 255 l 252 197 q 321 241 300 222 q 353 323 353 275 z "},"௮":{"ha":1541,"x_min":-5,"x_max":1428,"o":"m 1428 770 l 1410 692 l 1385 595 l 1326 306 l 1319 259 l 1311 223 q 1310 198 1310 211 q 1303 184 1305 189 l 1287 117 q 1265 15 1272 35 q 1171 -87 1240 -87 q 1123 -81 1136 -87 l 1112 -64 l 1115 -47 q 1143 98 1115 -5 q 1172 235 1172 202 q 1146 273 1172 260 q 1084 286 1120 286 q 949 215 1038 286 q 759 77 840 121 q 444 4 615 4 q 138 73 263 4 q -5 270 -5 147 q 12 337 -5 315 q 66 355 35 355 l 911 355 q 970 446 945 393 l 987 497 l 993 549 q 960 661 993 611 q 871 730 936 702 l 850 731 l 818 732 l 760 728 q 715 715 738 728 q 671 691 677 698 q 642 656 650 679 q 633 618 633 635 q 659 553 633 589 l 701 503 q 727 458 726 475 q 701 445 727 445 l 661 446 q 624 453 642 446 q 578 488 604 457 l 541 545 q 527 604 527 580 q 600 749 527 688 q 817 822 680 822 q 1032 748 950 822 q 1115 549 1115 675 l 1100 468 q 1074 377 1088 401 l 1089 361 l 1137 358 q 1251 604 1206 358 q 1306 821 1275 759 l 1428 821 l 1428 770 m 822 254 l 790 275 l 178 275 q 134 264 150 275 l 96 235 q 229 124 140 165 q 264 111 246 117 q 307 100 282 106 l 359 92 l 393 92 q 608 130 513 92 q 822 254 688 157 z "},"௯":{"ha":1266,"x_min":-1,"x_max":1128,"o":"m 845 229 q 834 286 845 275 l 818 328 l 810 347 q 798 366 806 355 q 742 429 766 433 q 719 409 732 424 q 715 374 715 398 l 715 325 l 713 304 l 713 286 l 713 250 q 716 222 713 229 l 720 198 l 736 175 q 774 151 753 158 q 825 177 806 151 q 845 229 845 202 m 463 770 q 450 798 463 790 l 429 808 l 402 810 l 388 810 q 310 775 326 810 l 303 643 l 303 620 q 303 602 303 610 q 300 585 300 589 q 293 545 300 563 l 273 464 l 310 449 l 329 445 l 351 444 q 429 475 406 444 q 453 595 441 488 q 454 639 453 610 q 460 710 456 668 l 463 770 m 404 313 l 404 353 l 321 353 l 294 353 l 275 353 l 254 357 l 161 353 l 138 347 l 109 333 q 80 282 80 313 q 142 191 80 241 l 201 161 q 256 151 235 151 q 366 214 334 151 l 404 313 m 1029 256 l 1032 311 l 1037 373 q 1025 433 1037 421 q 945 508 1005 472 l 863 508 l 859 496 l 854 481 l 884 401 l 917 313 q 935 233 935 270 q 892 111 935 163 q 786 60 850 60 q 665 111 703 60 q 636 223 636 151 l 637 259 l 646 303 l 640 395 l 623 409 l 600 416 q 574 361 592 416 q 552 288 562 307 q 473 147 515 189 q 273 71 404 71 q 111 104 180 71 q -1 282 -1 161 q 125 427 -1 377 q 201 494 183 444 l 242 865 q 303 898 259 898 l 807 898 l 837 878 q 794 823 825 845 q 766 817 781 819 q 735 814 750 814 q 632 798 651 814 q 599 696 612 786 q 589 612 593 659 q 585 527 585 564 q 603 515 585 515 q 643 522 621 515 l 726 544 l 812 556 l 858 564 l 989 567 q 1095 448 1050 567 q 1128 230 1128 349 q 1119 154 1128 186 q 1097 124 1114 125 q 1046 183 1068 124 q 1029 256 1029 229 z "},"௰":{"ha":1277,"x_min":87,"x_max":1109,"o":"m 846 1017 l 918 964 q 993 874 949 936 q 1064 742 1028 827 q 1105 603 1109 631 q 1093 526 1105 588 l 1045 314 l 985 47 q 933 3 970 3 l 191 3 q 120 56 164 3 q 95 115 103 84 q 87 187 87 146 l 99 260 l 135 433 q 199 684 184 658 l 311 684 l 321 654 l 230 208 q 259 135 245 157 q 290 113 271 123 q 384 234 341 113 l 431 484 q 493 684 456 635 l 592 684 l 592 614 l 490 123 q 530 81 498 99 l 563 73 l 602 71 l 639 71 l 677 72 l 726 71 l 771 71 q 873 138 848 71 q 886 231 878 182 q 905 325 895 279 q 954 534 920 412 l 954 559 l 951 593 q 897 801 939 730 q 747 924 874 840 q 682 990 698 957 l 679 1005 q 696 1043 679 1024 q 736 1061 713 1061 l 777 1057 q 810 1041 793 1053 l 846 1017 z "},"௱":{"ha":1466,"x_min":73,"x_max":1348,"o":"m 154 48 q 95 222 128 76 q 73 420 73 340 l 77 519 q 82 558 79 536 q 95 614 85 581 q 139 741 116 707 q 281 808 183 808 q 497 750 414 808 q 633 607 533 728 q 675 709 656 639 l 683 753 q 699 797 687 774 l 1348 797 q 1326 725 1339 738 q 1279 703 1314 712 l 1243 707 l 1213 713 q 1146 676 1179 713 q 1081 496 1114 639 l 1021 187 l 1009 120 l 1002 87 l 998 62 l 991 48 l 846 48 l 846 116 l 901 361 q 957 607 949 596 l 957 707 l 768 707 q 712 524 749 682 l 658 233 l 633 114 q 611 48 621 63 l 465 48 l 494 199 q 533 468 533 435 q 461 652 533 571 q 281 732 389 732 q 229 710 246 732 q 215 650 215 686 l 219 596 l 223 548 l 231 457 l 259 267 l 273 172 q 279 121 277 140 q 294 40 282 100 l 250 36 l 199 35 l 178 35 q 157 37 163 35 q 154 48 153 39 z "},"௲":{"ha":1175,"x_min":31,"x_max":1053,"o":"m 545 745 q 472 798 545 798 q 370 746 395 798 l 354 665 l 332 577 l 432 566 l 500 564 q 534 684 511 589 l 545 745 m 490 420 l 490 453 l 211 453 q 178 446 189 453 q 151 424 165 442 q 130 361 130 394 q 210 267 130 317 q 332 230 278 230 q 442 290 402 230 l 490 420 m 850 269 q 840 278 845 277 l 818 283 l 801 283 l 786 283 q 728 277 749 283 q 702 245 702 273 q 732 210 702 238 q 789 189 764 189 q 837 219 808 189 l 845 245 l 850 269 m 947 410 l 939 368 l 937 358 l 935 355 l 935 321 q 976 314 961 321 q 1016 296 997 310 q 1053 231 1053 267 q 993 128 1053 176 q 884 87 943 87 l 746 87 q 722 82 731 87 q 707 59 712 77 l 707 40 l 710 22 l 709 12 l 706 9 q 682 0 701 4 l 654 4 q 646 41 646 20 q 669 88 646 71 q 718 110 686 104 l 845 110 q 945 146 905 110 q 987 227 987 180 q 973 273 987 255 q 939 285 958 285 q 917 259 922 285 q 889 191 913 224 l 871 178 l 845 165 l 814 155 l 789 151 q 707 176 751 151 q 669 254 669 202 q 707 310 669 289 l 775 326 l 791 326 l 825 322 q 865 342 850 322 l 880 376 q 881 405 884 385 q 844 450 877 428 l 827 460 l 766 469 q 692 446 722 469 q 635 338 655 417 q 538 201 615 259 q 442 147 488 165 l 384 132 l 337 130 q 219 149 267 130 q 167 174 197 155 q 149 186 154 182 q 116 214 132 198 q 31 376 31 286 q 128 523 31 473 q 254 583 239 568 l 258 603 l 264 644 l 277 732 q 317 870 297 848 q 427 892 337 892 l 511 889 l 628 888 l 723 888 l 808 889 q 928 882 910 889 q 957 851 957 878 l 924 840 l 822 810 q 688 600 688 777 q 705 560 688 581 q 750 549 720 549 l 790 552 l 807 552 l 830 555 l 869 555 l 920 556 q 977 552 969 556 l 979 547 l 984 532 l 985 511 l 985 480 l 973 472 l 947 469 l 917 469 l 903 468 l 922 442 q 947 410 947 417 z "},"ఁ":{"ha":531,"x_min":5,"x_max":490,"o":"m 336 666 l 389 678 l 391 678 q 405 663 396 678 q 408 653 408 657 q 407 648 408 650 l 407 648 l 407 648 q 406 648 407 648 q 274 604 395 648 q 195 557 231 587 q 134 485 158 526 q 87 319 87 402 q 90 277 87 298 q 184 127 105 172 q 319 87 252 87 q 349 90 334 87 q 467 163 431 100 l 490 150 q 326 14 431 48 q 242 0 283 -1 q 129 31 182 0 q 11 209 33 86 q 5 269 5 239 q 57 450 5 361 q 182 595 108 538 q 336 666 254 650 z "},"ం":{"ha":561,"x_min":41,"x_max":597,"o":"m 41 290 q 122 505 41 415 q 319 594 203 594 q 515 505 434 594 q 597 290 597 415 q 521 70 597 153 q 319 -14 446 -14 q 117 70 192 -14 q 41 290 41 153 l 41 290 m 119 351 q 178 216 119 271 q 319 160 235 160 q 460 216 402 160 q 518 351 518 271 q 460 487 518 431 q 319 542 402 542 q 178 487 235 542 q 119 351 119 431 l 119 351 z "},"ః":{"ha":285,"x_min":15,"x_max":254,"o":"m 15 107 q 50 191 15 157 q 134 227 85 227 q 218 191 184 227 q 254 107 254 157 q 218 23 254 58 q 134 -12 184 -12 q 50 23 85 -12 q 15 107 15 58 l 15 107 m 15 376 q 50 460 15 425 q 134 495 85 495 q 218 460 184 495 q 254 376 254 425 q 218 292 254 326 q 134 256 184 256 q 50 292 85 256 q 15 376 15 326 l 15 376 m 75 376 q 92 333 75 351 q 134 316 109 316 q 177 333 159 316 q 194 376 194 351 q 177 418 194 401 q 134 435 159 435 q 92 418 109 435 q 75 376 75 401 l 75 376 m 75 107 q 92 64 75 82 q 134 47 109 47 q 177 64 159 47 q 194 107 194 82 q 177 150 194 132 q 134 167 159 167 q 92 150 109 167 q 75 107 75 132 l 75 107 z "},"అ":{"ha":951,"x_min":43,"x_max":831,"o":"m 271 385 q 157 446 203 385 q 232 249 157 323 q 429 175 307 175 q 639 246 560 175 q 718 437 718 318 q 682 524 718 488 q 595 559 646 559 q 552 541 570 559 q 534 498 534 523 q 554 456 534 474 q 604 437 574 437 q 639 446 616 437 q 673 454 661 454 q 686 444 681 454 q 691 420 691 433 q 666 395 691 406 q 604 385 640 385 q 464 323 570 385 q 402 297 418 297 q 384 305 392 297 q 376 323 376 313 q 408 374 376 348 q 490 420 439 400 q 464 498 464 441 q 502 578 464 545 q 595 612 541 612 q 762 532 693 612 q 831 341 831 453 q 721 94 831 187 q 429 0 610 0 q 149 94 254 0 q 43 341 43 187 q 111 532 43 453 q 271 612 177 612 q 370 578 329 612 q 411 498 411 545 q 370 418 411 451 q 271 385 329 385 m 220 456 q 271 437 245 437 q 333 456 308 437 q 359 498 359 474 q 333 541 359 523 q 271 559 308 559 q 215 545 241 559 q 175 507 189 532 q 220 456 194 474 z "},"ఆ":{"ha":906,"x_min":59,"x_max":812,"o":"m 59 332 q 121 530 59 448 q 269 612 182 612 q 374 576 330 612 q 418 490 418 541 q 374 403 418 439 q 269 367 330 367 q 210 383 239 367 q 155 429 180 399 q 237 243 155 320 q 435 166 320 166 q 621 201 544 166 q 698 288 698 237 q 683 332 698 313 q 646 358 668 351 q 427 279 475 279 q 402 293 412 279 q 392 323 392 306 q 593 402 392 329 q 536 437 558 408 q 514 507 514 467 q 555 581 514 551 q 654 612 596 612 q 768 583 726 612 q 812 507 812 554 q 782 433 812 465 q 707 393 752 402 q 783 335 754 376 q 812 245 812 294 q 701 71 812 143 q 435 0 591 0 q 170 97 279 0 q 59 332 59 194 l 59 332 m 182 507 q 218 450 194 472 q 269 429 243 429 q 331 447 306 429 q 357 490 357 465 q 331 539 357 519 q 269 559 306 559 q 222 545 245 559 q 182 507 199 532 l 182 507 m 575 498 q 595 466 575 483 q 646 437 614 450 q 720 457 689 437 q 750 507 750 477 q 722 538 750 525 q 654 551 694 551 q 598 535 621 551 q 575 498 575 519 l 575 498 z "},"ఇ":{"ha":925,"x_min":37,"x_max":842,"o":"m 37 402 q 98 551 37 490 q 247 612 159 612 q 316 598 283 612 q 370 559 349 584 q 436 598 391 584 q 545 612 481 612 q 714 544 644 612 q 784 379 784 475 q 763 254 784 299 q 822 98 768 250 q 842 2 842 44 q 829 -35 842 -19 q 798 -50 816 -50 q 766 22 779 -50 q 737 142 754 95 q 665 23 725 71 q 527 -24 606 -24 q 392 35 446 -24 q 324 213 339 93 q 369 370 313 302 q 509 437 424 437 q 650 411 578 437 q 651 433 651 421 q 612 523 651 486 q 518 559 572 559 q 437 536 471 559 q 404 481 404 514 q 394 450 404 463 q 370 437 383 437 q 345 450 357 437 q 334 481 334 463 q 309 530 334 511 q 247 551 283 551 q 160 517 196 551 q 125 437 125 484 q 147 345 125 382 q 203 306 170 306 q 225 315 212 306 q 247 323 238 323 q 271 310 260 323 q 282 279 282 297 q 256 230 282 251 q 195 210 231 210 q 83 266 130 210 q 37 402 37 321 l 37 402 m 404 262 q 440 149 404 182 q 527 116 476 116 q 608 168 574 116 q 641 323 641 219 q 572 369 606 353 q 509 385 537 385 q 435 349 466 385 q 404 262 404 313 l 404 262 z "},"ఈ":{"ha":1320,"x_min":28,"x_max":1270,"o":"m 28 392 q 43 412 28 404 q 76 420 57 420 l 172 420 q 238 561 195 513 q 345 637 284 614 q 233 719 275 677 q 192 791 192 760 q 209 831 192 814 q 249 848 226 848 q 292 821 268 848 q 345 743 316 793 q 402 673 371 699 q 461 646 434 646 q 711 819 505 646 q 942 974 894 974 q 997 957 975 974 q 1019 916 1019 939 q 997 876 1019 892 q 942 859 975 859 q 859 836 909 859 q 750 772 810 814 l 576 637 q 698 564 651 616 q 769 420 745 510 l 1019 420 q 962 478 983 442 q 942 555 942 513 q 987 651 942 611 q 1096 690 1032 690 q 1218 651 1168 690 q 1270 555 1270 611 q 1246 466 1270 507 q 1183 401 1223 425 q 1246 340 1223 382 q 1270 248 1270 300 q 1218 125 1270 176 q 1096 74 1168 74 q 987 120 1034 74 q 942 228 942 165 q 962 296 942 260 q 1019 363 983 332 l 769 363 q 701 106 779 211 q 461 -5 617 -5 q 229 106 308 -5 q 163 363 150 217 l 76 363 q 43 372 59 363 q 28 392 28 380 l 28 392 m 239 363 q 304 193 239 263 q 461 122 368 122 q 631 193 561 122 q 701 363 701 263 l 239 363 l 239 363 m 249 420 l 692 420 q 618 546 673 509 q 471 589 555 589 q 323 546 381 589 q 249 420 264 503 l 249 420 m 1000 555 q 1029 507 1000 536 q 1058 459 1058 479 q 1055 434 1058 444 q 1048 420 1052 425 l 1105 420 q 1181 454 1150 420 q 1211 536 1211 488 q 1178 605 1211 576 q 1096 632 1144 632 q 1028 610 1056 632 q 1000 555 1000 588 l 1000 555 m 1211 248 q 1184 330 1211 296 q 1116 363 1156 363 l 1077 363 q 1084 349 1081 357 q 1086 334 1086 342 q 1077 314 1086 326 q 1048 286 1067 301 q 1013 252 1025 267 q 1000 228 1000 237 q 1031 160 1004 188 q 1096 132 1059 132 q 1178 166 1144 132 q 1211 248 1211 199 l 1211 248 z "},"ఉ":{"ha":1024,"x_min":73,"x_max":939,"o":"m 73 279 q 172 515 73 418 q 414 612 272 612 l 378 752 q 395 789 378 773 q 431 804 410 804 q 468 789 452 804 q 484 752 484 773 l 449 612 q 623 593 552 612 q 694 542 694 574 q 682 524 694 530 q 659 525 671 517 q 422 559 597 559 q 309 541 359 559 q 230 490 258 523 l 903 490 q 928 481 918 490 q 939 463 939 474 q 928 445 939 453 q 903 437 918 437 l 195 437 q 163 387 174 420 q 151 315 151 355 q 190 228 151 264 q 283 192 229 192 q 345 206 317 192 q 387 245 374 220 q 406 270 396 260 q 422 279 416 279 q 439 270 429 279 q 458 245 449 260 q 513 206 471 220 q 615 192 555 192 q 558 233 580 204 q 536 297 536 262 q 572 372 536 341 q 659 402 608 402 q 745 353 709 402 q 781 236 781 304 q 725 69 781 138 q 589 0 669 0 q 482 44 529 0 q 422 157 435 89 q 366 44 410 89 q 265 0 321 0 q 125 76 178 0 q 73 279 73 152 l 73 279 m 589 288 q 609 245 589 264 q 659 227 629 227 q 709 248 688 227 q 728 297 728 267 q 709 340 728 321 q 659 359 688 359 q 609 338 629 359 q 589 288 589 318 l 589 288 z "},"ఊ":{"ha":1264,"x_min":61,"x_max":1155,"o":"m 61 279 q 141 490 61 399 q 341 604 220 583 l 306 752 q 322 789 306 773 q 359 804 338 804 q 395 789 380 804 q 411 752 411 773 l 385 612 l 507 612 l 473 752 q 488 789 473 773 q 525 804 504 804 q 562 789 546 804 q 577 752 577 773 l 551 612 q 652 581 612 602 q 691 542 691 562 q 682 526 691 532 q 665 525 673 519 q 586 551 635 542 q 473 559 537 559 q 319 541 383 559 q 227 490 256 523 l 945 490 q 887 545 908 507 q 866 629 866 583 q 907 716 866 680 q 1006 752 948 752 q 1111 711 1067 752 q 1155 612 1155 670 q 1131 523 1155 563 q 1067 463 1107 483 q 1131 406 1107 444 q 1155 323 1155 369 q 1111 218 1155 262 q 1006 175 1067 175 q 907 216 948 175 q 866 315 866 257 q 884 385 866 353 q 936 437 903 418 l 184 437 q 157 383 166 416 q 149 306 149 350 q 184 225 149 258 q 271 192 220 192 q 332 202 306 192 q 368 227 359 212 q 395 266 381 252 q 420 279 410 279 q 464 227 434 279 q 501 195 476 206 q 560 184 527 184 q 595 188 579 184 q 621 201 610 192 q 558 240 583 212 q 534 306 534 269 q 567 374 534 346 q 648 402 600 402 q 734 359 698 402 q 770 254 770 315 q 720 69 770 138 q 586 0 670 0 q 469 46 518 0 q 420 157 420 92 q 360 44 408 89 q 254 0 313 0 q 114 76 166 0 q 61 279 61 152 l 61 279 m 1102 323 q 1069 404 1102 371 q 989 437 1036 437 q 995 427 992 432 q 998 420 998 423 q 954 385 998 409 q 928 357 938 376 q 918 315 918 338 q 944 252 918 278 q 1006 227 969 227 q 1074 255 1046 227 q 1102 323 1102 283 l 1102 323 m 577 306 q 597 256 577 276 q 648 236 618 236 q 697 256 677 236 q 718 306 718 276 q 697 349 718 330 q 648 367 677 367 q 597 349 618 367 q 577 306 577 330 l 577 306 m 918 629 q 945 577 918 608 q 971 525 971 546 q 968 502 971 511 q 962 490 966 493 q 1061 526 1020 490 q 1102 612 1102 562 q 1074 674 1102 649 q 1006 700 1046 700 q 944 680 969 700 q 918 629 918 659 l 918 629 z "},"ఋ":{"ha":1514,"x_min":43,"x_max":1435,"o":"m 1107 233 q 1134 195 1122 201 q 1207 181 1162 181 q 1318 235 1272 181 q 1365 364 1365 290 q 1318 494 1365 439 q 1207 548 1272 548 q 1177 539 1197 548 q 1146 531 1157 531 q 1116 547 1128 531 q 1103 583 1103 562 q 1121 614 1103 601 q 1164 627 1139 627 q 1355 537 1276 627 q 1435 321 1435 447 q 1373 92 1435 177 q 1207 6 1311 6 q 1116 38 1155 6 l 1063 117 l 1053 96 q 887 11 979 -6 q 808 54 871 14 l 741 138 l 725 94 q 559 8 663 8 q 468 40 507 8 q 420 121 429 73 q 363 40 411 73 q 254 8 317 8 q 107 66 163 8 q 52 218 52 123 q 95 326 52 277 q 210 401 138 375 q 286 448 257 419 q 315 507 315 477 q 296 549 315 531 q 254 568 278 568 q 203 552 224 568 q 184 515 184 536 q 161 465 184 486 q 106 446 138 446 q 62 465 80 446 q 43 515 43 486 l 43 515 q 92 595 43 562 q 210 629 142 629 q 327 593 278 629 q 376 507 376 557 q 353 432 376 465 q 288 384 329 398 q 193 332 229 363 q 157 271 157 300 q 191 208 157 233 q 271 183 224 183 q 351 197 318 183 q 393 235 387 212 q 405 254 397 248 q 420 262 413 262 q 435 254 427 262 q 446 235 442 248 q 486 197 455 211 q 559 183 517 183 q 671 237 625 183 q 718 366 718 292 q 671 496 718 441 q 559 550 625 550 q 529 541 549 550 q 498 533 509 533 q 468 549 481 533 q 455 585 455 564 q 473 616 455 603 q 516 629 492 629 q 707 539 624 629 q 773 323 775 466 l 754 221 q 814 199 764 221 q 887 186 845 186 q 998 240 952 186 q 1045 369 1045 294 q 998 498 1045 444 q 887 553 952 553 q 857 544 877 553 q 826 536 837 536 q 795 551 808 536 q 783 588 783 567 q 801 618 783 606 q 844 631 819 631 q 1035 542 956 631 q 1115 326 1115 452 l 1107 233 z "},"ఌ":{"ha":1152,"x_min":28,"x_max":1015,"o":"m 657 203 q 753 172 699 172 q 876 257 824 172 q 928 461 928 342 q 814 696 928 599 q 543 793 702 793 q 512 804 525 793 q 499 828 499 814 q 512 846 499 839 q 543 854 525 854 q 877 722 739 854 q 1015 399 1015 589 q 943 100 1015 212 q 753 -12 871 -12 q 643 22 701 -12 q 568 87 635 26 q 545 187 544 108 q 600 302 546 210 q 621 389 617 331 q 625 436 623 423 q 628 475 628 456 q 588 600 628 549 q 492 652 547 652 q 417 629 448 652 q 387 573 387 606 q 376 543 387 557 q 351 529 366 529 q 327 543 338 529 q 317 573 317 555 q 286 623 317 602 q 212 643 255 643 q 137 610 168 643 q 106 529 106 576 q 130 454 106 486 q 185 424 152 424 q 207 433 194 424 q 229 441 220 441 q 248 429 241 441 q 255 398 255 415 q 233 355 255 372 q 176 336 210 336 q 71 388 114 336 q 28 511 28 440 l 28 511 q 86 648 28 593 q 229 704 145 704 q 290 691 259 704 q 351 652 321 677 q 411 691 381 677 q 465 704 441 704 q 616 661 564 704 q 708 544 688 604 q 724 432 726 490 q 718 353 722 380 q 694 261 711 302 l 657 203 z "},"ఎ":{"ha":908,"x_min":46,"x_max":808,"o":"m 46 193 q 100 329 46 273 q 230 385 155 385 q 329 359 286 385 q 387 289 372 332 q 448 212 405 241 q 545 184 491 184 q 669 269 616 184 q 720 473 720 353 q 607 708 720 610 q 335 805 494 805 q 304 815 317 805 q 292 840 292 826 q 304 858 292 850 q 335 866 317 866 q 669 733 531 866 q 808 411 808 600 q 736 112 808 224 q 545 0 664 0 q 455 37 494 0 q 405 131 416 73 q 350 37 400 75 q 230 0 300 0 q 96 52 146 0 q 46 193 46 105 l 46 193 m 108 236 q 144 168 108 196 q 230 140 179 140 q 317 168 281 140 q 353 236 353 196 q 317 304 353 277 q 230 332 281 332 q 144 304 179 332 q 108 236 108 277 l 108 236 z "},"ఏ":{"ha":900,"x_min":52,"x_max":813,"o":"m 139 787 q 201 974 139 880 q 323 1067 262 1067 q 347 1055 337 1067 q 358 1023 358 1041 q 271 945 358 1019 q 219 876 237 917 q 201 787 201 835 q 224 696 201 739 q 288 630 248 652 q 376 569 376 579 q 362 538 376 551 q 332 525 349 525 q 204 613 269 525 q 139 787 139 702 l 139 787 m 52 193 q 106 329 52 273 q 235 385 160 385 q 334 359 292 385 q 393 289 377 332 q 453 213 410 241 q 551 184 496 184 q 674 269 622 184 q 726 473 726 353 q 612 708 726 611 q 340 805 500 805 q 310 815 323 805 q 297 840 297 826 q 310 859 297 850 q 340 866 323 866 q 675 733 536 866 q 813 411 813 600 q 741 112 813 224 q 551 0 669 0 q 460 37 500 0 q 410 132 421 73 q 355 38 406 75 q 235 0 305 0 q 102 53 151 0 q 52 193 52 105 l 52 193 m 113 236 q 149 168 113 196 q 235 140 184 140 q 322 168 286 140 q 358 236 358 196 q 322 304 358 277 q 235 332 286 332 q 149 304 184 332 q 113 236 113 277 l 113 236 z "},"ఐ":{"ha":843,"x_min":50,"x_max":767,"o":"m 50 192 q 101 329 50 273 q 224 385 153 385 q 329 355 284 385 q 382 279 373 325 q 429 216 389 241 q 522 192 468 192 q 633 246 587 192 q 680 376 680 300 q 633 505 680 451 q 522 559 587 559 q 454 537 481 559 q 426 481 426 514 q 418 463 426 471 q 399 454 410 454 q 381 463 389 454 q 373 481 373 471 q 338 537 373 514 q 251 559 302 559 q 189 539 214 559 q 163 490 163 519 q 150 465 163 475 q 119 454 137 454 q 95 465 106 454 q 85 490 85 475 q 134 576 85 541 q 251 612 182 612 q 338 593 298 612 q 399 542 377 575 q 454 593 418 575 q 531 612 489 612 q 698 522 629 612 q 767 306 767 432 q 705 83 767 168 q 539 0 643 0 q 444 39 486 0 q 391 140 401 79 q 338 40 385 80 q 224 0 290 0 q 101 56 153 0 q 50 192 50 112 l 50 192 m 119 254 q 150 203 119 224 q 224 183 181 183 q 305 203 272 183 q 338 254 338 224 q 305 303 338 283 q 224 323 272 323 q 150 303 181 323 q 119 254 119 283 l 119 254 z "},"ఒ":{"ha":823,"x_min":51,"x_max":751,"o":"m 51 499 q 100 586 51 550 q 217 621 149 621 q 334 588 286 621 q 383 508 383 555 q 349 410 383 452 q 261 359 313 368 q 192 322 219 352 q 165 254 165 292 q 201 198 165 221 q 287 176 236 176 q 355 189 326 176 q 392 228 383 203 q 407 253 397 243 q 427 263 416 263 q 447 253 437 263 q 462 228 457 243 q 503 189 471 203 q 576 176 534 176 q 650 201 620 176 q 681 263 681 226 q 691 306 681 288 q 715 324 702 324 q 741 301 730 324 q 751 245 751 279 q 701 67 751 134 q 567 1 651 1 q 475 30 515 1 q 427 105 436 60 q 370 30 418 60 q 252 1 320 1 q 112 53 165 1 q 60 193 60 105 q 103 313 60 259 q 217 385 147 366 q 293 427 264 397 q 322 490 322 457 q 302 540 322 520 q 252 560 282 560 q 209 545 228 560 q 191 508 191 529 q 168 452 191 475 q 112 429 145 429 q 69 449 87 429 q 51 499 51 469 l 51 499 z "},"ఓ":{"ha":823,"x_min":43,"x_max":750,"o":"m 50 507 q 82 577 43 544 q 182 621 121 610 q 130 688 149 644 q 112 787 112 733 q 167 919 112 859 q 287 979 222 979 q 330 964 311 979 q 348 927 348 948 q 330 898 348 911 q 287 883 313 885 q 199 843 234 878 q 164 761 164 808 q 188 675 164 715 q 252 612 212 635 q 338 579 302 612 q 374 498 374 546 q 345 406 374 446 q 269 358 315 367 q 194 320 224 350 q 164 254 164 290 q 195 197 164 220 q 269 175 225 175 q 342 189 311 175 q 383 227 374 203 q 398 252 388 243 q 418 262 408 262 q 431 252 423 262 q 444 227 439 243 q 484 189 453 203 q 558 175 516 175 q 644 200 609 175 q 680 262 680 225 q 688 312 680 292 q 707 332 696 332 q 737 307 724 332 q 750 245 750 281 q 701 66 750 133 q 567 0 650 0 q 469 32 511 0 q 418 113 427 64 q 359 32 409 64 q 243 0 309 0 q 109 52 159 0 q 59 192 59 104 q 106 318 59 262 q 225 393 152 374 q 294 435 267 406 q 321 498 321 463 q 303 541 321 523 q 260 559 285 559 q 211 544 231 559 q 191 507 191 528 q 168 451 191 474 q 112 429 145 429 q 69 451 87 429 q 50 507 50 474 l 50 507 z "},"ఔ":{"ha":1046,"x_min":51,"x_max":961,"o":"m 77 509 q 84 537 77 523 q 104 562 92 551 l 86 562 q 62 569 72 562 q 51 587 51 577 q 62 606 51 598 q 86 614 72 614 l 383 614 q 476 650 437 614 q 515 736 515 686 q 476 810 515 780 q 383 842 437 842 l 104 842 q 66 849 83 842 q 51 867 51 857 q 66 886 51 878 q 104 894 83 894 l 786 894 q 909 845 858 894 q 961 728 961 795 q 914 610 961 659 q 804 562 868 562 q 705 605 745 562 q 663 710 663 649 q 684 789 663 753 q 742 842 705 824 l 532 842 q 564 800 553 827 q 576 736 576 771 q 520 613 576 665 q 383 562 464 562 q 403 528 395 545 q 410 492 410 511 q 381 403 410 442 q 304 351 352 363 q 222 313 254 337 q 191 264 191 288 q 224 202 191 227 q 304 176 258 176 q 378 191 347 176 q 418 229 410 204 q 433 254 424 245 q 454 264 443 264 q 479 220 464 264 q 521 189 487 201 q 602 176 555 176 q 683 202 650 176 q 716 264 716 227 q 724 314 716 294 q 742 334 732 334 q 766 309 756 334 q 777 246 777 283 q 727 68 777 134 q 593 1 677 1 q 496 37 537 1 q 445 124 454 71 q 386 37 436 71 q 270 1 336 1 q 136 56 186 1 q 86 203 86 112 q 130 317 86 266 q 243 387 174 367 q 319 429 291 399 q 349 492 349 458 q 330 541 349 521 q 288 562 312 562 q 240 545 259 562 q 220 509 220 530 q 196 453 220 475 q 138 430 172 430 q 96 453 114 430 q 77 509 77 475 l 77 509 m 899 728 q 861 808 899 774 q 768 842 823 842 q 781 829 777 836 q 786 815 786 822 q 777 792 786 804 q 751 771 766 780 q 732 747 739 764 q 724 710 724 731 q 747 648 724 673 q 804 623 770 623 q 871 653 844 623 q 899 728 899 684 l 899 728 z "},"క":{"ha":841,"x_min":49,"x_max":781,"o":"m 361 627 l 399 630 q 614 614 532 630 q 696 560 696 597 q 680 524 696 539 q 644 508 665 508 q 574 543 635 508 q 499 569 544 560 q 399 578 455 578 q 250 547 311 578 q 189 473 189 517 q 214 436 189 452 q 276 420 239 420 q 381 429 311 420 q 486 438 451 438 q 671 379 595 438 q 749 216 749 319 q 653 57 749 117 q 399 -2 558 -2 q 144 62 239 -2 q 49 234 49 127 l 49 234 q 57 271 49 255 q 75 286 68 294 q 92 267 85 276 q 119 234 106 244 q 228 189 158 203 q 408 173 302 173 q 574 206 505 173 q 644 286 644 239 q 597 363 644 340 q 486 385 553 385 q 381 376 451 385 q 276 368 311 368 q 172 399 215 368 q 127 473 127 429 q 207 584 127 538 l 295 618 l 174 675 q 90 781 90 734 l 90 781 q 102 818 90 802 q 133 834 116 834 q 238 729 152 834 q 286 684 262 699 q 326 667 309 667 q 579 886 317 669 q 711 974 684 974 q 760 958 741 974 q 781 922 781 943 q 762 878 781 897 q 720 860 744 860 q 644 844 683 860 q 570 799 606 829 l 361 627 z "},"ఖ":{"ha":1069,"x_min":48,"x_max":976,"o":"m 48 158 q 107 275 48 227 q 250 324 165 324 q 350 307 298 324 q 451 254 401 289 q 467 303 461 279 q 473 352 473 328 q 421 499 473 438 q 294 560 368 560 q 207 538 243 560 q 171 481 171 515 q 193 445 171 460 q 250 429 216 429 q 292 436 273 429 q 328 456 313 443 q 363 481 360 481 q 382 474 374 481 q 389 456 389 466 q 342 397 389 426 q 250 368 295 368 q 151 401 192 368 q 110 481 110 435 q 164 574 110 536 q 294 613 218 613 q 507 541 427 613 q 587 349 587 469 q 555 210 587 296 q 620 184 576 193 q 722 176 663 176 q 839 231 790 176 q 888 368 888 288 q 834 505 888 448 q 705 560 780 560 l 705 613 q 896 528 817 613 q 976 324 976 443 q 901 101 976 193 q 722 9 827 9 q 608 43 659 9 q 538 132 557 76 l 582 -52 q 572 -113 591 -85 q 521 -140 552 -140 q 469 -111 488 -140 q 460 -52 449 -83 l 503 123 q 391 39 458 68 q 250 9 325 9 q 107 53 165 9 q 48 158 48 97 l 48 158 m 153 201 q 181 165 153 180 q 250 149 210 149 q 343 162 298 149 q 425 201 388 176 q 344 247 389 231 q 250 263 298 263 q 181 245 210 263 q 153 201 153 227 l 153 201 z "},"గ":{"ha":903,"x_min":36,"x_max":814,"o":"m 311 629 l 207 675 q 123 782 123 734 l 123 782 q 136 819 123 803 q 166 835 149 835 q 271 730 185 835 q 319 684 296 700 q 359 668 342 668 q 612 887 351 669 q 744 975 718 975 q 793 959 774 975 q 814 922 814 943 q 795 879 814 897 q 753 861 777 861 q 677 845 716 861 q 604 800 639 829 l 394 627 q 595 545 520 618 q 683 316 683 460 q 616 87 683 175 q 456 0 550 0 q 431 16 441 0 q 420 52 420 31 l 420 140 q 431 164 420 154 q 456 175 441 175 q 555 231 515 175 q 595 386 595 287 q 528 523 595 468 q 363 578 459 578 q 199 523 267 578 q 132 386 132 467 q 170 231 132 286 q 263 175 209 175 q 288 164 277 175 q 298 140 298 154 l 298 52 q 288 16 298 31 q 263 0 277 0 q 102 87 169 0 q 36 316 36 175 l 36 316 q 124 545 36 460 q 311 629 197 616 z "},"ఘ":{"ha":985,"x_min":-1,"x_max":890,"o":"m 510 583 q 618 313 618 472 q 610 212 618 260 q 651 138 603 171 q 709 127 667 127 q 798 171 761 127 q 835 274 835 214 q 798 376 835 333 q 709 419 761 419 q 686 412 701 419 q 661 406 669 406 q 636 418 647 406 q 627 448 627 431 q 641 472 627 462 q 674 482 656 482 q 827 411 764 482 q 890 239 890 339 q 841 57 890 125 q 707 -11 800 -1 q 614 43 667 -18 l 576 118 q 559 85 576 115 q 403 0 509 0 q 332 27 365 0 q 284 98 300 53 q 233 27 269 53 q 152 0 195 0 q 41 41 82 0 q -1 153 -1 83 l -1 153 q 43 261 -1 218 q 144 307 85 307 q 237 281 195 307 q 291 216 276 256 q 322 157 291 180 q 395 132 352 132 q 505 198 458 132 q 549 354 549 263 q 461 566 549 479 q 441 571 455 572 q 433 586 433 578 q 441 600 433 593 q 461 608 449 607 q 485 604 474 608 q 510 583 505 593 m 43 715 q 53 744 43 732 q 78 757 64 757 q 161 673 91 757 q 199 637 180 649 q 231 624 216 624 q 432 798 225 624 q 536 868 515 868 q 576 855 560 868 q 592 826 592 842 q 577 792 592 806 q 543 777 564 777 q 484 765 514 777 q 425 728 453 752 q 231 583 252 583 q 110 630 176 583 q 43 715 43 677 l 43 715 m 55 180 q 83 127 55 149 q 152 104 111 104 q 221 127 193 104 q 250 180 250 149 q 221 236 250 214 q 152 256 193 256 q 83 236 111 256 q 55 180 55 214 l 55 180 m 298 28 l 334 -56 q 326 -109 341 -84 q 284 -132 311 -132 q 243 -109 258 -132 q 236 -56 228 -84 l 271 28 q 277 50 275 41 q 284 56 279 56 q 291 50 289 56 q 298 28 293 41 l 298 28 z "},"ఙ":{"ha":873,"x_min":26,"x_max":788,"o":"m 26 184 q 83 313 26 256 q 228 385 140 370 q 297 420 270 393 q 324 481 324 447 q 304 532 324 511 q 254 551 284 551 q 198 533 221 551 q 176 490 176 515 q 155 448 176 466 q 105 429 135 429 q 56 448 76 429 q 35 490 35 466 q 90 577 35 541 q 219 613 144 613 q 336 577 288 613 q 385 490 385 541 l 569 490 l 534 578 q 539 631 522 606 q 587 656 557 656 q 634 631 616 656 q 639 578 651 606 l 604 490 l 709 490 q 740 482 726 490 q 753 464 753 475 q 740 446 753 454 q 709 438 726 438 l 368 438 q 336 376 368 405 q 254 333 305 347 q 178 294 207 321 q 149 237 149 267 q 182 180 149 203 q 263 158 216 158 q 343 172 310 158 q 385 210 376 186 q 400 236 391 227 q 420 245 410 245 q 441 236 431 245 q 455 210 450 227 q 500 172 464 186 q 587 158 536 158 q 677 186 639 158 q 718 254 714 214 q 708 300 720 277 q 674 342 696 322 l 683 359 q 759 305 730 347 q 788 210 788 263 q 729 56 788 119 q 587 -8 671 -8 q 479 20 526 -8 q 420 97 433 50 q 357 20 403 50 q 254 -8 312 -8 q 93 47 159 -8 q 26 184 26 104 l 26 184 z "},"చ":{"ha":975,"x_min":40,"x_max":897,"o":"m 475 604 l 647 769 l 761 837 q 836 852 787 852 q 879 871 861 852 q 897 914 897 889 q 877 951 897 935 q 827 966 857 966 q 696 879 801 966 q 442 660 434 661 q 402 676 426 660 q 355 722 379 692 q 250 827 269 827 q 219 810 233 827 q 206 774 206 795 l 206 774 q 290 667 206 726 l 424 610 q 400 600 405 615 q 407 566 395 578 q 424 549 415 550 q 578 457 532 528 q 640 323 635 373 q 624 214 648 252 q 524 133 593 168 q 456 145 507 125 q 420 177 429 156 q 408 198 415 190 q 391 206 401 206 q 380 198 386 206 q 370 177 375 190 q 340 145 361 156 q 289 133 318 133 q 211 159 243 133 q 179 221 179 184 q 213 293 179 263 q 296 323 247 323 q 317 330 309 323 q 326 345 326 336 q 317 361 326 355 q 296 368 309 368 l 62 368 q 46 361 53 368 q 40 345 40 355 q 46 330 40 336 q 62 323 53 323 l 194 323 q 145 258 163 298 q 127 170 127 217 l 127 170 q 169 51 127 100 q 267 1 210 1 q 347 33 313 1 q 391 111 382 64 q 435 33 401 64 q 516 1 470 1 q 675 130 606 1 q 705 336 723 217 q 626 494 695 408 q 475 604 551 588 z "},"ఛ":{"ha":960,"x_min":40,"x_max":897,"o":"m 475 604 l 647 769 l 761 837 q 836 852 787 852 q 879 871 861 852 q 897 914 897 889 q 877 951 897 935 q 827 966 857 966 q 696 879 801 966 q 442 660 434 661 q 402 676 426 660 q 355 722 379 692 q 250 827 269 827 q 219 810 233 827 q 206 774 206 795 l 206 774 q 290 667 206 726 l 424 610 q 400 600 405 615 q 407 566 395 578 q 424 549 415 550 q 578 457 532 528 q 640 323 635 373 q 624 214 648 252 q 524 133 593 168 q 456 145 507 125 q 420 177 429 156 q 408 198 415 190 q 391 206 401 206 q 380 198 386 206 q 370 177 375 190 q 340 145 361 156 q 289 133 318 133 q 211 159 243 133 q 179 221 179 184 q 213 293 179 263 q 296 323 247 323 q 317 330 309 323 q 326 345 326 336 q 317 361 326 355 q 296 368 309 368 l 62 368 q 46 361 53 368 q 40 345 40 355 q 46 330 40 336 q 62 323 53 323 l 194 323 q 145 258 163 298 q 127 170 127 217 l 127 170 q 169 51 127 100 q 267 1 210 1 q 347 33 313 1 q 391 111 382 64 q 435 33 401 64 q 516 1 470 1 q 675 130 606 1 q 705 336 723 217 q 626 494 695 408 q 475 604 551 588 m 352 -182 l 380 14 l 401 14 l 429 -182 q 416 -212 429 -199 q 387 -224 404 -224 q 362 -212 373 -224 q 352 -182 352 -199 l 352 -182 z "},"జ":{"ha":842,"x_min":51,"x_max":777,"o":"m 51 183 q 96 302 51 246 q 217 385 142 357 q 293 435 264 402 q 322 507 322 469 q 304 544 322 528 q 261 559 286 559 q 211 544 231 559 q 191 507 191 528 q 171 457 191 477 q 121 437 151 437 q 71 457 91 437 q 51 507 51 477 q 102 587 51 554 q 226 621 154 621 q 334 599 289 621 q 383 542 378 577 q 476 465 425 492 q 576 437 527 437 q 650 456 620 437 q 681 498 681 474 q 661 541 681 523 q 611 559 641 559 q 587 568 597 559 q 576 586 576 575 q 587 604 576 596 q 611 612 597 612 q 728 579 679 612 q 777 498 777 546 q 718 418 777 451 q 576 385 660 385 q 469 408 520 385 q 383 472 418 430 q 352 409 378 437 q 287 367 326 381 q 211 321 240 350 q 182 262 182 292 q 213 200 182 225 q 287 175 243 175 q 355 189 326 175 q 392 227 383 203 q 407 252 397 243 q 427 262 416 262 q 448 252 437 262 q 462 227 457 243 q 503 189 471 203 q 576 175 534 175 q 650 200 620 175 q 681 262 681 225 q 689 299 681 283 q 707 315 696 315 q 750 279 732 315 q 768 192 768 243 q 712 62 768 117 q 576 8 656 8 q 495 31 536 8 q 427 96 455 54 q 370 27 420 54 q 252 0 320 0 q 110 54 168 0 q 51 183 51 109 l 51 183 z "},"ఝ":{"ha":1474,"x_min":45,"x_max":1336,"o":"m 882 -152 l 910 44 l 931 44 l 959 -152 q 947 -182 959 -170 q 917 -194 935 -194 q 892 -182 903 -194 q 882 -152 882 -170 l 882 -152 m 382 614 q 523 522 465 597 q 605 306 605 416 q 638 213 605 252 q 718 175 671 175 q 829 231 783 175 q 876 367 876 287 q 820 504 876 448 q 684 559 764 559 l 684 612 q 875 522 795 612 q 957 306 968 418 q 1019 213 955 285 q 1099 175 1053 175 q 1211 231 1164 175 q 1257 367 1257 287 q 1201 504 1257 448 q 1065 559 1145 559 l 1065 612 q 1256 522 1177 612 q 1336 306 1336 432 q 1270 90 1336 180 q 1108 0 1203 0 q 993 37 1038 0 q 928 154 920 96 q 888 90 926 141 q 727 0 822 0 q 612 37 661 0 q 552 131 563 73 q 463 35 524 71 q 325 0 402 0 q 127 90 210 0 q 45 306 45 178 l 45 306 q 127 522 45 439 q 316 617 215 612 l 195 675 q 111 782 111 734 l 111 782 q 123 819 111 803 q 154 835 137 835 q 259 730 173 835 q 307 684 283 700 q 347 668 330 668 q 600 887 338 669 q 732 975 705 975 q 781 959 762 975 q 802 922 802 943 q 783 879 802 897 q 741 861 765 861 q 665 845 691 861 l 551 777 l 382 614 m 123 367 q 182 231 123 287 q 325 175 241 175 q 467 231 409 175 q 526 367 526 287 q 467 504 526 448 q 325 559 409 559 q 182 504 241 559 q 123 367 123 448 l 123 367 z "},"ఞ":{"ha":1162,"x_min":31,"x_max":1072,"o":"m 31 409 q 90 546 31 490 q 233 602 149 602 q 294 589 262 602 q 355 549 325 575 q 414 589 385 575 q 469 602 444 602 q 620 559 553 602 q 713 444 687 516 l 880 444 l 845 567 q 855 602 840 586 q 897 619 871 619 q 937 604 922 619 q 949 567 954 588 l 924 444 l 1037 444 q 1062 436 1051 444 q 1072 418 1072 429 q 1062 399 1072 408 q 1037 392 1051 392 l 722 392 q 727 330 729 366 q 713 252 724 294 q 836 110 792 185 q 880 -37 880 35 q 864 -74 880 -58 q 827 -90 848 -90 q 791 -74 806 -90 q 774 -37 774 -58 q 752 70 774 17 q 687 164 729 122 q 605 50 668 94 q 460 7 542 7 q 317 53 376 7 q 258 164 258 100 q 317 281 258 233 q 460 330 376 330 q 547 321 507 330 q 617 296 587 313 q 628 334 625 315 q 631 372 631 353 q 591 498 631 446 q 495 549 551 549 q 420 526 451 549 q 390 471 390 504 q 379 440 390 453 q 355 427 369 427 q 330 440 341 427 q 320 471 320 453 q 289 520 320 500 q 215 541 258 541 q 140 507 171 541 q 110 427 110 474 q 133 352 110 383 q 189 321 155 321 q 210 330 197 321 q 233 339 224 339 q 251 326 243 339 q 258 296 258 313 q 236 252 258 271 q 180 234 213 234 q 75 286 119 234 q 31 409 31 338 l 31 409 m 381 217 q 412 180 381 196 q 486 164 442 164 q 562 184 530 164 q 600 234 595 204 q 555 267 586 255 q 486 278 525 278 q 412 260 442 278 q 381 217 381 241 l 381 217 z "},"ట":{"ha":897,"x_min":33,"x_max":812,"o":"m 33 306 q 85 493 33 413 q 216 595 136 574 q 191 691 191 667 q 213 777 191 742 q 269 813 236 813 q 288 806 279 813 q 295 787 295 798 q 278 739 295 770 q 260 691 260 709 q 264 643 260 667 q 278 595 269 619 q 364 562 328 595 q 400 481 400 528 q 364 400 400 433 q 278 367 328 367 q 216 383 241 367 q 191 420 191 399 q 201 438 191 430 q 225 446 212 446 q 252 437 234 446 q 278 429 269 429 q 321 444 302 429 q 339 481 339 460 q 319 524 339 505 q 269 542 299 542 q 164 481 208 542 q 120 332 120 420 q 159 221 120 267 q 252 175 197 175 q 348 184 309 175 q 391 210 387 192 q 406 235 397 225 q 427 245 416 245 q 447 235 437 245 q 462 210 456 225 q 496 184 467 194 q 566 175 524 175 q 677 221 631 175 q 724 332 724 267 q 688 469 724 413 q 602 525 652 525 q 566 516 589 525 q 532 507 544 507 q 495 523 511 507 q 479 559 479 538 q 495 596 479 581 q 532 612 511 612 q 729 522 647 612 q 812 306 812 432 q 749 83 812 168 q 584 0 687 0 q 480 35 524 0 q 427 122 435 70 q 368 35 418 70 q 252 0 318 0 q 92 83 152 0 q 33 306 33 168 l 33 306 z "},"ఠ":{"ha":950,"x_min":62,"x_max":848,"o":"m 425 625 q 600 538 524 610 q 691 301 691 450 q 606 83 691 165 q 376 0 520 0 q 147 83 233 0 q 62 301 62 165 l 62 301 q 153 538 62 450 q 351 627 237 618 l 241 675 q 157 782 157 734 l 157 782 q 170 819 157 803 q 201 835 184 835 q 306 730 220 835 q 353 684 330 700 q 393 668 377 668 q 647 887 385 669 q 779 975 752 975 q 828 959 808 975 q 848 922 848 943 q 830 879 848 897 q 787 861 812 861 q 712 845 751 861 q 638 800 673 829 l 425 625 m 140 359 q 210 222 140 279 q 376 167 279 167 q 543 222 474 167 q 612 359 612 279 q 543 518 612 462 q 376 574 474 574 q 210 518 279 574 q 140 359 140 462 l 140 359 m 271 387 q 302 443 271 420 q 376 465 332 465 q 451 443 420 465 q 481 387 481 420 q 451 303 481 326 q 376 280 420 280 q 302 303 332 280 q 271 387 271 326 l 271 387 z "},"డ":{"ha":1119,"x_min":39,"x_max":1000,"o":"m 561 616 q 617 602 591 610 q 633 575 627 598 q 626 555 636 566 q 604 544 617 545 q 581 551 602 544 q 548 562 564 557 q 441 576 496 576 q 232 484 353 576 q 144 323 144 418 q 188 212 144 258 q 293 166 232 166 q 370 176 338 166 q 407 201 401 185 q 423 233 414 220 q 441 245 433 245 q 466 233 454 245 q 486 201 478 220 q 526 176 491 185 q 616 166 562 166 q 700 185 664 166 q 748 236 736 204 q 710 216 732 224 q 661 210 688 210 q 574 243 610 210 q 538 323 538 276 q 579 404 538 370 q 677 437 620 437 q 814 381 758 437 q 870 245 870 325 q 796 65 870 140 q 616 -9 722 -9 q 505 17 553 -9 q 441 87 457 43 q 387 24 431 50 q 284 -1 344 -1 q 111 74 182 -1 q 39 253 39 149 l 39 253 q 157 501 39 395 q 441 628 301 630 l 503 627 l 393 675 q 309 782 309 734 l 309 782 q 322 819 309 803 q 353 835 336 835 q 458 730 372 835 q 505 684 482 700 q 545 668 529 668 q 799 887 537 669 q 930 975 904 975 q 980 959 960 975 q 1000 922 1000 943 q 982 879 1000 897 q 939 861 964 861 q 864 845 903 861 q 790 800 825 829 l 561 616 m 599 323 q 617 287 599 302 q 661 271 636 271 q 721 282 694 271 q 765 315 748 294 q 730 353 755 339 q 677 367 706 367 q 622 354 644 367 q 599 323 599 341 l 599 323 m 39 253 z "},"ఢ":{"ha":1119,"x_min":39,"x_max":1000,"o":"m 404 -182 l 432 14 l 453 14 l 481 -182 q 469 -212 481 -199 q 439 -224 456 -224 q 414 -212 425 -224 q 404 -182 404 -199 l 404 -182 m 561 616 q 617 602 591 610 q 633 575 627 598 q 626 555 636 566 q 604 544 617 545 q 581 551 602 544 q 548 562 564 557 q 441 576 496 576 q 232 484 353 576 q 144 323 144 418 q 188 212 144 258 q 293 166 232 166 q 370 176 338 166 q 407 201 401 185 q 423 233 414 220 q 441 245 433 245 q 466 233 454 245 q 486 201 478 220 q 526 176 491 185 q 616 166 562 166 q 700 185 664 166 q 748 236 736 204 q 710 216 732 224 q 661 210 688 210 q 574 243 610 210 q 538 323 538 276 q 579 404 538 370 q 677 437 620 437 q 814 381 758 437 q 870 245 870 325 q 796 65 870 140 q 616 -9 722 -9 q 505 17 553 -9 q 441 87 457 43 q 387 24 431 50 q 284 -1 344 -1 q 111 74 182 -1 q 39 253 39 149 l 39 253 q 157 501 39 395 q 441 628 301 630 l 503 627 l 393 675 q 309 782 309 734 l 309 782 q 322 819 309 803 q 353 835 336 835 q 458 730 372 835 q 505 684 482 700 q 545 668 529 668 q 799 887 537 669 q 930 975 904 975 q 980 959 960 975 q 1000 922 1000 943 q 982 879 1000 897 q 939 861 964 861 q 864 845 903 861 q 790 800 825 829 l 561 616 m 599 323 q 617 287 599 302 q 661 271 636 271 q 721 282 694 271 q 765 315 748 294 q 730 353 755 339 q 677 367 706 367 q 622 354 644 367 q 599 323 599 341 l 599 323 z "},"ణ":{"ha":924,"x_min":44,"x_max":848,"o":"m 44 176 q 75 277 44 231 q 157 342 106 322 q 76 382 109 351 q 44 455 44 415 q 111 566 44 520 q 271 612 177 612 q 377 594 331 612 q 446 543 423 576 q 511 594 469 576 q 604 612 553 612 q 777 526 705 612 q 848 315 848 437 q 789 86 848 172 q 630 1 730 1 q 496 56 546 1 q 446 201 446 111 q 490 313 446 267 q 595 359 534 359 q 645 343 625 359 q 665 307 665 328 q 660 294 665 300 q 648 289 654 289 q 621 298 639 289 q 595 307 604 307 q 552 288 570 307 q 534 245 534 270 q 559 195 534 216 q 621 176 585 176 q 708 234 672 176 q 744 376 744 292 q 703 506 744 452 q 604 560 661 560 q 517 538 553 560 q 481 481 481 515 q 471 451 481 464 q 446 437 460 437 q 422 451 432 437 q 411 481 411 464 q 383 532 411 511 q 315 551 355 551 q 235 526 268 551 q 201 464 201 500 q 221 396 201 424 q 271 368 241 368 q 296 360 286 368 q 307 342 307 352 q 296 323 307 331 q 271 315 286 315 q 221 292 241 315 q 201 237 201 270 q 221 194 201 212 q 271 176 241 176 l 323 176 q 349 168 338 176 q 359 149 359 159 l 359 96 q 317 28 359 56 q 219 1 277 1 q 96 52 147 1 q 44 176 44 104 l 44 176 z "},"త":{"ha":893,"x_min":28,"x_max":802,"o":"m 318 620 l 195 676 q 111 783 111 735 l 111 783 q 124 819 111 804 q 155 836 138 836 q 260 730 174 836 q 307 685 284 701 q 347 669 331 669 q 601 888 339 670 q 732 975 706 975 q 782 960 762 975 q 802 923 802 944 q 784 880 802 898 q 741 861 766 861 q 666 846 705 861 q 592 800 627 830 l 363 616 q 561 509 477 608 q 652 244 652 399 q 572 65 652 142 q 331 -24 480 -24 q 119 42 206 -24 q 28 163 28 111 l 28 163 q 74 297 28 241 q 184 353 119 353 q 261 330 231 353 q 293 271 293 305 q 263 214 293 239 q 191 190 233 190 q 143 202 163 190 q 123 231 123 214 q 130 245 123 240 q 144 251 136 251 q 168 244 152 251 q 191 237 183 237 q 230 248 212 237 q 245 271 245 258 q 228 300 245 288 q 184 312 210 312 q 117 286 145 312 q 90 224 90 260 q 153 111 90 155 q 320 68 216 68 q 507 107 434 68 q 578 210 578 145 q 544 282 578 252 q 463 312 510 312 q 414 300 434 312 q 395 271 395 288 q 410 248 395 259 q 449 237 426 237 q 476 244 458 237 q 503 251 494 251 q 517 245 511 251 q 524 231 524 240 q 502 202 524 214 q 449 190 480 190 q 377 214 409 190 q 347 271 347 237 q 381 334 347 308 q 463 359 415 359 q 535 342 500 359 q 591 292 570 324 q 547 452 591 382 q 393 565 498 526 q 340 570 380 570 q 279 553 299 570 q 231 536 237 517 q 231 597 214 587 q 318 620 259 614 z "},"థ":{"ha":997,"x_min":60,"x_max":893,"o":"m 413 612 l 286 675 q 202 781 202 734 l 202 781 q 215 818 202 802 q 245 834 229 834 q 351 729 264 834 q 398 684 375 699 q 438 667 422 667 q 692 886 430 669 q 823 974 797 974 q 873 958 853 974 q 893 922 893 943 q 875 878 893 897 q 832 860 857 860 q 757 844 795 860 q 683 799 718 829 l 451 614 q 693 513 591 605 q 804 271 804 413 q 741 75 804 149 q 576 0 680 0 q 478 35 520 0 q 427 123 436 71 q 374 35 418 71 q 270 0 330 0 q 117 75 176 0 q 60 271 60 149 l 60 271 q 168 513 60 413 q 413 612 269 606 m 147 324 q 194 219 147 262 q 304 175 240 175 q 363 195 336 175 q 401 245 389 214 q 414 271 406 261 q 427 280 422 280 q 440 271 433 280 q 454 245 448 261 q 492 195 466 214 q 550 175 518 175 q 654 219 611 175 q 699 324 699 262 q 619 491 699 422 q 427 560 539 560 q 230 491 312 560 q 147 324 147 422 l 147 324 m 331 412 q 359 461 331 441 q 427 481 387 481 q 496 461 467 481 q 524 412 524 441 q 496 361 524 382 q 427 341 467 341 q 359 361 387 341 q 331 412 331 382 l 331 412 m 454 0 l 488 -104 q 479 -171 499 -142 q 427 -201 460 -201 q 385 -173 403 -201 q 366 -104 366 -145 l 401 0 q 427 62 417 62 q 454 0 438 62 l 454 0 z "},"ద":{"ha":960,"x_min":60,"x_max":893,"o":"m 413 612 l 286 675 q 202 781 202 734 l 202 781 q 215 818 202 802 q 245 834 229 834 q 351 729 264 834 q 398 684 375 699 q 438 667 422 667 q 692 886 430 669 q 823 974 797 974 q 873 958 853 974 q 893 922 893 943 q 875 878 893 897 q 832 860 857 860 q 757 844 795 860 q 683 799 718 829 l 451 614 q 693 513 591 605 q 804 271 804 413 q 741 75 804 149 q 576 0 680 0 q 478 35 520 0 q 427 123 436 71 q 374 35 418 71 q 270 0 330 0 q 117 75 176 0 q 60 271 60 149 l 60 271 q 168 513 60 413 q 413 612 269 606 m 147 324 q 194 219 147 262 q 304 175 240 175 q 363 195 336 175 q 401 245 389 214 q 414 271 406 261 q 427 280 422 280 q 440 271 433 280 q 454 245 448 261 q 492 195 466 214 q 550 175 518 175 q 654 219 611 175 q 699 324 699 262 q 619 491 699 422 q 427 560 539 560 q 230 491 312 560 q 147 324 147 422 l 147 324 z "},"ధ":{"ha":960,"x_min":60,"x_max":893,"o":"m 413 612 l 286 675 q 202 781 202 734 l 202 781 q 215 818 202 802 q 245 834 229 834 q 351 729 264 834 q 398 684 375 699 q 438 667 422 667 q 692 886 430 669 q 823 974 797 974 q 873 958 853 974 q 893 922 893 943 q 875 878 893 897 q 832 860 857 860 q 757 844 795 860 q 683 799 718 829 l 451 614 q 693 513 591 605 q 804 271 804 413 q 741 75 804 149 q 576 0 680 0 q 478 35 520 0 q 427 123 436 71 q 374 35 418 71 q 270 0 330 0 q 117 75 176 0 q 60 271 60 149 l 60 271 q 168 513 60 413 q 413 612 269 606 m 147 324 q 194 219 147 262 q 304 175 240 175 q 363 195 336 175 q 401 245 389 214 q 414 271 406 261 q 427 280 422 280 q 440 271 433 280 q 454 245 448 261 q 492 195 466 214 q 550 175 518 175 q 654 219 611 175 q 699 324 699 262 q 619 491 699 422 q 427 560 539 560 q 230 491 312 560 q 147 324 147 422 l 147 324 m 454 0 l 488 -104 q 479 -171 499 -142 q 427 -201 460 -201 q 385 -173 403 -201 q 366 -104 366 -145 l 401 0 q 427 62 417 62 q 454 0 438 62 l 454 0 z "},"న":{"ha":1095,"x_min":54,"x_max":960,"o":"m 484 612 l 439 612 l 439 559 l 500 559 q 674 498 602 559 q 746 350 746 437 q 707 227 746 278 q 614 175 669 175 q 500 208 551 175 q 431 297 450 241 q 363 393 410 357 q 264 429 317 429 q 116 359 177 429 q 54 192 54 290 l 54 192 q 104 56 54 112 q 221 0 153 0 q 258 16 242 0 q 273 52 273 31 q 258 95 273 77 q 221 113 242 113 q 153 152 180 113 q 125 245 125 191 q 165 337 125 299 q 264 376 207 376 q 347 331 310 376 q 396 218 383 287 q 470 62 414 123 q 597 0 527 0 q 764 87 695 0 q 833 297 833 175 q 736 520 833 429 q 518 613 645 606 l 750 798 q 824 844 785 828 q 899 859 863 859 q 942 878 924 859 q 960 921 960 896 q 940 958 960 942 q 890 973 920 973 q 759 886 864 973 q 505 667 497 668 q 465 683 489 667 q 418 728 442 699 q 313 833 332 833 q 282 817 296 833 q 269 781 269 802 l 269 781 q 353 674 269 733 l 484 612 z "},"ప":{"ha":745,"x_min":22,"x_max":642,"o":"m 498 597 q 524 577 519 587 q 642 313 642 466 q 633 212 642 252 q 599 118 628 191 q 582 85 594 107 q 426 0 532 0 q 355 27 388 0 q 307 98 323 53 q 256 27 292 53 q 175 0 218 0 q 64 41 105 0 q 22 153 22 83 l 22 153 q 66 261 22 218 q 168 307 109 307 q 260 281 220 307 q 314 216 299 256 q 345 157 314 180 q 418 132 375 132 q 528 198 481 132 q 572 354 572 263 q 475 560 572 437 q 455 565 470 566 q 447 580 447 572 q 455 594 447 587 q 475 602 463 601 q 498 597 488 602 m 78 180 q 106 127 78 149 q 175 104 134 104 q 244 127 216 104 q 273 180 273 149 q 244 236 273 214 q 175 256 216 256 q 106 236 134 256 q 78 180 78 214 l 78 180 m 84 725 q 94 754 84 742 q 118 767 105 767 q 202 684 132 767 q 239 647 220 659 q 271 634 257 634 q 473 808 266 634 q 577 878 556 878 q 616 865 601 878 q 633 836 633 852 q 618 802 633 817 q 584 787 604 787 q 525 775 555 787 q 466 739 494 762 q 271 593 287 590 q 151 640 194 610 q 84 725 84 687 l 84 725 z "},"ఫ":{"ha":745,"x_min":22,"x_max":642,"o":"m 498 597 q 524 577 519 587 q 642 313 642 466 q 633 212 642 252 q 599 118 628 191 q 582 85 594 107 q 426 0 532 0 q 355 27 388 0 q 307 98 323 53 q 256 27 292 53 q 175 0 218 0 q 64 41 105 0 q 22 153 22 83 l 22 153 q 66 261 22 218 q 168 307 109 307 q 260 281 220 307 q 314 216 299 256 q 345 157 314 180 q 418 132 375 132 q 528 198 481 132 q 572 354 572 263 q 475 560 572 437 q 455 565 470 566 q 447 580 447 572 q 455 594 447 587 q 475 602 463 601 q 498 597 488 602 m 78 180 q 106 127 78 149 q 175 104 134 104 q 244 127 216 104 q 273 180 273 149 q 244 236 273 214 q 175 256 216 256 q 106 236 134 256 q 78 180 78 214 l 78 180 m 321 28 l 357 -56 q 349 -109 364 -84 q 308 -132 334 -132 q 266 -109 281 -132 q 259 -56 251 -84 l 294 28 q 300 50 298 41 q 307 56 302 56 q 314 50 312 56 q 321 28 316 41 l 321 28 m 81 712 q 91 741 81 729 q 116 754 102 754 q 199 671 129 754 q 237 634 218 646 q 269 621 254 621 q 470 795 263 621 q 574 865 553 865 q 614 852 598 865 q 630 823 630 840 q 615 789 630 804 q 581 774 602 774 q 522 762 552 774 q 463 726 491 749 q 269 581 284 577 q 148 627 191 597 q 81 712 81 674 l 81 712 z "},"బ":{"ha":900,"x_min":31,"x_max":801,"o":"m 31 498 q 80 578 31 544 q 197 612 129 612 q 314 576 265 612 q 363 490 363 541 q 340 421 363 453 q 276 376 316 390 q 180 321 216 355 q 144 254 144 287 q 180 191 144 216 q 267 166 216 166 q 359 180 321 166 q 407 218 400 195 q 418 237 410 229 q 433 245 426 245 q 448 237 440 245 q 460 218 456 231 q 501 180 468 194 q 582 166 534 166 q 687 221 643 166 q 730 353 730 276 q 669 487 730 432 q 521 542 608 542 l 521 604 q 718 521 636 604 q 801 323 801 439 q 739 88 801 176 q 573 -1 676 -1 q 480 26 521 -1 q 433 96 440 54 q 370 26 418 52 q 258 -1 321 -1 q 103 58 168 -1 q 39 201 39 117 q 83 315 39 262 q 197 393 125 367 q 273 437 244 411 q 302 490 302 463 q 283 532 302 514 q 241 551 265 551 q 187 532 210 551 q 165 490 165 514 q 144 447 165 465 q 92 429 122 429 q 49 448 66 429 q 31 498 31 469 l 31 498 z "},"భ":{"ha":1098,"x_min":31,"x_max":1025,"o":"m 389 -170 l 416 26 l 437 26 l 465 -170 q 453 -200 465 -188 q 423 -212 441 -212 q 399 -200 410 -212 q 389 -170 389 -188 l 389 -170 m 543 631 l 418 675 q 334 781 334 734 l 334 781 q 347 818 334 802 q 377 834 360 834 q 482 729 396 834 q 530 684 507 699 q 570 667 553 667 q 823 886 562 669 q 955 974 928 974 q 1004 958 985 974 q 1025 922 1025 943 q 1006 878 1025 897 q 964 860 988 860 q 888 844 914 860 l 774 787 l 591 621 q 718 541 670 595 q 801 323 801 446 q 739 88 801 176 q 573 -1 676 -1 q 480 26 521 -1 q 433 96 440 54 q 370 26 418 52 q 258 -1 321 -1 q 103 58 168 -1 q 39 201 39 117 q 83 315 39 262 q 197 393 125 367 q 273 437 244 411 q 302 490 302 463 q 283 532 302 514 q 241 551 265 551 q 187 532 210 551 q 165 490 165 514 q 144 447 165 465 q 92 429 122 429 q 49 448 66 429 q 31 498 31 469 l 31 498 q 80 578 31 544 q 197 612 129 612 q 314 576 265 612 q 363 490 363 541 q 340 421 363 453 q 276 376 316 390 q 180 321 216 355 q 144 254 144 287 q 180 191 144 216 q 267 166 216 166 q 359 180 321 166 q 407 218 400 195 q 418 237 410 229 q 433 245 426 245 q 448 237 440 245 q 460 218 456 231 q 501 180 468 194 q 582 166 534 166 q 687 221 643 166 q 730 353 730 276 q 669 507 730 452 q 521 562 608 562 l 521 623 l 543 631 z "},"మ":{"ha":1144,"x_min":41,"x_max":1062,"o":"m 461 630 q 519 625 491 629 l 551 610 l 564 590 q 670 304 682 480 q 722 220 668 277 q 825 174 767 174 q 937 229 890 174 q 983 366 983 286 q 927 503 983 446 q 791 558 871 558 l 791 610 q 982 521 903 610 q 1062 304 1062 431 q 996 88 1062 178 q 834 -1 929 -1 q 719 35 764 -1 q 654 153 646 95 l 594 68 q 444 0 540 0 q 373 27 406 0 q 326 98 341 53 q 274 27 310 53 q 193 0 237 0 q 82 41 123 0 q 41 153 41 83 l 41 153 q 84 261 41 216 q 186 307 127 307 q 277 281 237 307 q 332 216 317 256 q 363 157 332 182 q 437 132 393 132 q 545 198 514 132 q 594 393 595 304 q 543 526 592 482 q 461 589 491 574 l 377 589 l 357 593 q 349 608 349 595 q 357 623 349 616 q 377 630 366 630 q 301 676 367 630 q 235 761 235 723 l 235 761 q 245 790 235 779 q 269 803 256 803 q 353 720 288 803 q 390 683 372 695 q 422 670 408 670 q 624 844 416 672 q 728 914 707 914 q 768 901 752 914 q 784 872 784 888 q 769 838 784 854 q 735 823 755 823 q 676 811 706 823 q 617 774 644 798 q 422 626 451 629 q 461 630 427 631 m 96 180 q 125 127 96 149 q 193 104 152 104 q 262 127 233 104 q 291 180 291 149 q 262 236 291 214 q 193 256 233 256 q 125 236 152 256 q 96 180 96 214 l 96 180 z "},"య":{"ha":1503,"x_min":31,"x_max":1396,"o":"m 743 612 l 646 673 q 562 779 562 732 l 562 779 q 574 816 562 800 q 605 832 588 832 q 710 727 624 832 q 758 682 734 697 q 798 665 781 665 q 1051 884 789 667 q 1183 972 1156 972 q 1232 956 1213 972 q 1253 920 1253 941 q 1234 876 1253 895 q 1192 858 1216 858 q 1116 842 1155 858 q 1042 797 1078 827 l 830 610 q 925 522 891 561 q 1002 312 1002 435 q 1048 214 1002 254 q 1160 172 1095 172 q 1265 227 1221 172 q 1308 356 1308 281 q 1259 486 1308 431 q 1142 540 1211 540 q 1118 550 1128 540 q 1107 574 1107 561 q 1118 600 1107 589 q 1142 610 1128 610 q 1322 519 1247 610 q 1396 304 1396 429 q 1334 81 1396 161 q 1169 0 1285 19 q 1023 22 1108 -10 q 932 76 958 46 q 862 18 911 39 q 749 -3 813 -3 q 619 36 677 -3 q 538 137 562 75 q 451 36 515 75 q 302 -3 387 -3 q 105 83 178 -3 q 31 312 31 169 l 31 312 q 87 496 31 416 q 233 601 143 576 l 269 615 q 349 613 300 618 l 387 602 q 529 498 497 546 q 583 312 583 417 q 634 214 583 254 q 758 172 686 172 q 868 227 822 172 q 915 356 915 281 q 863 486 915 431 q 740 540 811 540 q 708 551 722 540 q 696 574 696 561 q 709 600 696 589 q 743 612 722 610 m 101 365 q 159 229 101 284 q 302 172 218 172 q 445 229 387 172 q 503 365 503 284 q 445 501 503 446 q 302 557 387 557 q 159 501 218 557 q 101 365 101 446 l 101 365 z "},"ర":{"ha":950,"x_min":62,"x_max":848,"o":"m 425 625 q 600 538 524 610 q 691 301 691 450 q 606 83 691 165 q 376 0 520 0 q 147 83 233 0 q 62 301 62 165 l 62 301 q 153 538 62 450 q 351 627 237 618 l 241 675 q 157 782 157 734 l 157 782 q 170 819 157 803 q 201 835 184 835 q 306 730 220 835 q 353 684 330 700 q 393 668 377 668 q 647 887 385 669 q 779 975 752 975 q 828 959 808 975 q 848 922 848 943 q 830 879 848 897 q 787 861 812 861 q 712 845 751 861 q 638 800 673 829 l 425 625 m 140 359 q 210 222 140 279 q 376 167 279 167 q 543 222 474 167 q 612 359 612 279 q 543 518 612 462 q 376 574 474 574 q 210 518 279 574 q 140 359 140 462 l 140 359 z "},"ఱ":{"ha":996,"x_min":28,"x_max":885,"o":"m 28 306 q 97 522 28 432 q 264 612 166 612 q 357 578 318 612 q 395 498 395 545 q 365 406 395 444 q 290 367 334 367 q 228 383 254 367 q 203 420 203 399 q 211 438 203 430 q 229 446 218 446 q 260 437 239 446 q 290 429 279 429 q 321 448 308 429 q 334 498 334 469 q 314 541 334 523 q 264 559 294 559 q 159 504 201 559 q 115 367 115 448 q 161 233 115 288 q 273 177 208 177 q 361 191 323 177 q 412 229 399 205 q 431 254 421 245 q 448 264 441 264 q 465 254 454 264 q 483 229 474 245 q 532 191 496 205 q 614 177 567 177 q 737 233 686 177 q 789 367 789 289 q 750 504 789 448 q 658 559 712 559 q 602 541 625 559 q 579 498 579 523 q 607 448 579 469 q 675 429 635 429 q 706 437 688 429 q 736 446 726 446 q 755 438 747 446 q 762 420 762 430 q 737 383 762 399 q 675 367 712 367 q 629 372 650 367 q 587 385 607 376 l 404 385 q 386 393 393 385 q 378 411 378 400 q 386 429 378 421 q 404 437 393 437 l 535 437 q 522 468 526 453 q 517 498 517 483 q 559 578 517 545 q 658 612 600 612 q 819 522 752 612 q 885 306 885 432 q 810 92 885 182 q 631 2 736 2 q 509 37 560 2 q 448 124 456 72 q 387 37 439 71 q 264 2 334 2 q 97 92 166 2 q 28 306 28 182 l 28 306 z "},"ల":{"ha":842,"x_min":22,"x_max":775,"o":"m 22 332 q 89 517 22 441 q 250 595 155 595 q 349 559 308 595 q 390 472 390 523 q 349 385 390 421 q 250 350 308 350 q 175 370 214 350 q 136 411 136 390 q 144 429 136 421 q 163 437 152 437 q 206 420 178 437 q 250 402 234 402 q 306 422 283 402 q 329 472 329 442 q 306 522 329 502 q 250 542 283 542 q 157 490 196 542 q 119 367 119 439 q 178 231 119 287 q 320 175 236 175 l 495 175 q 631 231 576 175 q 688 367 688 287 q 631 504 688 448 q 495 559 576 559 l 495 612 q 692 530 610 612 q 775 332 775 448 q 673 91 775 182 q 399 0 570 0 q 125 91 227 0 q 22 332 22 182 l 22 332 z "},"ళ":{"ha":998,"x_min":25,"x_max":979,"o":"m 553 613 q 646 570 589 606 q 734 447 734 515 q 671 301 734 365 q 515 220 610 237 q 550 190 532 220 q 568 132 568 160 q 509 39 568 78 q 366 1 450 1 q 224 42 282 1 q 165 141 165 83 q 189 201 165 169 q 235 237 212 234 q 86 292 148 237 q 25 421 25 346 l 25 421 q 79 526 25 482 q 209 570 134 570 q 302 539 263 570 q 340 465 340 509 q 307 391 340 421 q 227 359 273 359 q 164 373 190 359 q 139 404 139 386 q 144 422 139 414 q 157 430 149 430 q 191 421 169 430 q 227 412 214 412 q 263 428 248 412 q 279 465 279 444 q 256 501 279 486 q 200 517 233 517 q 125 489 157 517 q 95 421 95 461 q 142 322 95 363 q 252 281 188 281 l 498 281 q 621 330 569 281 q 673 447 673 379 q 604 532 673 494 q 436 578 536 570 l 436 622 q 485 621 437 621 l 372 675 q 288 782 288 734 l 288 782 q 301 819 288 803 q 332 835 315 835 q 437 730 351 835 q 484 684 461 700 q 524 668 508 668 q 778 887 516 669 q 909 975 883 975 q 959 959 939 975 q 979 922 979 943 q 961 879 979 897 q 918 861 943 861 q 843 845 882 861 q 769 800 804 829 l 553 613 m 252 168 q 293 123 258 141 q 378 106 328 106 q 465 123 429 106 q 507 168 501 141 q 469 212 507 192 q 380 231 433 231 q 290 212 330 231 q 252 168 252 193 l 252 168 z "},"వ":{"ha":823,"x_min":84,"x_max":802,"o":"m 382 551 l 552 701 l 666 768 q 741 784 692 784 q 784 802 766 784 q 802 846 802 821 q 782 882 802 867 q 732 898 762 898 q 601 810 706 898 q 347 591 339 593 q 307 608 331 591 q 260 653 284 623 q 155 758 174 758 q 124 742 138 758 q 111 705 111 726 l 111 705 q 195 599 111 658 l 319 555 l 382 551 m 516 1 q 675 130 606 1 q 705 336 723 217 q 626 494 691 435 q 532 563 576 540 q 450 588 482 589 q 416 557 416 587 q 429 526 416 539 q 459 513 431 523 q 559 451 524 491 q 640 323 613 389 q 624 214 662 269 q 559 149 595 171 q 480 138 532 133 q 407 162 453 140 q 376 221 376 177 q 321 287 361 262 q 229 312 282 312 q 127 267 170 312 q 84 159 84 221 l 84 159 q 125 46 84 89 q 237 5 167 5 q 317 33 280 5 q 369 103 353 58 q 417 33 385 58 q 516 1 454 1 m 140 186 l 140 186 q 168 241 140 219 q 237 262 196 262 q 306 241 277 262 q 334 186 334 219 q 306 132 334 155 q 237 110 277 110 q 168 132 196 110 q 140 186 140 155 z "},"శ":{"ha":1057,"x_min":50,"x_max":1004,"o":"m 577 613 q 684 585 636 605 q 774 481 774 546 q 724 403 774 443 q 592 332 674 362 q 656 264 634 304 q 680 183 680 224 q 624 50 680 100 q 478 0 569 0 q 338 50 391 0 q 286 183 286 100 l 286 183 q 307 258 286 224 q 364 315 328 294 l 294 315 q 208 287 242 315 q 172 218 172 258 q 152 168 172 189 q 102 149 132 149 q 65 167 81 149 q 50 210 50 185 q 121 327 50 278 q 294 376 193 376 l 487 376 q 642 409 578 376 q 705 490 705 442 q 637 550 705 530 q 469 570 569 570 l 469 623 q 512 623 492 623 l 397 675 q 313 782 313 734 l 313 782 q 326 819 313 803 q 356 835 339 835 q 461 730 375 835 q 509 684 486 700 q 549 668 532 668 q 802 887 541 669 q 934 975 907 975 q 983 959 964 975 q 1004 922 1004 943 q 985 879 1004 897 q 943 861 967 861 q 867 845 906 861 q 793 800 829 829 l 577 613 m 382 231 q 412 173 382 197 q 487 149 443 149 q 569 171 538 149 q 601 231 601 194 q 568 290 601 266 q 487 315 534 315 q 412 290 443 315 q 382 231 382 266 l 382 231 z "},"ష":{"ha":745,"x_min":22,"x_max":861,"o":"m 613 128 q 583 65 614 123 q 426 0 549 0 q 355 27 388 0 q 307 98 323 53 q 256 27 292 53 q 175 0 218 0 q 64 41 105 0 q 22 153 22 83 l 22 153 q 66 261 22 218 q 168 307 109 307 q 260 281 220 307 q 314 216 299 256 q 345 157 314 180 q 418 132 375 132 q 528 198 481 132 q 572 354 572 263 q 475 560 572 437 q 455 565 470 566 q 447 580 447 572 q 455 594 447 587 q 475 602 463 601 q 498 597 488 602 q 524 577 519 587 q 642 313 642 466 q 642 286 642 300 l 647 239 l 667 144 q 739 17 694 43 q 827 -56 792 -14 q 861 -132 861 -95 q 845 -175 861 -157 q 808 -193 829 -193 q 666 -58 728 -193 q 613 128 632 16 m 78 180 q 106 127 78 149 q 175 104 134 104 q 244 127 216 104 q 273 180 273 149 q 244 236 273 214 q 175 256 216 256 q 106 236 134 256 q 78 180 78 214 l 78 180 m 133 736 q 142 765 133 753 q 167 778 154 778 q 251 694 180 778 q 288 658 269 670 q 320 645 306 645 q 522 819 315 645 q 626 889 605 889 q 665 876 650 889 q 682 847 682 863 q 667 813 682 827 q 633 798 653 798 q 574 786 604 798 q 515 749 543 773 q 320 604 336 601 q 199 651 243 621 q 133 736 133 698 l 133 736 z "},"స":{"ha":1011,"x_min":35,"x_max":892,"o":"m 621 600 q 717 549 682 583 q 793 367 787 479 q 753 250 793 353 q 651 193 731 193 q 526 229 579 193 q 449 327 471 265 q 375 432 425 393 q 267 471 323 471 q 103 395 170 471 q 35 211 35 319 l 35 211 q 90 61 35 123 q 218 0 143 0 q 259 17 241 0 q 276 57 276 34 q 259 104 276 85 q 218 124 241 124 q 143 167 174 124 q 113 269 113 210 q 157 370 113 329 q 267 413 203 413 q 357 364 316 413 q 411 240 397 315 q 492 68 431 135 q 632 0 555 0 q 816 96 741 0 q 892 328 892 193 q 785 573 892 472 q 637 658 720 634 l 600 655 q 578 647 587 655 q 569 623 560 631 q 578 606 580 608 q 621 600 582 611 m 199 732 q 209 761 199 749 q 234 774 220 774 q 317 690 247 774 q 355 654 336 666 q 387 641 372 641 q 588 815 381 641 q 692 885 671 885 q 732 872 716 885 q 748 843 748 859 q 733 809 748 823 q 699 794 720 794 q 640 782 670 794 q 581 745 609 769 q 387 600 408 600 q 266 647 332 600 q 199 732 199 694 l 199 732 z "},"హ":{"ha":1131,"x_min":68,"x_max":1042,"o":"m 459 513 q 559 451 467 412 q 640 323 608 404 q 624 214 662 269 q 559 149 595 171 q 480 138 532 133 q 407 162 453 140 q 376 221 376 177 q 321 287 361 262 q 229 312 282 312 q 127 267 170 312 q 84 159 84 221 l 84 159 q 125 46 84 89 q 237 5 167 5 q 317 33 280 5 q 369 103 353 58 q 417 33 385 58 q 516 1 454 1 q 675 130 606 1 q 705 336 723 217 q 626 494 691 435 l 601 512 l 690 514 q 823 513 820 515 q 771 462 806 524 q 753 391 753 429 l 753 391 q 794 304 753 341 q 893 269 835 269 q 998 309 954 269 q 1042 408 1042 351 q 996 519 1042 473 q 884 566 949 566 l 684 566 l 520 566 q 459 513 451 570 m 981 408 l 981 408 q 955 347 981 372 q 893 321 930 321 q 831 341 856 321 q 806 391 806 361 q 818 435 806 415 q 849 461 831 455 q 868 474 862 466 q 876 496 876 484 q 873 507 876 503 q 867 513 869 513 q 947 483 912 515 q 981 408 981 452 m 339 556 l 509 706 l 623 774 q 698 789 648 789 q 741 808 722 789 q 759 851 759 826 q 739 888 759 872 q 689 903 719 903 q 557 816 663 903 q 304 597 296 598 q 264 613 288 597 q 216 659 241 629 q 111 764 130 764 q 81 747 94 764 q 68 711 68 732 l 68 711 q 152 604 68 663 l 276 560 l 339 556 m 140 186 l 140 186 q 168 241 140 219 q 237 262 196 262 q 306 241 277 262 q 334 186 334 219 q 306 132 334 155 q 237 110 277 110 q 168 132 196 110 q 140 186 140 155 z "},"ా":{"ha":276,"x_min":-10,"x_max":772,"o":"m 16 654 q -2 663 3 656 q -10 681 -10 670 q -2 699 -10 691 q 16 707 5 707 l 415 707 l 615 707 q 726 661 680 707 q 772 549 772 614 q 728 450 772 492 q 624 410 685 410 q 525 446 566 410 q 484 532 484 482 l 484 532 q 502 603 484 570 q 553 654 520 635 l 420 654 l 190 654 l 16 654 m 711 549 q 678 624 711 593 q 597 654 645 654 q 604 648 601 652 q 606 637 606 644 q 599 615 606 625 q 580 602 593 607 q 549 576 562 596 q 536 532 536 556 q 562 482 536 502 q 624 462 587 462 q 686 488 661 462 q 711 549 711 513 l 711 549 z "},"ి":{"ha":113,"x_min":9,"x_max":420,"o":"m 420 768 q 360 628 420 686 q 216 570 300 570 q 104 587 155 570 q 20 638 53 605 q 10 660 12 647 q 18 682 9 673 q 39 692 27 690 q 60 684 52 692 q 130 641 88 656 q 216 626 170 626 q 311 659 270 626 q 357 738 353 690 q 302 694 340 710 q 216 678 265 678 q 97 719 146 678 q 48 817 48 759 q 102 916 48 874 q 233 957 157 957 q 366 901 311 957 q 420 768 420 846 l 420 768 m 111 817 q 142 761 111 783 q 216 738 172 738 q 273 755 237 738 q 330 771 309 771 q 348 767 340 771 q 359 755 356 762 l 359 768 q 323 861 359 822 q 233 899 286 899 q 147 874 182 899 q 111 817 111 850 l 111 817 z "}}}
